<?xml version="1.0" encoding="utf-8"?>
<!-- Generator: Adobe Illustrator 24.0.3, SVG Export Plug-In . SVG Version: 6.00 Build 0)  -->
<svg version="1.1" id="Layer_1" xmlns="http://www.w3.org/2000/svg" xmlns:xlink="http://www.w3.org/1999/xlink" x="0px" y="0px"
	 viewBox="0 0 24 24" style="enable-background:new 0 0 24 24;" xml:space="preserve">
<style type="text/css">
	.st0{fill-rule:evenodd;clip-rule:evenodd;fill:url(#radio_on_1_);}
</style>
<g id="radiobttom_active" transform="translate(-508 -240)">
	<linearGradient id="radio_on_1_" gradientUnits="userSpaceOnUse" x1="520" y1="261.4258" x2="520" y2="243.406">
		<stop  offset="0" style="stop-color:#00D3D5"/>
		<stop  offset="1" style="stop-color:#59c9c9"/>
	</linearGradient>
	<path id="radio_on" class="st0" d="M520,246c-3.3,0-6,2.7-6,6s2.7,6,6,6s6-2.7,6-6c0-3.3-2.6-6-5.9-6C520.1,246,520,246,520,246z
		 M520,240c-6.6,0-12,5.4-12,12s5.4,12,12,12s12-5.4,12-12C532,245.4,526.6,240,520,240z M520,261.6c-5.3,0-9.6-4.3-9.6-9.6
		s4.3-9.6,9.6-9.6s9.6,4.3,9.6,9.6C529.6,257.3,525.3,261.6,520,261.6z"/>
</g>
</svg>
