<?xml version="1.0" encoding="utf-8"?>
<!-- Generator: Adobe Illustrator 24.0.3, SVG Export Plug-In . SVG Version: 6.00 Build 0)  -->
<svg version="1.1" id="Layer_1" xmlns="http://www.w3.org/2000/svg" xmlns:xlink="http://www.w3.org/1999/xlink" x="0px" y="0px"
	 viewBox="0 0 70 40" style="enable-background:new 0 0 70 40;" xml:space="preserve">
<style type="text/css">
	.st0{fill:#FFFFFF;}
</style>
<title>Address Book Send</title>
<desc>Created with Sketch.</desc>
<g>
	<path class="st0" d="M25.8,12.9h-7.2c-0.6,0-1,0.4-1,1s0.4,1,1,1h7.2c0.5,0,1-0.5,1-1S26.5,12.9,25.8,12.9z"/>
	<path class="st0" d="M23.5,16.1h-4.8c-0.7,0-1,0.5-1,1s0.5,1,1,1h4.8c0.5,0,1-0.5,1-1S24,16.1,23.5,16.1z"/>
	<path class="st0" d="M30,20.6v-0.7v-0.7l0,0v-8.3c0-0.5-0.1-1-0.5-1.4C29.2,9.2,28.7,9,28,9H13.9c-1.1,0-2,0.9-2,2v18
		c0,1.1,0.9,2,2,2H25l0,0h3c0.5,0,1.1-0.2,1.5-0.7c0.3-0.4,0.5-0.9,0.5-1.4L30,20.6L30,20.6z M14.4,28.9h-0.4V11h0.4V28.9z M28,28.9
		h-6.8l0,0h-4.7V11H28v8.3l0,0V28.9z"/>
</g>
</svg>
