<?xml version="1.0" encoding="utf-8"?>
<!-- Generator: Adobe Illustrator 24.1.1, SVG Export Plug-In . SVG Version: 6.00 Build 0)  -->
<!DOCTYPE svg PUBLIC "-//W3C//DTD SVG 1.1//EN" "http://www.w3.org/Graphics/SVG/1.1/DTD/svg11.dtd" [
	<!ENTITY ns_extend "http://ns.adobe.com/Extensibility/1.0/">
	<!ENTITY ns_ai "http://ns.adobe.com/AdobeIllustrator/10.0/">
	<!ENTITY ns_graphs "http://ns.adobe.com/Graphs/1.0/">
	<!ENTITY ns_vars "http://ns.adobe.com/Variables/1.0/">
	<!ENTITY ns_imrep "http://ns.adobe.com/ImageReplacement/1.0/">
	<!ENTITY ns_sfw "http://ns.adobe.com/SaveForWeb/1.0/">
	<!ENTITY ns_custom "http://ns.adobe.com/GenericCustomNamespace/1.0/">
	<!ENTITY ns_adobe_xpath "http://ns.adobe.com/XPath/1.0/">
]>
<svg version="1.1" id="Layer_1" xmlns:x="&ns_extend;" xmlns:i="&ns_ai;" xmlns:graph="&ns_graphs;"
	 xmlns="http://www.w3.org/2000/svg" xmlns:xlink="http://www.w3.org/1999/xlink" x="0px" y="0px" viewBox="0 0 70 40"
	 style="enable-background:new 0 0 70 40;" xml:space="preserve">
<style type="text/css">
	.st0{fill:#707070;}
</style>
<metadata>
	<sfw  xmlns="&ns_sfw;">
		<slices></slices>
		<sliceSourceBounds  bottomLeftOrigin="true" height="22" width="18.1" x="11.9" y="9"></sliceSourceBounds>
	</sfw>
</metadata>
<desc>Created with Sketch.</desc>
<g>
	<path class="st0" d="M25.8,12.9h-7.2c-0.6,0-1,0.4-1,1s0.4,1,1,1h7.2c0.5,0,1-0.5,1-1S26.5,12.9,25.8,12.9z"/>
	<path class="st0" d="M23.5,16.1h-4.8c-0.7,0-1,0.5-1,1s0.5,1,1,1h4.8c0.5,0,1-0.5,1-1S24,16.1,23.5,16.1z"/>
	<path class="st0" d="M30,10.9c0-0.5-0.1-1-0.5-1.4C29.2,9.2,28.7,9,28,9H13.9c-1.1,0-2,0.9-2,2v18c0,1.1,0.9,2,2,2H28
		c0.5,0,1.1-0.2,1.5-0.7c0.3-0.4,0.5-0.9,0.5-1.4V10.9z M14.4,28.9H14V11h0.4V28.9z M28,28.9H16.5V11H28V28.9z"/>
</g>
</svg>
