<?xml version="1.0" encoding="utf-8"?>
<!-- Generator: Adobe Illustrator 24.1.1, SVG Export Plug-In . SVG Version: 6.00 Build 0)  -->
<!DOCTYPE svg PUBLIC "-//W3C//DTD SVG 1.1//EN" "http://www.w3.org/Graphics/SVG/1.1/DTD/svg11.dtd" [
	<!ENTITY ns_extend "http://ns.adobe.com/Extensibility/1.0/">
	<!ENTITY ns_ai "http://ns.adobe.com/AdobeIllustrator/10.0/">
	<!ENTITY ns_graphs "http://ns.adobe.com/Graphs/1.0/">
	<!ENTITY ns_vars "http://ns.adobe.com/Variables/1.0/">
	<!ENTITY ns_imrep "http://ns.adobe.com/ImageReplacement/1.0/">
	<!ENTITY ns_sfw "http://ns.adobe.com/SaveForWeb/1.0/">
	<!ENTITY ns_custom "http://ns.adobe.com/GenericCustomNamespace/1.0/">
	<!ENTITY ns_adobe_xpath "http://ns.adobe.com/XPath/1.0/">
]>
<svg version="1.1" id="Layer_1" xmlns:x="&ns_extend;" xmlns:i="&ns_ai;" xmlns:graph="&ns_graphs;"
	 xmlns="http://www.w3.org/2000/svg" xmlns:xlink="http://www.w3.org/1999/xlink" x="0px" y="0px" viewBox="0 0 26 26"
	 style="enable-background:new 0 0 26 26;" xml:space="preserve">
<style type="text/css">
	.st0{opacity:0.5;}
	.st1{fill:#FFFFFF;}
	.st2{fill:none;}
</style>
<metadata>
	<sfw  xmlns="&ns_sfw;">
		<slices></slices>
		<sliceSourceBounds  bottomLeftOrigin="true" height="26" width="26" x="0" y="0"></sliceSourceBounds>
	</sfw>
</metadata>
<g id="ic_address_book" class="st0">
	<g>
		<path class="st1" d="M17.8,5.7h-7.2c-0.6,0-1,0.4-1,1s0.4,1,1,1h7.2c0.5,0,1-0.5,1-1S18.5,5.7,17.8,5.7z"/>
		<path class="st1" d="M15.4,8.9h-4.8c-0.7,0-1,0.5-1,1s0.5,1,1,1h4.8c0.5,0,1-0.5,1-1S15.9,8.9,15.4,8.9z"/>
		<path class="st1" d="M22,3.7c0-0.5-0.1-1-0.5-1.4C21.2,2,20.7,1.8,20,1.8H5.9c-1.1,0-2,0.9-2,2v18c0,1.1,0.9,2,2,2H20
			c0.5,0,1.1-0.2,1.5-0.7c0.3-0.4,0.5-0.9,0.5-1.4L22,3.7z M6.4,21.7H6.1V3.8h0.4V21.7z M20,21.7H8.4V3.8H20V21.7z"/>
	</g>
	<path id="Rectangle_4393" class="st2" d="M0,0h26v26H0V0z"/>
</g>
</svg>
