<?xml version="1.0" encoding="utf-8"?>
<!-- Generator: Adobe Illustrator 24.0.3, SVG Export Plug-In . SVG Version: 6.00 Build 0)  -->
<svg version="1.1" id="ic-add_label" xmlns="http://www.w3.org/2000/svg" xmlns:xlink="http://www.w3.org/1999/xlink" x="0px"
	 y="0px" viewBox="0 0 24 24" style="enable-background:new 0 0 24 24;" xml:space="preserve">
<style type="text/css">
	.st0{fill:none;}
	.st1{fill:#707070;}
</style>
<path id="Rectangle_4535" class="st0" d="M0,0h24v24H0V0z"/>
<g>
	<path class="st1" d="M15.9,6.4c0-0.4-0.4-0.8-0.8-0.8H8.5C8,5.6,7.7,5.9,7.7,6.4S8,7.2,8.5,7.2h6.6C15.5,7.2,15.9,6.8,15.9,6.4z"/>
	<path class="st1" d="M8.5,8.6C8,8.6,7.7,9,7.7,9.4c0,0.4,0.4,0.8,0.8,0.8h4.4c0.4,0,0.8-0.4,0.8-0.8c0-0.4-0.4-0.8-0.8-0.8H8.5z"/>
	<path class="st1" d="M14.2,20.4c0,0-3.9,0-3.9,0l-4,0V3.6h10.7c0.1,0,0.1,0.1,0.1,0.1l0,8.9c0,0.4,0.4,0.8,0.8,0.8s0.8-0.4,0.8-0.8
		l0-8.9C18.8,2.8,18,2,17.1,2H4.2C3.2,2,2.5,2.8,2.5,3.7v16.6c0,0.9,0.8,1.7,1.7,1.7H14h0.3c0.4,0,0.8-0.4,0.8-0.8
		S14.7,20.4,14.2,20.4z M4.8,20.4H4.2c-0.1,0-0.1-0.1-0.1-0.1V3.7c0-0.1,0.1-0.1,0.1-0.1h0.6V20.4z"/>
	<path class="st1" d="M20.7,17.6h-2v-2c0-0.4-0.4-0.8-0.8-0.8s-0.8,0.4-0.8,0.8v2h-2c-0.4,0-0.8,0.4-0.8,0.8s0.4,0.8,0.8,0.8h2v2
		c0,0.4,0.4,0.8,0.8,0.8s0.8-0.4,0.8-0.8v-2h2c0.4,0,0.8-0.4,0.8-0.8S21.2,17.6,20.7,17.6z"/>
</g>
</svg>
