<?xml version="1.0" encoding="utf-8"?>
<!-- Generator: Adobe Illustrator 24.1.1, SVG Export Plug-In . SVG Version: 6.00 Build 0)  -->
<!DOCTYPE svg PUBLIC "-//W3C//DTD SVG 1.1//EN" "http://www.w3.org/Graphics/SVG/1.1/DTD/svg11.dtd" [
	<!ENTITY ns_extend "http://ns.adobe.com/Extensibility/1.0/">
	<!ENTITY ns_ai "http://ns.adobe.com/AdobeIllustrator/10.0/">
	<!ENTITY ns_graphs "http://ns.adobe.com/Graphs/1.0/">
	<!ENTITY ns_vars "http://ns.adobe.com/Variables/1.0/">
	<!ENTITY ns_imrep "http://ns.adobe.com/ImageReplacement/1.0/">
	<!ENTITY ns_sfw "http://ns.adobe.com/SaveForWeb/1.0/">
	<!ENTITY ns_custom "http://ns.adobe.com/GenericCustomNamespace/1.0/">
	<!ENTITY ns_adobe_xpath "http://ns.adobe.com/XPath/1.0/">
]>
<svg version="1.1" id="Layer_1" xmlns:x="&ns_extend;" xmlns:i="&ns_ai;" xmlns:graph="&ns_graphs;"
	 xmlns="http://www.w3.org/2000/svg" xmlns:xlink="http://www.w3.org/1999/xlink" x="0px" y="0px" viewBox="0 0 40 40"
	 style="enable-background:new 0 0 40 40;" xml:space="preserve">
<style type="text/css">
	.st0{fill:#59c9c9;}
</style>
<metadata>
	<sfw  xmlns="&ns_sfw;">
		<slices></slices>
		<sliceSourceBounds  bottomLeftOrigin="true" height="23.7" width="14.7" x="9.66" y="8.16"></sliceSourceBounds>
	</sfw>
</metadata>
<g id="ComboBox">
	<path class="st0" d="M10,26c0,0,6.19,5.49,6.2,5.5c0.28,0.25,0.55,0.38,0.94,0.33c0.4-0.05,0.65-0.31,0.94-0.56
		c0.2-0.18,5.09-4.53,5.56-4.94c0.12-0.11,0.25-0.22,0.37-0.33c0.4-0.4,0.5-1,0.1-1.4c-0.2-0.2-0.5-0.3-0.7-0.3s-0.5,0.1-0.7,0.3
		l-5.7,5c0,0-5.68-4.99-5.7-5c-0.37-0.32-0.97-0.44-1.35-0.07C9.51,24.95,9.59,25.59,10,26z"/>
	<path class="st0" d="M24.01,13.98c0,0-6.19-5.49-6.2-5.5c-0.28-0.25-0.55-0.38-0.94-0.33c-0.4,0.05-0.65,0.31-0.94,0.56
		c-0.2,0.18-5.09,4.53-5.56,4.94c-0.12,0.11-0.25,0.22-0.37,0.33c-0.4,0.4-0.5,1-0.1,1.4c0.2,0.2,0.5,0.3,0.7,0.3s0.5-0.1,0.7-0.3
		l5.7-5c0,0,5.68,4.99,5.7,5c0.37,0.32,0.97,0.44,1.35,0.07C24.5,15.03,24.42,14.39,24.01,13.98z"/>
</g>
</svg>
