<?xml version="1.0" encoding="utf-8"?>
<!-- Generator: Adobe Illustrator 24.1.1, SVG Export Plug-In . SVG Version: 6.00 Build 0)  -->
<!DOCTYPE svg PUBLIC "-//W3C//DTD SVG 1.1//EN" "http://www.w3.org/Graphics/SVG/1.1/DTD/svg11.dtd" [
	<!ENTITY ns_extend "http://ns.adobe.com/Extensibility/1.0/">
	<!ENTITY ns_ai "http://ns.adobe.com/AdobeIllustrator/10.0/">
	<!ENTITY ns_graphs "http://ns.adobe.com/Graphs/1.0/">
	<!ENTITY ns_vars "http://ns.adobe.com/Variables/1.0/">
	<!ENTITY ns_imrep "http://ns.adobe.com/ImageReplacement/1.0/">
	<!ENTITY ns_sfw "http://ns.adobe.com/SaveForWeb/1.0/">
	<!ENTITY ns_custom "http://ns.adobe.com/GenericCustomNamespace/1.0/">
	<!ENTITY ns_adobe_xpath "http://ns.adobe.com/XPath/1.0/">
]>
<svg version="1.1" id="ic-transaction-staked" xmlns:x="&ns_extend;" xmlns:i="&ns_ai;" xmlns:graph="&ns_graphs;"
	 xmlns="http://www.w3.org/2000/svg" xmlns:xlink="http://www.w3.org/1999/xlink" x="0px" y="0px" viewBox="0 0 24 24"
	 style="enable-background:new 0 0 24 24;" xml:space="preserve">
<style type="text/css">
	.st0{fill-rule:evenodd;clip-rule:evenodd;fill:#FFFFFF;}
	.st1{fill:#FFFFFF;}
</style>
<metadata>
	<sfw  xmlns="&ns_sfw;">
		<slices></slices>
		<sliceSourceBounds  bottomLeftOrigin="true" height="19.432" width="23.513" x="0.243" y="2.284"></sliceSourceBounds>
	</sfw>
</metadata>
<g>
	<path class="st0" d="M23.747,11.647c-0.909-2.141-2.792-4.518-4.486-6.087c-1.312-1.215-2.862-2.194-4.309-3.241
		c-0.139-0.1-0.328,0.031-0.28,0.197l0.373,1.295c0.013,0.046,0.045,0.084,0.085,0.106c0.34,0.19,0.541,0.377,0.849,0.609
		c0.296,0.224,0.671,0.526,0.942,0.782c0.44,0.416,0.566,1.004,0.291,1.555c-0.459,0.926-1.408,1.778-2.092,2.547
		c-1.001,1.125-2.054,2.201-3.12,3.264c-1.067-1.063-2.12-2.139-3.12-3.264C8.196,8.642,7.248,7.789,6.788,6.865
		C6.514,6.313,6.64,5.726,7.079,5.309c0.27-0.256,0.646-0.558,0.942-0.782C8.328,4.294,8.529,4.109,8.87,3.919
		c0.041-0.023,0.073-0.061,0.085-0.106l0.373-1.295c0.047-0.166-0.14-0.297-0.28-0.197C7.601,3.367,6.052,4.346,4.74,5.561
		C3.045,7.13,1.162,9.507,0.253,11.648c-0.084,0.196,0.403-0.3,0.531-0.47C1.748,9.901,3.469,7.93,4.117,7.936
		c0.84,0.008,1.421,0.669,2,1.188c1.653,1.48,3.205,3.074,4.729,4.695c-1.034,1.013-2.075,2.022-3.097,3.046
		c-1.099,1.101-2.209,2.193-3.292,3.31c-0.32,0.33-0.315,0.708,0.012,1.029c0.09,0.089,0.18,0.176,0.271,0.263
		c0.35,0.337,0.908,0.331,1.245-0.019c1.097-1.139,2.173-2.287,3.253-3.429c0.926-0.98,1.843-1.973,2.762-2.964
		c0.92,0.991,1.837,1.984,2.762,2.964c1.08,1.143,2.156,2.29,3.253,3.429c0.337,0.35,0.894,0.356,1.245,0.019
		c0.091-0.087,0.182-0.175,0.271-0.263c0.326-0.322,0.332-0.699,0.012-1.029c-1.083-1.117-2.193-2.209-3.292-3.31
		c-1.023-1.024-2.063-2.033-3.097-3.046c1.524-1.621,3.076-3.215,4.729-4.695c0.579-0.519,1.16-1.181,2-1.188
		c0.649-0.006,2.369,1.965,3.333,3.242C23.344,11.347,23.831,11.843,23.747,11.647z"/>
	<path class="st1" d="M14.907,6.671h-0.342l0.196-0.196c0.063-0.063,0.063-0.167,0-0.231c-0.063-0.063-0.167-0.063-0.231,0
		l-0.426,0.426h-0.571c0,0,0.428-0.428,0.431-0.43c0.04-0.04,0.063-0.097,0.063-0.154c0-0.1-0.068-0.181-0.159-0.207
		c-0.018-0.007-0.036-0.011-0.062-0.012h-0.615l0.404-0.404h0.603c0.09,0,0.163-0.073,0.163-0.163c0-0.09-0.073-0.164-0.163-0.164
		h-0.277l0.242-0.242c0.063-0.063,0.063-0.167,0-0.231c-0.063-0.063-0.167-0.063-0.231,0l-0.242,0.242V4.63
		c0-0.09-0.073-0.163-0.163-0.163S13.365,4.54,13.365,4.63v0.603l-0.404,0.404c0-0.164,0-0.327,0-0.491
		c0-0.062,0.012-0.134-0.014-0.193c-0.058-0.133-0.248-0.189-0.358-0.079l-0.437,0.437V4.74l0.426-0.426
		c0.063-0.063,0.063-0.167,0-0.231c-0.063-0.063-0.167-0.063-0.231,0l-0.196,0.196V3.937c0-0.09-0.073-0.163-0.163-0.163
		s-0.163,0.073-0.163,0.163v0.342l-0.196-0.196c-0.063-0.063-0.167-0.063-0.231,0c-0.063,0.063-0.063,0.167,0,0.231l0.426,0.426
		v0.571L11.405,4.89c-0.041-0.046-0.097-0.075-0.163-0.075c-0.113,0-0.22,0.104-0.22,0.22v0.617l-0.404-0.404V4.646
		c0-0.09-0.073-0.163-0.163-0.163c-0.09,0-0.163,0.073-0.163,0.163v0.277l-0.242-0.242c-0.063-0.063-0.167-0.063-0.231,0
		c-0.063,0.063-0.063,0.167,0,0.231l0.242,0.242H9.785c-0.09,0-0.163,0.073-0.163,0.163c0,0.09,0.073,0.163,0.163,0.163h0.604
		l0.404,0.404c-0.045,0-0.514,0-0.574,0c-0.047,0-0.09,0.001-0.133,0.022c-0.073,0.036-0.117,0.111-0.117,0.193
		c0,0.073,0.041,0.136,0.091,0.186c0.034,0.034,0.068,0.068,0.102,0.103c0.076,0.076,0.307,0.307,0.307,0.307H9.896L9.469,6.267
		c-0.063-0.063-0.167-0.063-0.231,0c-0.063,0.063-0.063,0.167,0,0.231l0.196,0.196H9.093c-0.09,0-0.163,0.073-0.163,0.163
		c0,0.09,0.073,0.163,0.163,0.163h0.342L9.239,7.215c-0.063,0.063-0.063,0.167,0,0.231c0.032,0.032,0.073,0.048,0.116,0.048
		c0.041,0,0.084-0.016,0.116-0.048l0.426-0.426h0.571c-0.113,0.113-0.226,0.226-0.339,0.34C10.083,7.404,10.027,7.447,10,7.505
		C9.973,7.564,9.97,7.634,9.998,7.693c0.027,0.057,0.072,0.086,0.126,0.112c0.06,0.03,0.144,0.017,0.209,0.017
		c0.089,0,0.176,0,0.265,0c0.071,0,0.142,0,0.213,0l-0.404,0.404H9.803c-0.09,0-0.163,0.073-0.163,0.163
		c0,0.09,0.073,0.163,0.163,0.163h0.277L9.838,8.793c-0.063,0.063-0.063,0.167,0,0.231C9.87,9.056,9.912,9.072,9.954,9.072
		c0.041,0,0.084-0.016,0.116-0.048l0.242-0.242v0.277c0,0.09,0.073,0.163,0.163,0.163c0.09,0,0.163-0.073,0.163-0.163V8.457
		l0.404-0.404v0.618c0,0.109,0.116,0.204,0.22,0.204c0.102,0,0.165-0.071,0.231-0.137c0.063-0.065,0.129-0.131,0.195-0.197
		c0.038-0.038,0.076-0.076,0.114-0.114c0.007-0.007,0.048-0.038,0.048-0.048V8.95l-0.426,0.426c-0.063,0.063-0.063,0.167,0,0.231
		c0.032,0.032,0.073,0.048,0.116,0.048c0.042,0,0.084-0.016,0.116-0.048l0.196-0.196v0.342c0,0.09,0.073,0.163,0.163,0.163
		c0.09,0,0.163-0.073,0.163-0.163V9.411l0.196,0.196c0.032,0.032,0.073,0.048,0.116,0.048c0.041,0,0.084-0.016,0.116-0.048
		c0.063-0.063,0.063-0.167,0-0.231L12.176,8.95V8.379c0.105,0.105,0.209,0.209,0.314,0.314c0.079,0.079,0.143,0.17,0.267,0.173
		c0.131,0.003,0.223-0.118,0.222-0.241c-0.001-0.082,0-0.165,0-0.247c0-0.114,0-0.228,0-0.343l0.404,0.404v0.604
		c0,0.09,0.073,0.163,0.163,0.163s0.163-0.073,0.163-0.163V8.766l0.242,0.242c0.032,0.032,0.073,0.048,0.116,0.048
		c0.042,0,0.084-0.016,0.116-0.048c0.063-0.063,0.063-0.167,0-0.231L13.94,8.536h0.277c0.09,0,0.163-0.073,0.163-0.163
		S14.307,8.21,14.217,8.21h-0.603l-0.405-0.404c0.15,0,0.301,0,0.452,0c0.056,0,0.111,0,0.166,0c0.024,0,0.047-0.006,0.068-0.016
		c0.139-0.064,0.189-0.245,0.075-0.359l-0.435-0.435h0.571l0.426,0.426c0.032,0.032,0.073,0.048,0.116,0.048
		c0.041,0,0.084-0.016,0.116-0.048c0.063-0.063,0.063-0.167,0-0.231l-0.196-0.196h0.342c0.09,0,0.163-0.073,0.163-0.163
		C15.072,6.743,14.998,6.671,14.907,6.671z M12.152,5.772l0.484-0.483v0.674L12.309,6.29c-0.049-0.027-0.1-0.049-0.156-0.062
		L12.152,5.772L12.152,5.772z M11.349,5.296l0.477,0.477v0.463c-0.055,0.016-0.106,0.038-0.155,0.067L11.349,5.98V5.296z
		 M10.445,6.21h0.674l0.328,0.328c-0.027,0.049-0.049,0.1-0.062,0.156h-0.455L10.445,6.21z M11.134,7.496h-0.683l0.476-0.477h0.463
		c0.016,0.055,0.038,0.106,0.067,0.155L11.134,7.496z M11.849,7.918l-0.484,0.483V7.727l0.328-0.328
		c0.049,0.027,0.1,0.049,0.156,0.062C11.849,7.462,11.849,7.918,11.849,7.918z M12,7.156c-0.171,0-0.311-0.139-0.311-0.312
		c0-0.172,0.139-0.312,0.311-0.312c0.171,0,0.312,0.139,0.312,0.312C12.312,7.017,12.171,7.156,12,7.156z M12.651,8.394
		l-0.477-0.476V7.455c0.055-0.016,0.106-0.038,0.155-0.067l0.323,0.323V8.394z M13.556,7.48h-0.674l-0.327-0.327
		c0.027-0.049,0.049-0.1,0.062-0.156h0.455L13.556,7.48z M13.072,6.671H12.61c-0.016-0.055-0.038-0.106-0.067-0.155l0.323-0.323
		h0.684L13.072,6.671z"/>
</g>
</svg>
