<?xml version="1.0" encoding="utf-8"?>
<!-- Generator: Adobe Illustrator 24.0.2, SVG Export Plug-In . SVG Version: 6.00 Build 0)  -->
<svg version="1.1" id="Layer_1" xmlns="http://www.w3.org/2000/svg" xmlns:xlink="http://www.w3.org/1999/xlink" x="0px" y="0px"
	 viewBox="0 0 24 24" style="enable-background:new 0 0 24 24;" xml:space="preserve">
<style type="text/css">
	.st0{opacity:0.7;}
	.st1{fill:#FFFFFF;}
</style>
<title>Artboard</title>
<desc>Created with Sketch.</desc>
<g id="Artboard" class="st0">
	<g id="ic-copy" transform="translate(3.000000, 3.000000)">
		<path class="st1" d="M13.5,18.5H7.8c-1.7,0-3.1-1.4-3.1-3.1V5.9c0-1.7,1.4-3.1,3.1-3.1h6.5c1.3,0.1,2.3,1.1,2.3,2.4v10.2
			C16.6,17.1,15.2,18.5,13.5,18.5z M14.3,16.1L14.3,16.1L14.3,16.1L14.3,16.1z M7.1,5.9v9.5c0,0.4,0.3,0.7,0.7,0.7h5.8
			c0.4,0,0.7-0.3,0.7-0.7V5.9c0-0.4-0.3-0.7-0.7-0.7H7.8C7.4,5.2,7.1,5.5,7.1,5.9z"/>
		<path class="st1" d="M13.1-0.5H7.2C4-0.5,1.4,2.1,1.4,5.3v5.5c0,0.7,0.5,1.2,1.2,1.2s1.2-0.5,1.2-1.2c0-1.6,0-5.3,0-5.7
			c0.1-1.6,1.7-3,3.2-3.2c0.7-0.1,6,0,6.1,0c0.7,0,1.2-0.5,1.2-1.2C14.3,0.1,13.8-0.5,13.1-0.5z"/>
	</g>
</g>
</svg>
