<?xml version="1.0" encoding="utf-8"?>
<!-- Generator: Adobe Illustrator 24.0.2, SVG Export Plug-In . SVG Version: 6.00 Build 0)  -->
<svg version="1.1" id="ic_connect" shape-rendering="geometricPrecision"
	 xmlns="http://www.w3.org/2000/svg" xmlns:xlink="http://www.w3.org/1999/xlink" x="0px" y="0px" viewBox="0 0 24 24"
	 style="enable-background:new 0 0 24 24;" xml:space="preserve">
<style type="text/css">
	.st0{fill:none;}
	.st1{fill:#FFFFFF;}
</style>
<path id="Rectangle_4416" class="st0" d="M0,0h24v24H0V0z"/>
<g>
	<path class="st1" d="M12,15.7c-1.2,0-2.1,1-2.1,2.1c0,1.2,1,2.1,2.1,2.1c1.2,0,2.1-1,2.1-2.1C14.1,16.7,13.2,15.7,12,15.7z"/>
	<path class="st1" d="M12,13.6c1.4,0,2.6,0.7,3.3,1.7c0.3,0.4,0.9,0.4,1.3,0.1l0,0c0.3-0.3,0.3-0.8,0.1-1.2
		c-1.1-1.4-2.8-2.4-4.7-2.4s-3.6,0.9-4.7,2.3C7,14.5,7,15,7.4,15.3l0,0c0.4,0.4,1,0.4,1.3-0.1C9.4,14.2,10.6,13.6,12,13.6z"/>
	<path class="st1" d="M12,7.8c-3,0-5.6,1.3-7.4,3.4c-0.3,0.4-0.3,0.9,0,1.2l0,0c0.4,0.4,1,0.3,1.3-0.1c1.5-1.7,3.6-2.8,6.1-2.8
		s4.7,1.1,6.1,2.9c0.3,0.4,0.9,0.4,1.3,0.1l0,0c0.3-0.3,0.3-0.9,0-1.2C17.6,9.2,15,7.8,12,7.8z"/>
	<path class="st1" d="M12,5.6c3.6,0,6.8,1.6,8.9,4.1c0.3,0.4,0.9,0.4,1.3,0l0,0c0.3-0.3,0.4-0.8,0.1-1.2C19.8,5.7,16.1,3.8,12,3.8
		S4.3,5.6,1.8,8.5c-0.3,0.4-0.3,0.9,0,1.2l0,0c0.4,0.4,1,0.3,1.3,0C5.3,7.2,8.4,5.6,12,5.6z"/>
</g>
</svg>
