<?xml version="1.0" encoding="utf-8"?>
<!-- Generator: Adobe Illustrator 24.0.2, SVG Export Plug-In . SVG Version: 6.00 Build 0)  -->
<svg version="1.1" id="Layer_1" xmlns="http://www.w3.org/2000/svg" xmlns:xlink="http://www.w3.org/1999/xlink" x="0px" y="0px"
	 viewBox="0 0 24 24" style="enable-background:new 0 0 24 24;" xml:space="preserve">
<style type="text/css">
	.st0{fill:#707070;}
</style>
<title>Artboard</title>
<desc>Created with Sketch.</desc>
<g id="Artboard">
	<g id="ic-copy" transform="translate(3.000000, 3.000000)">
		<path class="st0" d="M12.9,19H7.2c-1.7,0-3.1-1.4-3.1-3.1V6.4c0-1.7,1.4-3.1,3.1-3.1h6.5C15,3.4,16,4.4,16,5.7v10.2
			C16,17.6,14.6,19,12.9,19z M13.7,16.6L13.7,16.6L13.7,16.6L13.7,16.6z M6.5,6.4v9.5c0,0.4,0.3,0.7,0.7,0.7H13
			c0.4,0,0.7-0.3,0.7-0.7V6.4c0-0.4-0.3-0.7-0.7-0.7l-5.8,0C6.8,5.7,6.5,6,6.5,6.4z"/>
	</g>
</g>
<polygon class="st0" points="13.9,16 13.9,16 13.9,16 "/>
<path class="st0" d="M15.5,3H9.6C6.4,3,3.8,5.6,3.8,8.8v5.5c0,0.7,0.5,1.2,1.2,1.2c0.7,0,1.2-0.5,1.2-1.2c0-1.6,0-5.3,0-5.7
	c0.1-1.6,1.7-3,3.2-3.2c0.7-0.1,6,0,6.1,0c0.7,0,1.2-0.5,1.2-1.2C16.7,3.6,16.2,3,15.5,3z"/>
</svg>
