<?xml version="1.0" encoding="utf-8"?>
<!-- Generator: Adobe Illustrator 24.0.2, SVG Export Plug-In . SVG Version: 6.00 Build 0)  -->
<svg version="1.1" id="Layer_1" shape-rendering="crispEdges"
	 xmlns="http://www.w3.org/2000/svg" xmlns:xlink="http://www.w3.org/1999/xlink" x="0px" y="0px" viewBox="0 0 24 24"
	 style="enable-background:new 0 0 24 24;" xml:space="preserve">
<style type="text/css">
	.st0{fill:#FFFFFF;}
</style>
<title>Top BarTheme</title>
<desc>Created with Sketch.</desc>
<g>
	<path class="st0" d="M16.8,19l-0.2,0c-3.9,0-7-3.1-7-7s3.1-7,7-7c0.1,0,0.1,0,0.2,0l0.2,0c0.4,0,0.8-0.3,0.9-0.7
		c0.1-0.4-0.1-0.8-0.4-1c-1.5-0.9-3.3-1.4-5-1.4c-5.5,0-10,4.5-10,10c0,5.5,4.5,10,10,10c1.7,0,3.4-0.5,4.9-1.3
		c0.4-0.2,0.5-0.6,0.4-1C17.6,19.3,17.3,19,16.8,19z M12.4,20.2c-4.5,0-8.2-3.7-8.2-8.2s3.7-8.2,8.2-8.2c0.3,0,0.6,0,0.9,0
		C10,5.2,7.8,8.3,7.8,12c0,3.6,2.2,6.8,5.4,8.1C12.9,20.2,12.6,20.2,12.4,20.2z"/>
	<path class="st0" d="M16.9,7.3c-2.6,0-4.7,2.1-4.7,4.7s2.1,4.7,4.7,4.7s4.7-2.1,4.7-4.7S19.5,7.3,16.9,7.3z M16.9,14.9
		c-1.6,0-2.9-1.3-2.9-2.9s1.3-2.9,2.9-2.9c1.6,0,2.9,1.3,2.9,2.9S18.5,14.9,16.9,14.9z"/>
</g>
</svg>
