<?xml version="1.0" encoding="utf-8"?>
<!-- Generator: Adobe Illustrator 24.1.1, SVG Export Plug-In . SVG Version: 6.00 Build 0)  -->
<!DOCTYPE svg PUBLIC "-//W3C//DTD SVG 1.1//EN" "http://www.w3.org/Graphics/SVG/1.1/DTD/svg11.dtd" [
	<!ENTITY ns_extend "http://ns.adobe.com/Extensibility/1.0/">
	<!ENTITY ns_ai "http://ns.adobe.com/AdobeIllustrator/10.0/">
	<!ENTITY ns_graphs "http://ns.adobe.com/Graphs/1.0/">
	<!ENTITY ns_vars "http://ns.adobe.com/Variables/1.0/">
	<!ENTITY ns_imrep "http://ns.adobe.com/ImageReplacement/1.0/">
	<!ENTITY ns_sfw "http://ns.adobe.com/SaveForWeb/1.0/">
	<!ENTITY ns_custom "http://ns.adobe.com/GenericCustomNamespace/1.0/">
	<!ENTITY ns_adobe_xpath "http://ns.adobe.com/XPath/1.0/">
]>
<svg version="1.1" id="Layer_1" xmlns:x="&ns_extend;" xmlns:i="&ns_ai;" xmlns:graph="&ns_graphs;"
	 xmlns="http://www.w3.org/2000/svg" xmlns:xlink="http://www.w3.org/1999/xlink" x="0px" y="0px" viewBox="0 0 24 24"
	 style="enable-background:new 0 0 24 24;" xml:space="preserve">
<style type="text/css">
	.st0{fill-rule:evenodd;clip-rule:evenodd;fill:#00D3D5;}
	.st1{fill:none;}
</style>
<metadata>
	<sfw  xmlns="&ns_sfw;">
		<slices></slices>
		<sliceSourceBounds  bottomLeftOrigin="true" height="24" width="24" x="0" y="0"></sliceSourceBounds>
	</sfw>
</metadata>
<g id="check_active" transform="translate(-290 -244)">
	<g id="Group_8199" transform="translate(291 245)">
		<path class="st0" d="M19.6,0H2.4C1.1,0,0,1.1,0,2.4v17.1C0,20.9,1.1,22,2.4,22h17.1c1.3,0,2.4-1.1,2.4-2.4V2.4
			C22,1.1,20.9,0,19.6,0z M18.6,7.3l-9.2,9.2c-0.3,0.3-0.6,0.4-0.9,0.4c-0.4,0-0.6-0.1-0.9-0.4l-4.9-4.8c-0.5-0.5-0.5-1.2,0-1.8
			c0.5-0.5,1.2-0.5,1.8,0l3.9,3.9l8.3-8.3c0.5-0.5,1.2-0.5,1.8,0C19.1,6.1,19.2,6.7,18.6,7.3z"/>
	</g>
	<path id="Rectangle_4538" class="st1" d="M290,244h24v24h-24V244z"/>
</g>
</svg>
