<?xml version="1.0" encoding="utf-8"?>
<!-- Generator: Adobe Illustrator 24.0.3, SVG Export Plug-In . SVG Version: 6.00 Build 0)  -->
<svg version="1.1" id="Layer_1" xmlns="http://www.w3.org/2000/svg" xmlns:xlink="http://www.w3.org/1999/xlink" x="0px" y="0px"
	 viewBox="0 0 24 24" style="enable-background:new 0 0 24 24;" xml:space="preserve">
<style type="text/css">
	.st0{fill:#FFFFFF;}
</style>
<title>Artboard</title>
<desc>Created with Sketch.</desc>
<g>
	<circle class="st0" cx="11.9" cy="19.5" r="1.2"/>
	<path class="st0" d="M15.9,4.6c-1-0.9-2.3-1.4-4-1.4c-1.6,0-2.9,0.4-3.8,1.3C7.4,5.2,6.9,6,6.6,7C6.4,7.6,6.9,8.3,7.5,8.4
		c0.5,0.1,1-0.3,1.2-0.8c0.2-0.7,0.5-1.3,1-1.7C10.3,5.3,11.1,5,12,5c0.9,0,1.7,0.3,2.4,0.9s1,1.3,1,2.2c0,0.5-0.1,0.9-0.3,1.3
		s-0.7,0.9-1.4,1.5S12.3,12,12,12.4c-0.4,0.5-0.7,0.9-0.8,1.4c-0.1,0.3-0.2,0.6-0.2,0.9c-0.1,0.3-0.1,0.6-0.1,0.9
		c0,0.5,0.5,0.9,1,0.9c0.4,0,0.8-0.2,1-0.6c0.2-0.4,0.1-0.8,0.2-1.2c0.1-0.4,0.3-0.7,0.5-1s0.7-0.7,1.3-1.3c1-0.9,1.7-1.7,2.1-2.3
		s0.5-1.3,0.5-2.1C17.4,6.6,16.9,5.5,15.9,4.6z"/>
</g>
</svg>
