<?xml version="1.0" encoding="utf-8"?>
<!-- Generator: Adobe Illustrator 24.1.1, SVG Export Plug-In . SVG Version: 6.00 Build 0)  -->
<!DOCTYPE svg PUBLIC "-//W3C//DTD SVG 1.1//EN" "http://www.w3.org/Graphics/SVG/1.1/DTD/svg11.dtd" [
	<!ENTITY ns_extend "http://ns.adobe.com/Extensibility/1.0/">
	<!ENTITY ns_ai "http://ns.adobe.com/AdobeIllustrator/10.0/">
	<!ENTITY ns_graphs "http://ns.adobe.com/Graphs/1.0/">
	<!ENTITY ns_vars "http://ns.adobe.com/Variables/1.0/">
	<!ENTITY ns_imrep "http://ns.adobe.com/ImageReplacement/1.0/">
	<!ENTITY ns_sfw "http://ns.adobe.com/SaveForWeb/1.0/">
	<!ENTITY ns_custom "http://ns.adobe.com/GenericCustomNamespace/1.0/">
	<!ENTITY ns_adobe_xpath "http://ns.adobe.com/XPath/1.0/">
]>
<svg version="1.1"
	 id="ic_staking_on" xmlns:x="&ns_extend;" xmlns:i="&ns_ai;" xmlns:graph="&ns_graphs;" shape-rendering="geometricPrecision"
	 xmlns="http://www.w3.org/2000/svg" xmlns:xlink="http://www.w3.org/1999/xlink" x="0px" y="0px" viewBox="0 0 24 24"
	 style="enable-background:new 0 0 24 24;" xml:space="preserve">
<style type="text/css">
	.st0{fill-rule:evenodd;clip-rule:evenodd;fill:#FFFFFF;}
</style>
<metadata>
	<sfw  xmlns="&ns_sfw;">
		<slices></slices>
		<sliceSourceBounds  bottomLeftOrigin="true" height="17.64" width="18.96" x="2.52" y="3.18"></sliceSourceBounds>
	</sfw>
</metadata>
<path class="st0" d="M4.55,6.64C4.46,6.54,4.4,6.46,4.34,6.39C4.15,6.16,4.17,5.87,4.37,5.66C4.49,5.54,4.62,5.42,4.75,5.3
	c0.22-0.2,0.5-0.2,0.73-0.01c0.07,0.06,0.15,0.13,0.22,0.19c0.79-0.63,1.68-1.07,2.53-1.6C8.56,3.67,8.9,3.47,9.24,3.26
	c0.22-0.13,0.44-0.11,0.6,0.06c0.16,0.16,0.17,0.39,0.02,0.6C9.19,4.88,8.51,5.83,7.83,6.79c-0.08,0.11-0.17,0.2-0.25,0.31
	C7.56,7.12,7.56,7.2,7.58,7.22C7.7,7.39,7.85,7.54,7.95,7.71C8.33,8.31,8.84,8.8,9.34,9.3c0.79,0.79,1.58,1.58,2.37,2.37
	c0.28,0.28,0.29,0.29,0.57,0.01c1.09-1.09,2.18-2.19,3.26-3.29c0.09-0.09,0.15-0.19,0.22-0.29c0.23-0.32,0.45-0.63,0.67-0.93
	c-0.76-1.07-1.53-2.15-2.29-3.23c-0.15-0.21-0.15-0.44,0-0.6c0.15-0.17,0.38-0.2,0.61-0.07c1,0.6,1.99,1.19,2.99,1.8
	c0.17,0.1,0.32,0.23,0.47,0.36c0.07,0.06,0.11,0.06,0.17,0c0.13-0.12,0.26-0.25,0.45-0.27c0.15-0.01,0.29,0.03,0.4,0.14
	c0.13,0.12,0.26,0.25,0.39,0.37c0.21,0.21,0.22,0.5,0.03,0.73c-0.2,0.24-0.19,0.24,0.03,0.46c0.53,0.51,1.05,1.02,1.58,1.53
	c0.27,0.26,0.28,0.58,0.03,0.85c-0.3,0.32-0.6,0.63-0.9,0.94c-0.23,0.24-0.57,0.24-0.82,0.01c-0.54-0.52-1.08-1.04-1.62-1.57
	c-0.04-0.04-0.08-0.07-0.1-0.09c-0.7,0.57-1.42,1.1-2.02,1.76c-0.8,0.88-1.64,1.73-2.46,2.59c-0.05,0.06-0.1,0.12-0.16,0.19
	c0.11,0.1,0.22,0.2,0.32,0.3c0.73,0.74,1.46,1.48,2.19,2.22c0.41,0.41,0.8,0.84,1.21,1.26c0.78,0.8,1.55,1.6,2.33,2.4
	c0.31,0.32,0.3,0.68-0.01,1c-0.13,0.13-0.26,0.25-0.39,0.37c-0.3,0.28-0.67,0.28-0.96-0.01c-1.39-1.44-2.78-2.87-4.17-4.31
	c-0.58-0.6-1.16-1.21-1.74-1.83c-0.01,0.01-0.03,0.02-0.05,0.04c-1.01,1.06-2.01,2.12-3.02,3.17c-0.93,0.97-1.86,1.92-2.79,2.88
	C5.8,20.9,5.44,20.91,5.1,20.58c-0.12-0.11-0.23-0.23-0.35-0.34c-0.32-0.31-0.32-0.67-0.01-0.99c0.8-0.82,1.59-1.65,2.39-2.47
	c0.96-0.99,1.91-1.98,2.88-2.96c0.21-0.22,0.44-0.41,0.66-0.62c0.04-0.04,0.08-0.08,0.14-0.13c-0.35-0.38-0.68-0.76-1.02-1.12
	c-0.76-0.79-1.53-1.57-2.3-2.35C7.29,9.4,7.05,9.25,6.84,9.07c-0.23-0.18-0.46-0.36-0.7-0.56C6.12,8.53,6.08,8.56,6.05,8.6
	c-0.53,0.51-1.06,1.03-1.59,1.54c-0.28,0.27-0.61,0.27-0.88,0C3.29,9.84,3.01,9.55,2.73,9.26c-0.28-0.29-0.27-0.62,0.02-0.9
	C3.32,7.8,3.89,7.25,4.46,6.7C4.48,6.68,4.51,6.66,4.55,6.64z"/>
</svg>
