<?xml version="1.0" encoding="utf-8"?>
<!-- Generator: Adobe Illustrator 24.0.2, SVG Export Plug-In . SVG Version: 6.00 Build 0)  -->
<svg version="1.1" id="ic_light_theme" shape-rendering="geometricPrecision"
	 xmlns="http://www.w3.org/2000/svg" xmlns:xlink="http://www.w3.org/1999/xlink" x="0px" y="0px" viewBox="0 0 24 24"
	 style="enable-background:new 0 0 24 24;" xml:space="preserve">
<style type="text/css">
	.st0{fill:none;}
	.st1{fill:#FFFFFF;}
</style>
<path id="Rectangle_4426" class="st0" d="M0,0h24v24H0V0z"/>
<g>
	<path class="st1" d="M3.3,10.6c-0.8,0-1.4,0.6-1.4,1.4c0,0.8,0.6,1.4,1.4,1.4c0.8,0,1.4-0.6,1.4-1.4C4.7,11.2,4.1,10.6,3.3,10.6z"
		/>
	<circle class="st1" cx="20.7" cy="12" r="1.4"/>
	<path class="st1" d="M12,5.8c-3.4,0-6.2,2.8-6.2,6.2c0,3.4,2.8,6.2,6.2,6.2c3.4,0,6.2-2.8,6.2-6.2C18.2,8.6,15.4,5.8,12,5.8z
		 M12,16.2c-2.3,0-4.2-1.9-4.2-4.2c0-2.3,1.9-4.2,4.2-4.2s4.2,1.9,4.2,4.2C16.2,14.3,14.3,16.2,12,16.2z"/>
	<path class="st1" d="M12,4.7c0.8,0,1.4-0.6,1.4-1.4c0-0.8-0.6-1.4-1.4-1.4c-0.8,0-1.4,0.6-1.4,1.4C10.6,4.1,11.3,4.7,12,4.7z"/>
	<circle class="st1" cx="5.9" cy="5.8" r="1.4"/>
	<path class="st1" d="M4.9,17.1c-0.5,0.5-0.5,1.4,0,2c0.5,0.5,1.4,0.5,2,0c0.5-0.5,0.5-1.4,0-2C6.3,16.6,5.4,16.6,4.9,17.1z"/>
	<path class="st1" d="M12,19.3c-0.8,0-1.4,0.6-1.4,1.4c0,0.8,0.6,1.4,1.4,1.4c0.8,0,1.4-0.6,1.4-1.4C13.4,19.9,12.7,19.3,12,19.3z"
		/>
	<path class="st1" d="M17.1,17.2c-0.5,0.5-0.5,1.4,0,2c0.5,0.5,1.4,0.5,2,0c0.5-0.5,0.5-1.4,0-2C18.6,16.6,17.7,16.6,17.1,17.2z"/>
	<path class="st1" d="M19.1,6.9c0.5-0.5,0.5-1.4,0-2c-0.5-0.5-1.4-0.5-2,0s-0.5,1.4,0,2C17.7,7.4,18.6,7.4,19.1,6.9z"/>
</g>
</svg>
