<?xml version="1.0" encoding="utf-8"?>
<!-- Generator: Adobe Illustrator 24.0.2, SVG Export Plug-In . SVG Version: 6.00 Build 0)  -->
<svg version="1.1" id="Layer_1" xmlns="http://www.w3.org/2000/svg" xmlns:xlink="http://www.w3.org/1999/xlink" x="0px" y="0px"
	 viewBox="0 0 24 24" style="enable-background:new 0 0 24 24;" xml:space="preserve">
<style type="text/css">
	.st0{fill:none;}
	.st1{fill:#59c9c9;}
</style>
<title>Artboard</title>
<desc>Created with Sketch.</desc>
<g id="Artboard">
	<g id="ic-copy" transform="translate(2.000000, 2.000000)">
		<polygon id="Rectangle_4640" class="st0" points="0,0 20,0 20,20 0,20 		"/>
		<path class="st1" d="M13.8,18.2H8.9c-1.4,0-2.6-1.2-2.6-2.6V7.5c0-1.4,1.2-2.6,2.6-2.6h5.5c1.1,0.1,2,0.9,2,2v8.7
			C16.4,17,15.2,18.2,13.8,18.2z M14.4,16.1L14.4,16.1L14.4,16.1L14.4,16.1z M8.3,7.5v8.1c0,0.3,0.3,0.6,0.6,0.6h4.9
			c0.3,0,0.6-0.3,0.6-0.6V7.5c0-0.3-0.3-0.6-0.6-0.6H8.9C8.6,6.9,8.3,7.1,8.3,7.5z"/>
		<path class="st1" d="M13.4,2.1h-5C5.7,2.1,3.5,4.3,3.5,7v4.7c0,0.6,0.4,1,1,1s1-0.4,1-1c0-1.4,0-4.5,0-4.8C5.6,5.4,7,4.3,8.3,4.1
			c0.6-0.1,5.1,0,5.2,0c0.6,0,1-0.4,1-1C14.4,2.6,14,2.1,13.4,2.1z"/>
	</g>
</g>
</svg>
