<?xml version="1.0" encoding="utf-8"?>
<!-- Generator: Adobe Illustrator 24.1.1, SVG Export Plug-In . SVG Version: 6.00 Build 0)  -->
<!DOCTYPE svg PUBLIC "-//W3C//DTD SVG 1.1//EN" "http://www.w3.org/Graphics/SVG/1.1/DTD/svg11.dtd" [
	<!ENTITY ns_extend "http://ns.adobe.com/Extensibility/1.0/">
	<!ENTITY ns_ai "http://ns.adobe.com/AdobeIllustrator/10.0/">
	<!ENTITY ns_graphs "http://ns.adobe.com/Graphs/1.0/">
	<!ENTITY ns_vars "http://ns.adobe.com/Variables/1.0/">
	<!ENTITY ns_imrep "http://ns.adobe.com/ImageReplacement/1.0/">
	<!ENTITY ns_sfw "http://ns.adobe.com/SaveForWeb/1.0/">
	<!ENTITY ns_custom "http://ns.adobe.com/GenericCustomNamespace/1.0/">
	<!ENTITY ns_adobe_xpath "http://ns.adobe.com/XPath/1.0/">
]>
<svg version="1.1" id="ic-transaction-staked" xmlns:x="&ns_extend;" xmlns:i="&ns_ai;" xmlns:graph="&ns_graphs;"
	 xmlns="http://www.w3.org/2000/svg" xmlns:xlink="http://www.w3.org/1999/xlink" x="0px" y="0px" viewBox="0 0 24 24"
	 style="enable-background:new 0 0 24 24;" xml:space="preserve">
<style type="text/css">
	.st0{fill:#FFFFFF;}
	.st1{fill-rule:evenodd;clip-rule:evenodd;fill:#FFFFFF;}
</style>
<metadata>
	<sfw  xmlns="&ns_sfw;">
		<slices></slices>
		<sliceSourceBounds  bottomLeftOrigin="true" height="21.498" width="48.537" x="1.247" y="1.251"></sliceSourceBounds>
	</sfw>
</metadata>
<path class="st0" d="M22.176,11.39H20.98l0.686-0.686c0.223-0.223,0.223-0.584,0-0.807c-0.223-0.223-0.584-0.223-0.807,0
	l-1.494,1.493h-1.998c0,0,1.5-1.5,1.506-1.506c0.14-0.14,0.222-0.341,0.222-0.539c0-0.349-0.238-0.632-0.557-0.725
	c-0.061-0.025-0.128-0.039-0.216-0.041h-2.153l1.413-1.413h2.112c0.316,0,0.571-0.255,0.571-0.571s-0.255-0.571-0.571-0.571h-0.97
	l0.846-0.846c0.223-0.223,0.223-0.584,0-0.807s-0.584-0.223-0.807,0l-0.846,0.846v-0.97c0-0.316-0.255-0.571-0.571-0.571
	s-0.571,0.255-0.571,0.571v2.112l-1.414,1.414c0-0.573,0-1.145,0-1.718c0-0.218,0.041-0.47-0.049-0.675
	c-0.205-0.468-0.869-0.664-1.254-0.279l-1.531,1.53V4.633l1.494-1.494c0.223-0.223,0.223-0.584,0-0.807
	c-0.223-0.223-0.584-0.223-0.807,0l-0.687,0.687V1.822c0-0.316-0.255-0.571-0.571-0.571s-0.571,0.255-0.571,0.571v1.196
	l-0.686-0.686c-0.223-0.223-0.584-0.223-0.807,0c-0.223,0.222-0.223,0.584,0,0.807l1.493,1.494v1.998L9.914,5.159
	C9.773,5,9.574,4.895,9.345,4.895c-0.397,0-0.769,0.365-0.769,0.77v2.164L7.163,6.416V4.304c0-0.316-0.255-0.571-0.571-0.571
	S6.021,3.988,6.021,4.304v0.971L5.175,4.428c-0.223-0.223-0.584-0.223-0.807,0s-0.223,0.584,0,0.807l0.846,0.846H4.243
	c-0.316,0-0.571,0.255-0.571,0.571s0.255,0.571,0.571,0.571h2.113l1.413,1.413c-0.156,0-1.801,0-2.011-0.001
	c-0.165,0-0.317,0.003-0.468,0.078c-0.254,0.126-0.413,0.39-0.413,0.673c0,0.255,0.145,0.477,0.319,0.652
	c0.119,0.12,0.239,0.24,0.359,0.36c0.265,0.265,1.073,1.073,1.073,1.073H4.63L3.136,9.977c-0.223-0.223-0.584-0.223-0.807,0
	c-0.223,0.223-0.223,0.584,0,0.807l0.686,0.686H1.818c-0.316,0-0.571,0.255-0.571,0.571s0.255,0.571,0.571,0.571h1.197l-0.686,0.686
	c-0.223,0.223-0.223,0.584,0,0.807c0.111,0.111,0.258,0.167,0.404,0.167c0.146,0,0.292-0.056,0.404-0.167l1.494-1.493h1.998
	c-0.397,0.397-0.793,0.794-1.19,1.19c-0.156,0.156-0.356,0.305-0.449,0.508c-0.094,0.206-0.105,0.453-0.007,0.658
	c0.095,0.198,0.251,0.301,0.441,0.394c0.21,0.102,0.502,0.06,0.731,0.06c0.309,0,0.618,0,0.927,0c0.248,0,0.496,0,0.744,0
	l-1.413,1.413H4.3c-0.316,0-0.571,0.255-0.571,0.571s0.255,0.571,0.571,0.571h0.971l-0.846,0.846c-0.223,0.223-0.223,0.584,0,0.807
	c0.111,0.111,0.258,0.167,0.404,0.167s0.292-0.056,0.404-0.167l0.846-0.846v0.971c0,0.316,0.255,0.571,0.571,0.571
	s0.571-0.255,0.571-0.571v-2.113l1.413-1.413v2.164c0,0.382,0.405,0.713,0.769,0.713c0.357,0,0.575-0.247,0.806-0.478
	c0.23-0.23,0.46-0.46,0.69-0.69c0.133-0.133,0.266-0.266,0.4-0.4c0.024-0.024,0.169-0.134,0.169-0.169v1.999l-1.493,1.493
	c-0.223,0.223-0.223,0.584,0,0.807c0.111,0.111,0.258,0.167,0.404,0.167s0.292-0.056,0.404-0.167l0.686-0.686v1.196
	c0,0.316,0.255,0.571,0.571,0.571s0.571-0.255,0.571-0.571v-1.197l0.687,0.686c0.111,0.111,0.258,0.167,0.404,0.167
	s0.292-0.056,0.404-0.167c0.223-0.223,0.223-0.584,0-0.807l-1.494-1.493v-1.999c0.367,0.367,0.734,0.734,1.101,1.1
	c0.279,0.279,0.5,0.595,0.933,0.606c0.459,0.012,0.779-0.414,0.776-0.842c-0.002-0.288,0-0.576,0-0.863c0-0.4,0-0.799,0-1.199
	l1.414,1.413v2.112c0,0.316,0.255,0.571,0.571,0.571s0.571-0.255,0.571-0.571v-0.971l0.846,0.846
	c0.111,0.111,0.258,0.167,0.404,0.167s0.292-0.056,0.404-0.167c0.223-0.223,0.223-0.584,0-0.807l-0.846-0.846h0.97
	c0.316,0,0.571-0.255,0.571-0.571s-0.255-0.571-0.571-0.571h-2.112l-1.413-1.413c0.527,0,1.054,0,1.582,0c0.194,0,0.388,0,0.582,0
	c0.086,0,0.165-0.021,0.237-0.055c0.486-0.225,0.661-0.857,0.263-1.256l-1.524-1.523h1.999l1.494,1.493
	c0.111,0.111,0.258,0.167,0.404,0.167s0.292-0.056,0.404-0.167c0.223-0.223,0.223-0.584,0-0.807l-0.686-0.686h1.196
	c0.316,0,0.571-0.255,0.571-0.571C22.747,11.645,22.492,11.39,22.176,11.39z M12.528,8.246l1.692-1.692v2.36l-1.145,1.145
	c-0.171-0.095-0.353-0.171-0.547-0.219C12.528,9.84,12.528,8.246,12.528,8.246z M9.717,6.577l1.669,1.669v1.619
	c-0.192,0.055-0.373,0.132-0.54,0.234L9.717,8.971V6.577z M6.55,9.778h2.36l1.146,1.146c-0.095,0.171-0.171,0.352-0.219,0.547H8.242
	L6.55,9.778z M8.967,14.281H6.574l1.668-1.669h1.62c0.055,0.192,0.132,0.373,0.234,0.54L8.967,14.281z M11.466,15.756l-1.692,1.692
	v-2.36l1.146-1.146c0.171,0.095,0.352,0.171,0.547,0.219L11.466,15.756L11.466,15.756z M11.997,13.091
	c-0.601,0-1.089-0.489-1.089-1.09s0.488-1.09,1.089-1.09s1.09,0.489,1.09,1.09S12.598,13.091,11.997,13.091z M14.277,17.424
	l-1.669-1.668v-1.619c0.192-0.055,0.373-0.132,0.541-0.234l1.128,1.128C14.277,15.031,14.277,17.424,14.277,17.424z M17.444,14.224
	h-2.36l-1.145-1.145c0.095-0.171,0.171-0.353,0.219-0.547h1.594L17.444,14.224z M15.752,11.39h-1.619
	c-0.055-0.192-0.133-0.373-0.234-0.541l1.128-1.128h2.394L15.752,11.39z"/>
<g>
	<path class="st1" d="M49.775,11.961c-0.894-2.107-2.748-4.447-4.416-5.991c-1.292-1.196-2.817-2.159-4.241-3.19
		c-0.137-0.099-0.322,0.031-0.275,0.194l0.367,1.275c0.012,0.045,0.044,0.082,0.084,0.105c0.335,0.187,0.533,0.371,0.835,0.599
		c0.291,0.22,0.661,0.518,0.927,0.77c0.433,0.41,0.557,0.988,0.287,1.531c-0.452,0.911-1.386,1.75-2.059,2.507
		c-0.985,1.107-2.021,2.167-3.071,3.212c-1.05-1.046-2.086-2.105-3.071-3.212c-0.673-0.756-1.607-1.596-2.059-2.506
		c-0.27-0.543-0.145-1.121,0.287-1.531c0.266-0.252,0.636-0.549,0.927-0.77c0.303-0.229,0.5-0.412,0.835-0.599
		c0.041-0.022,0.071-0.06,0.084-0.105l0.367-1.275c0.047-0.163-0.138-0.293-0.275-0.194c-1.425,1.031-2.95,1.994-4.241,3.19
		c-1.668,1.544-3.522,3.884-4.416,5.991c-0.082,0.193,0.396-0.295,0.523-0.463c0.948-1.257,2.642-3.197,3.281-3.191
		c0.827,0.007,1.399,0.658,1.969,1.169c1.627,1.457,3.155,3.025,4.654,4.621c-1.018,0.997-2.042,1.99-3.049,2.998
		c-1.082,1.084-2.174,2.159-3.241,3.258c-0.315,0.325-0.31,0.697,0.012,1.013c0.088,0.087,0.177,0.173,0.267,0.259
		c0.345,0.332,0.893,0.326,1.225-0.019c1.08-1.121,2.139-2.251,3.202-3.375c0.911-0.964,1.814-1.942,2.719-2.917
		c0.905,0.976,1.808,1.953,2.719,2.917c1.063,1.125,2.122,2.254,3.202,3.375c0.332,0.345,0.88,0.351,1.225,0.019
		c0.09-0.086,0.179-0.172,0.267-0.259c0.321-0.317,0.327-0.688,0.012-1.013c-1.066-1.1-2.159-2.174-3.241-3.258
		c-1.007-1.008-2.031-2.001-3.049-2.998c1.5-1.596,3.028-3.164,4.654-4.621c0.57-0.511,1.142-1.162,1.969-1.169
		c0.638-0.006,2.332,1.934,3.281,3.191C49.378,11.666,49.857,12.154,49.775,11.961z"/>
	<path class="st0" d="M41.074,7.063h-0.337L40.93,6.87c0.062-0.062,0.062-0.165,0-0.227s-0.165-0.062-0.227,0l-0.42,0.42h-0.562
		c0,0,0.421-0.421,0.424-0.423c0.039-0.039,0.062-0.096,0.062-0.151c0-0.098-0.066-0.178-0.156-0.204
		c-0.017-0.007-0.036-0.011-0.061-0.012h-0.605l0.397-0.397h0.593c0.089,0,0.16-0.071,0.16-0.16c0-0.089-0.071-0.161-0.16-0.161
		h-0.273l0.238-0.238c0.062-0.062,0.062-0.165,0-0.227c-0.062-0.062-0.165-0.062-0.227,0l-0.238,0.238V5.055
		c0-0.089-0.071-0.16-0.16-0.16s-0.16,0.071-0.16,0.16v0.593l-0.398,0.397c0-0.161,0-0.322,0-0.483c0-0.062,0.012-0.132-0.014-0.19
		c-0.057-0.131-0.244-0.186-0.352-0.078l-0.431,0.431V5.163l0.42-0.42c0.062-0.062,0.062-0.165,0-0.227
		c-0.062-0.062-0.165-0.062-0.227,0l-0.193,0.193V4.373c0-0.089-0.071-0.16-0.16-0.16c-0.089,0-0.16,0.071-0.16,0.16v0.337
		l-0.193-0.193c-0.062-0.062-0.165-0.062-0.227,0c-0.062,0.062-0.062,0.165,0,0.227l0.42,0.42v0.562l-0.414-0.414
		c-0.04-0.045-0.096-0.074-0.16-0.074c-0.111,0-0.216,0.102-0.216,0.217v0.608l-0.397-0.397V5.071c0-0.089-0.071-0.16-0.16-0.16
		c-0.089,0-0.16,0.071-0.16,0.16v0.273l-0.238-0.238c-0.062-0.062-0.165-0.062-0.227,0c-0.062,0.062-0.062,0.165,0,0.227
		l0.238,0.238h-0.273c-0.089,0-0.16,0.071-0.16,0.16c0,0.089,0.071,0.16,0.16,0.16h0.594l0.397,0.397c-0.044,0-0.506,0-0.565,0
		c-0.047,0-0.089,0.001-0.131,0.022c-0.071,0.036-0.116,0.11-0.116,0.19c0,0.071,0.041,0.134,0.09,0.183
		c0.033,0.033,0.067,0.067,0.101,0.101c0.075,0.075,0.302,0.302,0.302,0.302h-0.563l-0.42-0.42c-0.062-0.062-0.165-0.062-0.227,0
		c-0.062,0.062-0.062,0.165,0,0.227l0.193,0.193h-0.337c-0.089,0-0.16,0.071-0.16,0.16c0,0.089,0.071,0.16,0.16,0.16h0.337
		l-0.193,0.193c-0.062,0.062-0.062,0.165,0,0.227c0.032,0.032,0.072,0.047,0.114,0.047c0.041,0,0.082-0.016,0.114-0.047l0.42-0.42
		h0.562c-0.111,0.111-0.223,0.223-0.334,0.335c-0.044,0.044-0.1,0.086-0.126,0.143c-0.027,0.058-0.029,0.127-0.002,0.185
		c0.027,0.056,0.071,0.085,0.124,0.111c0.059,0.029,0.141,0.017,0.205,0.017c0.087,0,0.174,0,0.261,0c0.07,0,0.14,0,0.209,0
		l-0.397,0.397H36.05c-0.089,0-0.16,0.071-0.16,0.16s0.071,0.16,0.16,0.16h0.273l-0.238,0.238c-0.062,0.062-0.062,0.165,0,0.227
		c0.032,0.032,0.072,0.047,0.114,0.047c0.041,0,0.082-0.016,0.114-0.047l0.238-0.238v0.273c0,0.089,0.071,0.16,0.16,0.16
		c0.089,0,0.16-0.071,0.16-0.16V8.821l0.397-0.397v0.608c0,0.107,0.114,0.2,0.216,0.2c0.101,0,0.162-0.07,0.227-0.135
		c0.062-0.064,0.127-0.129,0.192-0.194c0.037-0.037,0.075-0.075,0.112-0.112c0.007-0.007,0.047-0.037,0.047-0.047v0.562l-0.42,0.42
		c-0.062,0.062-0.062,0.165,0,0.227C37.675,9.984,37.715,10,37.757,10s0.082-0.016,0.114-0.047l0.193-0.193v0.337
		c0,0.089,0.071,0.16,0.16,0.16s0.16-0.071,0.16-0.16V9.76l0.193,0.193C38.609,9.984,38.65,10,38.691,10
		c0.041,0,0.082-0.016,0.114-0.047c0.062-0.062,0.062-0.165,0-0.227l-0.42-0.42V8.744c0.103,0.103,0.206,0.206,0.309,0.309
		c0.078,0.078,0.14,0.167,0.263,0.17c0.129,0.003,0.219-0.116,0.219-0.237c-0.001-0.081,0-0.162,0-0.243c0-0.112,0-0.224,0-0.337
		l0.397,0.397v0.594c0,0.089,0.071,0.16,0.16,0.16c0.089,0,0.16-0.071,0.16-0.16V9.126l0.238,0.238
		c0.032,0.032,0.072,0.047,0.114,0.047s0.082-0.016,0.114-0.047c0.062-0.062,0.062-0.165,0-0.227l-0.238-0.238h0.273
		c0.089,0,0.16-0.071,0.16-0.16c0-0.089-0.071-0.16-0.16-0.16h-0.593l-0.399-0.397c0.148,0,0.297,0,0.445,0c0.055,0,0.109,0,0.164,0
		c0.024,0,0.047-0.006,0.066-0.016c0.137-0.063,0.186-0.241,0.074-0.353l-0.428-0.428h0.562l0.42,0.42
		c0.032,0.032,0.072,0.047,0.114,0.047c0.041,0,0.082-0.016,0.114-0.047c0.062-0.062,0.062-0.165,0-0.227l-0.193-0.193h0.337
		c0.089,0,0.16-0.071,0.16-0.16C41.236,7.134,41.163,7.063,41.074,7.063z M38.362,6.179l0.476-0.475v0.663l-0.322,0.322
		c-0.048-0.027-0.099-0.048-0.154-0.062L38.362,6.179L38.362,6.179z M37.572,5.71l0.47,0.47v0.455
		c-0.054,0.016-0.105,0.037-0.152,0.066l-0.318-0.318V5.71z M36.681,6.61h0.663l0.322,0.322c-0.027,0.048-0.048,0.099-0.062,0.154
		h-0.448L36.681,6.61z M37.36,7.876h-0.672l0.469-0.47h0.455c0.016,0.054,0.037,0.105,0.066,0.152L37.36,7.876z M38.064,8.291
		l-0.476,0.475V8.103L37.91,7.78c0.048,0.027,0.099,0.048,0.154,0.062C38.064,7.842,38.064,8.291,38.064,8.291z M38.212,7.541
		c-0.169,0-0.306-0.137-0.306-0.307s0.137-0.307,0.306-0.307s0.307,0.137,0.307,0.307S38.381,7.541,38.212,7.541z M38.853,8.759
		l-0.47-0.469V7.835c0.054-0.016,0.105-0.037,0.152-0.066l0.318,0.318V8.759z M39.744,7.86h-0.663l-0.322-0.322
		c0.027-0.048,0.048-0.099,0.062-0.154h0.448L39.744,7.86z M39.268,7.063h-0.455c-0.016-0.054-0.037-0.105-0.066-0.152l0.318-0.318
		h0.673L39.268,7.063z"/>
</g>
</svg>
