<?xml version="1.0" encoding="utf-8"?>
<!-- Generator: Adobe Illustrator 24.2.1, SVG Export Plug-In . SVG Version: 6.00 Build 0)  -->
<!DOCTYPE svg PUBLIC "-//W3C//DTD SVG 1.1//EN" "http://www.w3.org/Graphics/SVG/1.1/DTD/svg11.dtd" [
	<!ENTITY ns_extend "http://ns.adobe.com/Extensibility/1.0/">
	<!ENTITY ns_ai "http://ns.adobe.com/AdobeIllustrator/10.0/">
	<!ENTITY ns_graphs "http://ns.adobe.com/Graphs/1.0/">
	<!ENTITY ns_vars "http://ns.adobe.com/Variables/1.0/">
	<!ENTITY ns_imrep "http://ns.adobe.com/ImageReplacement/1.0/">
	<!ENTITY ns_sfw "http://ns.adobe.com/SaveForWeb/1.0/">
	<!ENTITY ns_custom "http://ns.adobe.com/GenericCustomNamespace/1.0/">
	<!ENTITY ns_adobe_xpath "http://ns.adobe.com/XPath/1.0/">
]>
<svg version="1.1" id="ic-transaction-staked" xmlns:x="&ns_extend;" xmlns:i="&ns_ai;" xmlns:graph="&ns_graphs;"
	 xmlns="http://www.w3.org/2000/svg" xmlns:xlink="http://www.w3.org/1999/xlink" x="0px" y="0px" viewBox="0 0 24 24"
	 style="enable-background:new 0 0 24 24;" xml:space="preserve">
<style type="text/css">
	.st0{opacity:0.74;fill:#FFFFFF;}
</style>
<metadata>
	<sfw  xmlns="&ns_sfw;">
		<slices></slices>
		<sliceSourceBounds  bottomLeftOrigin="true" height="21.5" width="21.5" x="1.3" y="1.3"></sliceSourceBounds>
	</sfw>
</metadata>
<path class="st0" d="M22.2,11.4H21l0.7-0.7c0.2-0.2,0.2-0.6,0-0.8c-0.2-0.2-0.6-0.2-0.8,0l-1.5,1.5h-2c0,0,1.5-1.5,1.5-1.5
	c0.1-0.1,0.2-0.3,0.2-0.5c0-0.3-0.2-0.6-0.6-0.7c-0.1,0-0.1,0-0.2,0h-2.2l1.4-1.4h2.1c0.3,0,0.6-0.3,0.6-0.6S20,6,19.7,6h-1l0.8-0.8
	c0.2-0.2,0.2-0.6,0-0.8s-0.6-0.2-0.8,0l-0.8,0.8v-1c0-0.3-0.3-0.6-0.6-0.6s-0.6,0.3-0.6,0.6v2.1l-1.4,1.4c0-0.6,0-1.1,0-1.7
	c0-0.2,0-0.5,0-0.7c-0.2-0.5-0.9-0.7-1.3-0.3l-1.5,1.5v-2L14,3.1c0.2-0.2,0.2-0.6,0-0.8c-0.2-0.2-0.6-0.2-0.8,0L12.5,3V1.8
	c0-0.3-0.3-0.6-0.6-0.6s-0.6,0.3-0.6,0.6V3l-0.7-0.7c-0.2-0.2-0.6-0.2-0.8,0c-0.2,0.2-0.2,0.6,0,0.8l1.5,1.5v2L9.9,5.2
	C9.8,5,9.6,4.9,9.3,4.9C9,4.9,8.6,5.3,8.6,5.7v2.2L7.2,6.4V4.3c0-0.3-0.3-0.6-0.6-0.6S6,4,6,4.3v1L5.2,4.4C5,4.2,4.6,4.2,4.4,4.4
	S4.1,5,4.4,5.2l0.8,0.8h-1c-0.3,0-0.6,0.3-0.6,0.6s0.3,0.6,0.6,0.6h2.1l1.4,1.4c-0.2,0-1.8,0-2,0c-0.2,0-0.3,0-0.5,0.1
	C5,8.8,4.9,9.1,4.9,9.4C4.9,9.6,5,9.9,5.2,10c0.1,0.1,0.2,0.2,0.4,0.4c0.3,0.3,1.1,1.1,1.1,1.1h-2L3.1,10c-0.2-0.2-0.6-0.2-0.8,0
	c-0.2,0.2-0.2,0.6,0,0.8L3,11.5H1.8c-0.3,0-0.6,0.3-0.6,0.6s0.3,0.6,0.6,0.6H3l-0.7,0.7c-0.2,0.2-0.2,0.6,0,0.8
	c0.1,0.1,0.3,0.2,0.4,0.2c0.1,0,0.3-0.1,0.4-0.2l1.5-1.5h2c-0.4,0.4-0.8,0.8-1.2,1.2C5.3,14,5.1,14.1,5,14.3c-0.1,0.2-0.1,0.5,0,0.7
	c0.1,0.2,0.3,0.3,0.4,0.4c0.2,0.1,0.5,0.1,0.7,0.1c0.3,0,0.6,0,0.9,0c0.2,0,0.5,0,0.7,0l-1.4,1.4H4.3c-0.3,0-0.6,0.3-0.6,0.6
	S4,18,4.3,18h1l-0.8,0.8c-0.2,0.2-0.2,0.6,0,0.8c0.1,0.1,0.3,0.2,0.4,0.2s0.3-0.1,0.4-0.2l0.8-0.8v1c0,0.3,0.3,0.6,0.6,0.6
	s0.6-0.3,0.6-0.6v-2.1l1.4-1.4v2.2c0,0.4,0.4,0.7,0.8,0.7c0.4,0,0.6-0.2,0.8-0.5c0.2-0.2,0.5-0.5,0.7-0.7c0.1-0.1,0.3-0.3,0.4-0.4
	c0,0,0.2-0.1,0.2-0.2v2L10,20.9c-0.2,0.2-0.2,0.6,0,0.8c0.1,0.1,0.3,0.2,0.4,0.2s0.3-0.1,0.4-0.2l0.7-0.7v1.2c0,0.3,0.3,0.6,0.6,0.6
	s0.6-0.3,0.6-0.6V21l0.7,0.7c0.1,0.1,0.3,0.2,0.4,0.2s0.3-0.1,0.4-0.2c0.2-0.2,0.2-0.6,0-0.8l-1.5-1.5v-2c0.4,0.4,0.7,0.7,1.1,1.1
	c0.3,0.3,0.5,0.6,0.9,0.6c0.5,0,0.8-0.4,0.8-0.8c0-0.3,0-0.6,0-0.9c0-0.4,0-0.8,0-1.2l1.4,1.4v2.1c0,0.3,0.3,0.6,0.6,0.6
	S18,20,18,19.7v-1l0.8,0.8c0.1,0.1,0.3,0.2,0.4,0.2s0.3-0.1,0.4-0.2c0.2-0.2,0.2-0.6,0-0.8l-0.8-0.8h1c0.3,0,0.6-0.3,0.6-0.6
	s-0.3-0.6-0.6-0.6h-2.1l-1.4-1.4c0.5,0,1.1,0,1.6,0c0.2,0,0.4,0,0.6,0c0.1,0,0.2,0,0.2-0.1c0.5-0.2,0.7-0.9,0.3-1.3l-1.5-1.5h2
	l1.5,1.5c0.1,0.1,0.3,0.2,0.4,0.2s0.3-0.1,0.4-0.2c0.2-0.2,0.2-0.6,0-0.8L21,12.5h1.2c0.3,0,0.6-0.3,0.6-0.6
	C22.8,11.6,22.5,11.4,22.2,11.4z M12.5,8.2l1.7-1.7v2.4l-1.1,1.1c-0.2-0.1-0.4-0.2-0.5-0.2C12.5,9.8,12.5,8.2,12.5,8.2z M9.7,6.6
	l1.7,1.7v1.6c-0.2,0.1-0.4,0.1-0.5,0.2L9.7,9V6.6z M6.6,9.8h2.4l1.1,1.1c-0.1,0.2-0.2,0.4-0.2,0.5H8.2L6.6,9.8z M9,14.3H6.6l1.7-1.7
	h1.6c0.1,0.2,0.1,0.4,0.2,0.5L9,14.3z M11.5,15.8l-1.7,1.7v-2.4l1.1-1.1c0.2,0.1,0.4,0.2,0.5,0.2L11.5,15.8L11.5,15.8z M12,13.1
	c-0.6,0-1.1-0.5-1.1-1.1s0.5-1.1,1.1-1.1s1.1,0.5,1.1,1.1S12.6,13.1,12,13.1z M14.3,17.4l-1.7-1.7v-1.6c0.2-0.1,0.4-0.1,0.5-0.2
	l1.1,1.1C14.3,15,14.3,17.4,14.3,17.4z M17.4,14.2h-2.4l-1.1-1.1c0.1-0.2,0.2-0.4,0.2-0.5h1.6L17.4,14.2z M15.8,11.4h-1.6
	c-0.1-0.2-0.1-0.4-0.2-0.5L15,9.7h2.4L15.8,11.4z"/>
</svg>
