<?xml version="1.0" encoding="utf-8"?>
<!-- Generator: Adobe Illustrator 24.0.2, SVG Export Plug-In . SVG Version: 6.00 Build 0)  -->
<svg version="1.1" id="ic_connect" xmlns="http://www.w3.org/2000/svg" xmlns:xlink="http://www.w3.org/1999/xlink" x="0px" y="0px"
	 viewBox="0 0 24 24" style="enable-background:new 0 0 24 24;" xml:space="preserve">
<style type="text/css">
	.st0{fill:#FFFFFF;}
	.st1{fill:none;}
</style>
<g id="Group_8843">
	<g id="Group_8839">
		<circle id="Ellipse_602" class="st0" cx="12" cy="18" r="2"/>
	</g>
	<g id="Group_8840">
		<path id="Path_18896" class="st0" d="M20,8.8c-4.7-3.7-11.3-3.7-16,0C3.6,9.1,3,9.1,2.6,8.7l0,0C2.2,8.2,2.3,7.6,2.8,7.2
			c5.4-4.3,13.1-4.3,18.5,0c0.5,0.4,0.5,1,0.1,1.5l0,0C21,9.1,20.4,9.1,20,8.8z"/>
	</g>
	<g id="Group_8841">
		<path id="Path_18897" class="st0" d="M17.4,11.8c-3.2-2.4-7.6-2.4-10.7,0c-0.4,0.3-1,0.2-1.3-0.1l0,0c-0.4-0.4-0.3-1.1,0.2-1.5
			c3.9-2.9,9.2-2.9,13.1,0c0.5,0.4,0.6,1,0.2,1.5l0,0C18.3,12,17.8,12.1,17.4,11.8z"/>
	</g>
	<g id="Group_8842">
		<path id="Path_18898" class="st0" d="M8,14.6L8,14.6c-0.4-0.5-0.3-1.2,0.2-1.5c2.3-1.5,5.3-1.5,7.6,0c0.5,0.3,0.6,1.1,0.2,1.5l0,0
			c-0.3,0.4-0.9,0.4-1.3,0.2c-1.6-1-3.7-1-5.4,0C8.9,15.1,8.4,15,8,14.6z"/>
	</g>
</g>
<path id="Rectangle_4416" class="st1" d="M0,0h24v24H0V0z"/>
</svg>
