<?xml version="1.0" encoding="utf-8"?>
<!-- Generator: Adobe Illustrator 24.0.2, SVG Export Plug-In . SVG Version: 6.00 Build 0)  -->
<svg version="1.1" id="Layer_1" xmlns="http://www.w3.org/2000/svg" xmlns:xlink="http://www.w3.org/1999/xlink" x="0px" y="0px"
	 viewBox="0 0 24 24" style="enable-background:new 0 0 24 24;" xml:space="preserve">
<style type="text/css">
	.st0{fill:none;}
	.st1{fill:#59c9c9;}
</style>
<title>Artboard</title>
<desc>Created with Sketch.</desc>
<g id="Artboard">
	<g id="ic-copy-liliac" transform="translate(2.000000, 2.000000)">
		<polygon id="Rectangle_4640" class="st0" points="0,0 20,0 20,20 0,20 		"/>
		<path class="st1" d="M13.8,18.1H9c-1.4,0-2.6-1.2-2.6-2.6V7.4c0-1.4,1.2-2.6,2.6-2.6h5.5c1.1,0.1,2,0.9,2,2v8.7
			C16.5,16.9,15.3,18.1,13.8,18.1z M14.5,16L14.5,16L14.5,16L14.5,16z M8.4,7.4v8.1C8.4,15.8,8.6,16,9,16h4.9c0.3,0,0.6-0.3,0.6-0.6
			V7.4c0-0.3-0.3-0.6-0.6-0.6H9C8.6,6.8,8.4,7,8.4,7.4z"/>
		<path class="st1" d="M13.5,1.9h-5c-2.7,0-4.9,2.2-4.9,4.9v4.7c0,0.6,0.4,1,1,1s1-0.4,1-1c0-1.4,0-4.5,0-4.8C5.7,5.3,7,4.1,8.3,4
			c0.6-0.1,5.1,0,5.2,0c0.6,0,1-0.4,1-1C14.5,2.4,14.1,1.9,13.5,1.9z"/>
	</g>
</g>
</svg>
