<?xml version="1.0" encoding="utf-8"?>
<!-- Generator: Adobe Illustrator 24.2.1, SVG Export Plug-In . SVG Version: 6.00 Build 0)  -->
<!DOCTYPE svg PUBLIC "-//W3C//DTD SVG 1.1//EN" "http://www.w3.org/Graphics/SVG/1.1/DTD/svg11.dtd" [
	<!ENTITY ns_extend "http://ns.adobe.com/Extensibility/1.0/">
	<!ENTITY ns_ai "http://ns.adobe.com/AdobeIllustrator/10.0/">
	<!ENTITY ns_graphs "http://ns.adobe.com/Graphs/1.0/">
	<!ENTITY ns_vars "http://ns.adobe.com/Variables/1.0/">
	<!ENTITY ns_imrep "http://ns.adobe.com/ImageReplacement/1.0/">
	<!ENTITY ns_sfw "http://ns.adobe.com/SaveForWeb/1.0/">
	<!ENTITY ns_custom "http://ns.adobe.com/GenericCustomNamespace/1.0/">
	<!ENTITY ns_adobe_xpath "http://ns.adobe.com/XPath/1.0/">
]>
<svg version="1.1" id="ic_locked" xmlns:x="&ns_extend;" xmlns:i="&ns_ai;" xmlns:graph="&ns_graphs;"
	 xmlns="http://www.w3.org/2000/svg" xmlns:xlink="http://www.w3.org/1999/xlink" x="0px" y="0px" viewBox="0 0 24 24"
	 style="enable-background:new 0 0 24 24;" xml:space="preserve">
<style type="text/css">
	.st0{fill:none;}
	.st1{opacity:0.74;fill:#FFFFFF;}
</style>
<metadata>
	<sfw  xmlns="&ns_sfw;">
		<slices></slices>
		<sliceSourceBounds  bottomLeftOrigin="true" height="24" width="24" x="0" y="0"></sliceSourceBounds>
	</sfw>
</metadata>
<path id="Rectangle_4417" class="st0" d="M0,0h24v24H0V0z"/>
<path class="st1" d="M18.3,9.8V8.5c0-2.1-1-4.1-2.7-5.4c-1.4-1-3.1-1.3-4.8-1c-2.9,0.6-5,3.4-5,6.4v1.3c-1.1,0.1-1.9,0.9-1.9,2v8
	c0,1.3,1,2.3,2.3,2.3l0,0H18l0,0c1.3,0,2.3-1,2.3-2.3v-8C20.2,10.7,19.4,9.9,18.3,9.8z M7.8,8.5C7.8,6,9.7,4,12,4s4.2,2.2,4.2,4.4
	v1.3H7.8C7.8,9.8,7.8,8.5,7.8,8.5z M6.1,19.9v-7.7c0-0.2,0.1-0.3,0.3-0.3h11.2c0.2,0,0.3,0.1,0.3,0.3v7.7c0,0.2-0.1,0.3-0.3,0.3H6.4
	C6.2,20.2,6.1,20.1,6.1,19.9z"/>
</svg>
