<?xml version="1.0" encoding="utf-8"?>
<!-- Generator: Adobe Illustrator 24.2.1, SVG Export Plug-In . SVG Version: 6.00 Build 0)  -->
<!DOCTYPE svg PUBLIC "-//W3C//DTD SVG 1.1//EN" "http://www.w3.org/Graphics/SVG/1.1/DTD/svg11.dtd" [
	<!ENTITY ns_extend "http://ns.adobe.com/Extensibility/1.0/">
	<!ENTITY ns_ai "http://ns.adobe.com/AdobeIllustrator/10.0/">
	<!ENTITY ns_graphs "http://ns.adobe.com/Graphs/1.0/">
	<!ENTITY ns_vars "http://ns.adobe.com/Variables/1.0/">
	<!ENTITY ns_imrep "http://ns.adobe.com/ImageReplacement/1.0/">
	<!ENTITY ns_sfw "http://ns.adobe.com/SaveForWeb/1.0/">
	<!ENTITY ns_custom "http://ns.adobe.com/GenericCustomNamespace/1.0/">
	<!ENTITY ns_adobe_xpath "http://ns.adobe.com/XPath/1.0/">
]>
<svg version="1.1"
	 id="ic_unlocked" xmlns:x="&ns_extend;" xmlns:i="&ns_ai;" xmlns:graph="&ns_graphs;" shape-rendering="geometricPrecision"
	 xmlns="http://www.w3.org/2000/svg" xmlns:xlink="http://www.w3.org/1999/xlink" x="0px" y="0px" viewBox="0 0 24 24"
	 style="enable-background:new 0 0 24 24;" xml:space="preserve">
<style type="text/css">
	.st0{fill:none;}
	.st1{fill:#FFFFFF;enable-background:new    ;}
</style>
<metadata>
	<sfw  xmlns="&ns_sfw;">
		<slices></slices>
		<sliceSourceBounds  bottomLeftOrigin="true" height="24" width="24" x="0" y="0"></sliceSourceBounds>
	</sfw>
</metadata>
<path id="Rectangle_4444" class="st0" d="M0,0h24v24H0V0z"/>
<path class="st1" d="M18,9.8H7.9l0,0V8.5c0-2,1.2-3.8,3.1-4.3c2.1-0.5,4.1,0.5,4.9,2.4C16.1,7,16.7,7.3,17.2,7
	c0.5-0.2,0.7-0.8,0.5-1.3c-1.2-2.6-4-4.1-6.9-3.6c-2.9,0.6-5,3.4-5,6.4v1.3l0,0c-1.1,0.1-1.9,0.9-1.9,2v8.3c0,1.1,0.9,2,2,2H18
	c1.1,0,2-0.9,2-2v-8.3C20.1,10.7,19.2,9.8,18,9.8z M18,20.2H6l0,0v-8.3l0,0h12l0,0V20.2C18.1,20.2,18.1,20.2,18,20.2z"/>
</svg>
