<?xml version="1.0" encoding="utf-8"?>
<!-- Generator: Adobe Illustrator 24.1.1, SVG Export Plug-In . SVG Version: 6.00 Build 0)  -->
<!DOCTYPE svg PUBLIC "-//W3C//DTD SVG 1.1//EN" "http://www.w3.org/Graphics/SVG/1.1/DTD/svg11.dtd" [
	<!ENTITY ns_extend "http://ns.adobe.com/Extensibility/1.0/">
	<!ENTITY ns_ai "http://ns.adobe.com/AdobeIllustrator/10.0/">
	<!ENTITY ns_graphs "http://ns.adobe.com/Graphs/1.0/">
	<!ENTITY ns_vars "http://ns.adobe.com/Variables/1.0/">
	<!ENTITY ns_imrep "http://ns.adobe.com/ImageReplacement/1.0/">
	<!ENTITY ns_sfw "http://ns.adobe.com/SaveForWeb/1.0/">
	<!ENTITY ns_custom "http://ns.adobe.com/GenericCustomNamespace/1.0/">
	<!ENTITY ns_adobe_xpath "http://ns.adobe.com/XPath/1.0/">
]>
<svg version="1.1" id="Layer_1" xmlns:x="&ns_extend;" xmlns:i="&ns_ai;" xmlns:graph="&ns_graphs;"
	 xmlns="http://www.w3.org/2000/svg" xmlns:xlink="http://www.w3.org/1999/xlink" x="0px" y="0px" viewBox="0 0 24 24"
	 style="enable-background:new 0 0 24 24;" xml:space="preserve">
<style type="text/css">
	.st0{opacity:0.6;}
	.st1{fill:none;}
</style>
<metadata>
	<sfw  xmlns="&ns_sfw;">
		<slices></slices>
		<sliceSourceBounds  bottomLeftOrigin="true" height="24" width="24" x="0" y="0"></sliceSourceBounds>
	</sfw>
</metadata>
<g id="ic-expand" class="st0">
	<g>
		<path d="M21.01,2.01C21.01,2.01,21.01,2.01,21.01,2.01c-0.01,0-0.02,0-0.03,0L17.2,2c-0.55,0-1,0.45-1,1c0,0.55,0.45,1,1,1l1.4,0
			l-4.57,4.57c-0.42,0.42-0.42,0.99,0,1.41c0.42,0.42,0.99,0.42,1.41,0l4.56-4.56l0,1.39c0,0.55,0.45,1,1,1
			c0.28,0,0.53-0.11,0.71-0.29c0.18-0.18,0.29-0.43,0.29-0.71l0-3.8C22.01,2.45,21.56,2.01,21.01,2.01z"/>
		<path d="M2.95,2.01C2.95,2.01,2.95,2.01,2.95,2.01c0.01,0,0.02,0,0.03,0l3.78,0c0.55,0,1,0.45,1,1c0,0.55-0.45,1-1,1l-1.4,0
			l4.57,4.57c0.42,0.42,0.42,0.99,0,1.41c-0.42,0.42-0.99,0.42-1.41,0L3.95,5.42l0,1.39c0,0.55-0.45,1-1,1
			c-0.28,0-0.53-0.11-0.71-0.29C2.06,7.33,1.95,7.08,1.95,6.81l0-3.8C1.95,2.45,2.4,2.01,2.95,2.01z"/>
		<path d="M2.95,22.04C2.95,22.04,2.95,22.04,2.95,22.04c0.01,0,0.02,0,0.03,0l3.78,0c0.55,0,1-0.45,1-1c0-0.55-0.45-1-1-1l-1.4,0
			l4.57-4.57c0.42-0.42,0.42-0.99,0-1.41c-0.42-0.42-0.99-0.42-1.41,0l-4.56,4.56l0-1.39c0-0.55-0.45-1-1-1
			c-0.28,0-0.53,0.11-0.71,0.29c-0.18,0.18-0.29,0.43-0.29,0.71l0,3.8C1.95,21.6,2.4,22.04,2.95,22.04z"/>
		<path d="M21.01,22.04C21.01,22.04,21.01,22.04,21.01,22.04c-0.01,0-0.02,0-0.03,0l-3.78,0c-0.55,0-1-0.45-1-1c0-0.55,0.45-1,1-1
			l1.4,0l-4.57-4.57c-0.42-0.42-0.42-0.99,0-1.41c0.42-0.42,0.99-0.42,1.41,0l4.56,4.56l0-1.39c0-0.55,0.45-1,1-1
			c0.28,0,0.53,0.11,0.71,0.29c0.18,0.18,0.29,0.43,0.29,0.71l0,3.8C22.01,21.6,21.56,22.04,21.01,22.04z"/>
	</g>
	<path id="Rectangle_4404" class="st1" d="M0,0h24v24H0V0z"/>
</g>
</svg>
