<?xml version="1.0" encoding="utf-8"?>
<!-- Generator: Adobe Illustrator 24.1.1, SVG Export Plug-In . SVG Version: 6.00 Build 0)  -->
<!DOCTYPE svg PUBLIC "-//W3C//DTD SVG 1.1//EN" "http://www.w3.org/Graphics/SVG/1.1/DTD/svg11.dtd" [
	<!ENTITY ns_extend "http://ns.adobe.com/Extensibility/1.0/">
	<!ENTITY ns_ai "http://ns.adobe.com/AdobeIllustrator/10.0/">
	<!ENTITY ns_graphs "http://ns.adobe.com/Graphs/1.0/">
	<!ENTITY ns_vars "http://ns.adobe.com/Variables/1.0/">
	<!ENTITY ns_imrep "http://ns.adobe.com/ImageReplacement/1.0/">
	<!ENTITY ns_sfw "http://ns.adobe.com/SaveForWeb/1.0/">
	<!ENTITY ns_custom "http://ns.adobe.com/GenericCustomNamespace/1.0/">
	<!ENTITY ns_adobe_xpath "http://ns.adobe.com/XPath/1.0/">
]>
<svg version="1.1" id="Layer_1" xmlns:x="&ns_extend;" xmlns:i="&ns_ai;" xmlns:graph="&ns_graphs;"
	 xmlns="http://www.w3.org/2000/svg" xmlns:xlink="http://www.w3.org/1999/xlink" x="0px" y="0px" viewBox="0 0 24 24"
	 style="enable-background:new 0 0 24 24;" xml:space="preserve">
<style type="text/css">
	.st0{opacity:0.7;}
	.st1{fill:#FFFFFF;}
</style>
<metadata>
	<sfw  xmlns="&ns_sfw;">
		<slices></slices>
		<sliceSourceBounds  bottomLeftOrigin="true" height="19.6" width="20.25" x="1.87" y="2.2"></sliceSourceBounds>
	</sfw>
</metadata>
<g class="st0">
	<path class="st1" d="M16.71,14.4h-1.47c-0.15,0-0.26,0.12-0.26,0.26v3.57c0,0.86-0.7,1.56-1.56,1.56H5.44
		c-0.86,0-1.56-0.7-1.56-1.56V5.76c0-0.86,0.7-1.56,1.56-1.56h7.97c0.86,0,1.56,0.7,1.56,1.56v3.57c0,0.15,0.12,0.26,0.26,0.26h1.47
		c0.15,0,0.26-0.12,0.26-0.26V5.76c0-1.96-1.6-3.56-3.56-3.56H5.44c-1.96,0-3.56,1.6-3.56,3.56v12.47c0,1.96,1.6,3.56,3.56,3.56
		h7.97c1.96,0,3.56-1.6,3.56-3.56v-3.57C16.97,14.52,16.86,14.4,16.71,14.4z"/>
	<path class="st1" d="M21.83,11.19C21.83,11.19,21.83,11.19,21.83,11.19c-0.01-0.01-0.01-0.02-0.01-0.02L19.14,8.5
		c-0.39-0.39-1.02-0.39-1.41,0c-0.39,0.39-0.39,1.02,0,1.41l0.99,0.99h-4.24c-0.6,0-1,0.4-1,1c0,0.6,0.4,1,1,1h4.24l-0.98,0.98
		c-0.39,0.39-0.39,1.02,0,1.41c0.2,0.2,0.45,0.29,0.71,0.29s0.51-0.1,0.71-0.29l2.69-2.69C22.22,12.22,22.22,11.58,21.83,11.19z"/>
</g>
</svg>
