<?xml version="1.0" encoding="utf-8"?>
<!-- Generator: Adobe Illustrator 24.0.2, SVG Export Plug-In . SVG Version: 6.00 Build 0)  -->
<svg version="1.1" id="Layer_1" xmlns="http://www.w3.org/2000/svg" xmlns:xlink="http://www.w3.org/1999/xlink" x="0px" y="0px"
	 viewBox="0 0 50 40" style="enable-background:new 0 0 50 40;" xml:space="preserve">
<style type="text/css">
	.st0{fill:none;}
	.st1{fill:#707070;}
</style>
<title>Folder</title>
<desc>Created with Sketch.</desc>
<polygon id="Rectangle_4528" class="st0" points="8,8 32,8 32,32 8,32 "/>
<path class="st1" d="M27.5,14.9h-4.9l-2.7-2.7C19.8,12,19.5,12,19.2,12h-7.1c-1.2,0-2.2,1-2.2,2.2v3.3v0.2v7.7
	c0,1.4,1.2,2.6,2.6,2.6h15c1.4,0,2.6-1.2,2.6-2.6v-8C30.1,16.1,28.9,14.9,27.5,14.9z M12.2,14h6.6c0.1,0,0.1,0,0.2,0.1l0.9,0.9h-7.1
	h-0.2h-0.6v-0.7C11.9,14.1,12,14,12.2,14z M28.1,25.5c0,0.3-0.3,0.6-0.6,0.6h-15c-0.3,0-0.6-0.3-0.6-0.6v-8c0-0.3,0.3-0.6,0.6-0.6
	h15c0.3,0,0.6,0.3,0.6,0.6L28.1,25.5z"/>
</svg>
