<?xml version="1.0" encoding="utf-8"?>
<!-- Generator: Adobe Illustrator 24.0.2, SVG Export Plug-In . SVG Version: 6.00 Build 0)  -->
<svg version="1.1" id="Layer_1" xmlns="http://www.w3.org/2000/svg" xmlns:xlink="http://www.w3.org/1999/xlink" x="0px" y="0px"
	 viewBox="0 0 24 24" style="enable-background:new 0 0 24 24;" xml:space="preserve">
<style type="text/css">
	.st0{fill:none;}
	.st1{fill:#59c9c9;}
</style>
<title>Artboard</title>
<desc>Created with Sketch.</desc>
<polygon id="Rectangle_4641" class="st0" points="2,2 22,2 22,22 2,22 "/>
<path class="st1" d="M14.3,3.9H9.7C8.2,3.9,7,5.1,7,6.6v11.6c0,0.6,0.3,1.1,0.9,1.3c0.2,0.1,0.4,0.1,0.5,0.1c0.4,0,0.7-0.1,1-0.4
	l2.4-2.4c0.1-0.1,0.3-0.1,0.4,0l2.4,2.4c0.4,0.4,1,0.5,1.5,0.3c0.5-0.2,0.9-0.7,0.9-1.3V6.6C17,5.1,15.8,3.9,14.3,3.9z M15,16.2
	c0,0.2-0.3,0.4-0.5,0.2L13,14.8c0,0,0,0,0,0c-0.3-0.3-0.6-0.4-1-0.4c-0.4,0-0.7,0.1-1,0.4l-1.6,1.6c-0.2,0.2-0.5,0-0.5-0.2V6.6
	c0-0.4,0.3-0.7,0.7-0.7h4.7c0.4,0,0.7,0.3,0.7,0.7V16.2z"/>
</svg>
