<?xml version="1.0" encoding="utf-8"?>
<!-- Generator: Adobe Illustrator 24.1.1, SVG Export Plug-In . SVG Version: 6.00 Build 0)  -->
<!DOCTYPE svg PUBLIC "-//W3C//DTD SVG 1.1//EN" "http://www.w3.org/Graphics/SVG/1.1/DTD/svg11.dtd" [
	<!ENTITY ns_extend "http://ns.adobe.com/Extensibility/1.0/">
	<!ENTITY ns_ai "http://ns.adobe.com/AdobeIllustrator/10.0/">
	<!ENTITY ns_graphs "http://ns.adobe.com/Graphs/1.0/">
	<!ENTITY ns_vars "http://ns.adobe.com/Variables/1.0/">
	<!ENTITY ns_imrep "http://ns.adobe.com/ImageReplacement/1.0/">
	<!ENTITY ns_sfw "http://ns.adobe.com/SaveForWeb/1.0/">
	<!ENTITY ns_custom "http://ns.adobe.com/GenericCustomNamespace/1.0/">
	<!ENTITY ns_adobe_xpath "http://ns.adobe.com/XPath/1.0/">
]>
<svg version="1.1" id="Layer_1" xmlns:x="&ns_extend;" xmlns:i="&ns_ai;" xmlns:graph="&ns_graphs;"
	 xmlns="http://www.w3.org/2000/svg" xmlns:xlink="http://www.w3.org/1999/xlink" x="0px" y="0px" viewBox="0 0 24 40"
	 style="enable-background:new 0 0 24 40;" xml:space="preserve">
<style type="text/css">
	.st0{fill:#FFFFFF;}
</style>
<metadata>
	<sfw  xmlns="&ns_sfw;">
		<slices></slices>
		<sliceSourceBounds  bottomLeftOrigin="true" height="22" width="18.13" x="2.9" y="6.1"></sliceSourceBounds>
	</sfw>
</metadata>
<desc>Created with Sketch.</desc>
<g id="Address">
	<g id="Group-2" transform="translate(3.000000, 12.000000)">
		<path class="st0" d="M13.8,3.8H6.6c-0.6,0-1,0.4-1,1s0.4,1,1,1h7.2c0.5,0,1-0.5,1-1S14.4,3.8,13.8,3.8z"/>
		<path class="st0" d="M11.4,7H6.6c-0.7,0-1,0.5-1,1s0.5,1,1,1h4.8c0.5,0,1-0.5,1-1S11.9,7,11.4,7z"/>
		<path class="st0" d="M18,1.8c0.1-0.5-0.1-1-0.5-1.4c-0.3-0.3-0.8-0.5-1.4-0.5H1.9c-1.1,0-2,0.9-2,2v18c0,1.1,0.9,2,2,2H16
			c0.5,0,1.1-0.2,1.5-0.7c0.3-0.4,0.5-0.9,0.5-1.4V1.8z M2.4,19.8H2.1V1.9h0.4v17.9H2.4z M15.9,19.8H4.4V1.9h11.5V19.8z"/>
	</g>
</g>
<desc>Created with Sketch.</desc>
</svg>
