<?xml version="1.0" encoding="utf-8"?>
<!-- Generator: Adobe Illustrator 24.0.2, SVG Export Plug-In . SVG Version: 6.00 Build 0)  -->
<svg version="1.1" id="Layer_1" xmlns="http://www.w3.org/2000/svg" xmlns:xlink="http://www.w3.org/1999/xlink" x="0px" y="0px"
	 viewBox="0 0 24 30" style="enable-background:new 0 0 24 30;" xml:space="preserve">
<style type="text/css">
	.st0{fill:#FFFFFF;}
</style>
<g>
	<g>
		<circle class="st0" cx="11.9" cy="8.1" r="3.9"/>
		<path class="st0" d="M5.5,15.7c-2.1,0-3.9,1.7-3.9,3.9c0,2.1,1.7,3.9,3.9,3.9c2.1,0,3.9-1.7,3.9-3.9C9.3,17.5,7.6,15.7,5.5,15.7z"
			/>
		<path class="st0" d="M18.5,15.7c-2.1,0-3.9,1.7-3.9,3.9c0,2.1,1.7,3.9,3.9,3.9c2.1,0,3.9-1.7,3.9-3.9
			C22.4,17.5,20.7,15.7,18.5,15.7z"/>
	</g>
	<g>
		<path class="st0" d="M19.1,9.8c-1.1,0-1.9,0.9-1.9,1.9c0,1.1,0.9,1.9,1.9,1.9c1.1,0,1.9-0.9,1.9-1.9C21.1,10.6,20.2,9.8,19.1,9.8z
			"/>
		<path class="st0" d="M5.3,9.8c-1.1,0-1.9,0.9-1.9,1.9c0,1.1,0.9,1.9,1.9,1.9c1.1,0,1.9-0.9,1.9-1.9C7.2,10.6,6.3,9.8,5.3,9.8z"/>
		<path class="st0" d="M12.3,21.9c-1.1,0-1.9,0.9-1.9,1.9c0,1.1,0.9,1.9,1.9,1.9c1.1,0,1.9-0.9,1.9-1.9
			C14.2,22.8,13.3,21.9,12.3,21.9z"/>
	</g>
</g>
</svg>
