<?xml version="1.0" encoding="utf-8"?>
<!-- Generator: Adobe Illustrator 24.1.1, SVG Export Plug-In . SVG Version: 6.00 Build 0)  -->
<!DOCTYPE svg PUBLIC "-//W3C//DTD SVG 1.1//EN" "http://www.w3.org/Graphics/SVG/1.1/DTD/svg11.dtd" [
	<!ENTITY ns_extend "http://ns.adobe.com/Extensibility/1.0/">
	<!ENTITY ns_ai "http://ns.adobe.com/AdobeIllustrator/10.0/">
	<!ENTITY ns_graphs "http://ns.adobe.com/Graphs/1.0/">
	<!ENTITY ns_vars "http://ns.adobe.com/Variables/1.0/">
	<!ENTITY ns_imrep "http://ns.adobe.com/ImageReplacement/1.0/">
	<!ENTITY ns_sfw "http://ns.adobe.com/SaveForWeb/1.0/">
	<!ENTITY ns_custom "http://ns.adobe.com/GenericCustomNamespace/1.0/">
	<!ENTITY ns_adobe_xpath "http://ns.adobe.com/XPath/1.0/">
]>
<svg version="1.1" id="Layer_1" xmlns:x="&ns_extend;" xmlns:i="&ns_ai;" xmlns:graph="&ns_graphs;"
	 xmlns="http://www.w3.org/2000/svg" xmlns:xlink="http://www.w3.org/1999/xlink" x="0px" y="0px" viewBox="0 0 24 40"
	 style="enable-background:new 0 0 24 40;" xml:space="preserve">
<style type="text/css">
	.st0{opacity:0.57;}
	.st1{fill:url(#SVGID_1_);}
	.st2{fill:url(#SVGID_2_);}
	.st3{fill:#59c9c9;}
</style>
<metadata>
	<sfw  xmlns="&ns_sfw;">
		<slices></slices>
		<sliceSourceBounds  bottomLeftOrigin="true" height="21.23" width="21.24" x="1.38" y="6.18"></sliceSourceBounds>
	</sfw>
</metadata>
<g>
	<g class="st0">
		
			<linearGradient id="SVGID_1_" gradientUnits="userSpaceOnUse" x1="36.9274" y1="1.6324" x2="36.9274" y2="16.6018" gradientTransform="matrix(-0.7071 -0.7071 0.7071 -0.7071 32.6867 54.735)">
			<stop  offset="0.0104" style="stop-color:#59c9c9;stop-opacity:0"/>
			<stop  offset="0.513" style="stop-color:#59c9c9"/>
		</linearGradient>
		<path class="st1" d="M3.21,22.75l4.62-1.24c0.07-1.33,0.6-2.65,1.62-3.67c2.18-2.18,5.73-2.18,7.91,0c2.18,2.18,2.18,5.72,0,7.9
			c-1.02,1.02-2.33,1.55-3.66,1.62l-1.24,4.62l5.01,1.34l4.51-16.77c0.32-1.04,0.09-2.18-0.77-2.9c-1-0.84-2.08-0.57-3.21-0.27
			c-0.61,0.16-1.22,0.33-1.82,0.49c-1.89,0.51-3.78,1.02-5.66,1.52c-1.93,0.52-3.86,1.04-5.79,1.56c-0.95,0.25-1.89,0.51-2.85,0.77
			L3.21,22.75z"/>
		
			<linearGradient id="SVGID_2_" gradientUnits="userSpaceOnUse" x1="36.929" y1="1.7791" x2="36.929" y2="20.3805" gradientTransform="matrix(-0.7071 -0.7071 0.7071 -0.7071 32.6867 54.735)">
			<stop  offset="0.0104" style="stop-color:#59c9c9;stop-opacity:0"/>
			<stop  offset="0.513" style="stop-color:#59c9c9"/>
		</linearGradient>
		<path class="st2" d="M10.74,24.46c1.47,1.47,3.85,1.47,5.32,0c1.47-1.47,1.47-3.86,0-5.32c-1.47-1.47-3.85-1.47-5.33,0
			C9.27,20.61,9.27,22.99,10.74,24.46z"/>
	</g>
	<g>
		<g>
			<g>
				<path class="st3" d="M21.71,13.48c0.1,0.1,0.19,0.21,0.28,0.32c0.57,0.75,0.77,1.74,0.52,2.65c-0.01,0.05-0.03,0.12-0.06,0.19
					l-4.53,16.82c-0.07,0.26-0.33,0.41-0.59,0.34l-5.01-1.34c-0.12-0.03-0.23-0.12-0.29-0.23c-0.06-0.11-0.08-0.24-0.05-0.37
					l1.24-4.62c0.05-0.2,0.23-0.35,0.44-0.36c1.27-0.06,2.45-0.59,3.35-1.48c1.99-1.99,1.99-5.23,0-7.22
					c-1.99-1.99-5.23-1.99-7.22,0c-0.89,0.89-1.41,2.08-1.48,3.35c-0.01,0.21-0.16,0.39-0.36,0.44l-4.62,1.24
					c-0.12,0.03-0.26,0.02-0.37-0.05C2.85,23.11,2.77,23,2.74,22.88L1.4,17.87c-0.07-0.26,0.08-0.52,0.34-0.59l16.76-4.51
					c0.12-0.04,0.19-0.07,0.25-0.08C19.83,12.42,20.95,12.71,21.71,13.48z M20.3,13.7c-0.68-0.24-1.44-0.04-2.19,0.17
					c-0.62,0.17-1.24,0.33-1.85,0.5c-1.9,0.51-3.79,1.02-5.69,1.53c-1.89,0.51-3.78,1.02-5.66,1.52c-0.82,0.22-1.64,0.44-2.45,0.66
					l1.09,4.08l3.82-1.03c0.15-1.38,0.76-2.65,1.73-3.63c2.37-2.37,6.22-2.37,8.59,0c2.37,2.37,2.37,6.22,0,8.59
					c-0.98,0.98-2.25,1.59-3.63,1.73l-1.03,3.82c0,0,4.08,1.09,4.08,1.09c0.24-0.89,0.48-1.78,0.72-2.67
					c0.52-1.93,1.04-3.87,1.56-5.8c0.51-1.88,1.01-3.75,1.52-5.63c0.14-0.53,0.28-1.06,0.43-1.59c0.27-1.01,0.55-2-0.28-2.86
					C20.82,13.95,20.56,13.79,20.3,13.7z"/>
			</g>
		</g>
		<g>
			<path class="st3" d="M16.4,18.79c1.66,1.66,1.66,4.35,0,6.01s-4.35,1.66-6.01,0c-1.66-1.66-1.66-4.35,0-6.01
				C12.05,17.14,14.75,17.14,16.4,18.79z M11.08,24.12c1.28,1.28,3.36,1.28,4.64,0c1.28-1.28,1.28-3.36,0-4.64
				c-1.28-1.28-3.36-1.28-4.64,0C9.8,20.76,9.8,22.84,11.08,24.12z"/>
		</g>
	</g>
</g>
</svg>
