<?xml version="1.0" encoding="utf-8"?>
<!-- Generator: Adobe Illustrator 24.2.1, SVG Export Plug-In . SVG Version: 6.00 Build 0)  -->
<!DOCTYPE svg PUBLIC "-//W3C//DTD SVG 1.1//EN" "http://www.w3.org/Graphics/SVG/1.1/DTD/svg11.dtd" [
	<!ENTITY ns_extend "http://ns.adobe.com/Extensibility/1.0/">
	<!ENTITY ns_ai "http://ns.adobe.com/AdobeIllustrator/10.0/">
	<!ENTITY ns_graphs "http://ns.adobe.com/Graphs/1.0/">
	<!ENTITY ns_vars "http://ns.adobe.com/Variables/1.0/">
	<!ENTITY ns_imrep "http://ns.adobe.com/ImageReplacement/1.0/">
	<!ENTITY ns_sfw "http://ns.adobe.com/SaveForWeb/1.0/">
	<!ENTITY ns_custom "http://ns.adobe.com/GenericCustomNamespace/1.0/">
	<!ENTITY ns_adobe_xpath "http://ns.adobe.com/XPath/1.0/">
]>
<svg version="1.1" id="Layer_1" xmlns:x="&ns_extend;" xmlns:i="&ns_ai;" xmlns:graph="&ns_graphs;"
	 xmlns="http://www.w3.org/2000/svg" xmlns:xlink="http://www.w3.org/1999/xlink" x="0px" y="0px" viewBox="0 0 24 31"
	 style="enable-background:new 0 0 24 31;" xml:space="preserve">
<style type="text/css">
	.st0{fill:#59c9c9;}
</style>
<metadata>
	<sfw  xmlns="&ns_sfw;">
		<slices></slices>
		<sliceSourceBounds  bottomLeftOrigin="true" height="21.8" width="21.9" x="1" y="4.6"></sliceSourceBounds>
	</sfw>
</metadata>
<path class="st0" d="M22.3,14.9H21l0.7-0.7c0.2-0.2,0.2-0.6,0-0.8s-0.6-0.2-0.8,0l-1.5,1.5h-2l1.5-1.5c0.1-0.1,0.2-0.3,0.2-0.5
	c0-0.4-0.2-0.6-0.6-0.7c-0.1,0-0.1,0-0.2,0h-2.2l1.4-1.4h2.1c0.3,0,0.6-0.3,0.6-0.6S20,9.6,19.6,9.6h-1l0.9-0.9
	c0.2-0.2,0.2-0.6,0-0.8s-0.6-0.2-0.8,0L18,8.7v-1c0-0.3-0.3-0.6-0.6-0.6s-0.6,0.3-0.6,0.6v2.1l-1.4,1.4c0-0.6,0-1.2,0-1.7
	c0-0.2,0-0.5-0.1-0.7c-0.2-0.5-0.9-0.7-1.3-0.3l-1.5,1.6v-2l1.5-1.5c0.2-0.2,0.2-0.6,0-0.8s-0.6-0.2-0.8,0l-0.7,0.7V5.2
	c0-0.3-0.3-0.6-0.6-0.6s-0.6,0.3-0.6,0.6v1.2l-0.7-0.7c-0.2-0.2-0.6-0.2-0.8,0s-0.2,0.6,0,0.8L11.2,8v2L9.7,8.5
	C9.6,8.3,9.4,8.2,9.1,8.2C8.7,8.2,8.3,8.6,8.3,9v2.2L6.9,9.8V7.7c0-0.3-0.3-0.6-0.6-0.6S5.9,7.4,5.9,7.7v1L5.1,7.8
	c-0.2-0.2-0.6-0.2-0.8,0s-0.2,0.6,0,0.8l0.8,0.9h-1c-0.3,0-0.6,0.3-0.6,0.6s0.3,0.6,0.6,0.6h2.1l1.4,1.4c-0.2,0-1.8,0-2,0
	s-0.3,0-0.5,0.1c-0.3,0.1-0.4,0.4-0.4,0.7s0.2,0.5,0.3,0.7c0.1,0.1,0.2,0.2,0.4,0.4c0.3,0.3,1.1,1.1,1.1,1.1h-2L3,13.5
	c-0.2-0.2-0.6-0.2-0.8,0s-0.2,0.6,0,0.8L2.9,15H1.7C1.4,15,1,15.3,1,15.6s0.3,0.5,0.6,0.5h1.2l-0.7,0.7c-0.2,0.3-0.2,0.6,0,0.8
	c0.1,0.1,0.3,0.2,0.4,0.2s0.3-0.1,0.4-0.2l1.6-1.5h2c-0.4,0.4-0.8,0.8-1.2,1.2c-0.2,0.2-0.4,0.3-0.4,0.5c-0.1,0.2-0.1,0.5,0,0.7
	s0.3,0.3,0.4,0.4C5.5,19,5.8,19,6,19c0.3,0,0.6,0,0.9,0s0.5,0,0.8,0l-1.4,1.4H4.1c-0.3,0-0.6,0.3-0.6,0.6s0.3,0.6,0.6,0.6h1
	l-0.8,0.8c-0.2,0.2-0.2,0.6,0,0.8c0.1,0.1,0.3,0.2,0.4,0.2s0.3-0.1,0.4-0.2l0.8-0.8v1c0,0.3,0.3,0.6,0.6,0.6s0.6-0.3,0.6-0.6v-2.1
	l1.4-1.4v2.2c0,0.4,0.4,0.7,0.8,0.7c0.4,0,0.6-0.3,0.8-0.5s0.5-0.5,0.7-0.7c0.1-0.1,0.3-0.3,0.4-0.4c0,0,0.2-0.1,0.2-0.2v2l-1.5,1.5
	c-0.2,0.2-0.2,0.6,0,0.8c0.1,0.1,0.3,0.2,0.4,0.2s0.3-0.1,0.4-0.2l0.7-0.7v1.2c0,0.3,0.3,0.6,0.6,0.6s0.6-0.3,0.6-0.6v-1.2l0.7,0.7
	c0.1,0.1,0.3,0.2,0.4,0.2s0.3-0.1,0.4-0.2c0.2-0.2,0.2-0.6,0-0.8L12.6,23v-2c0.4,0.4,0.7,0.7,1.1,1.1c0.3,0.3,0.5,0.6,0.9,0.6
	c0.5,0,0.8-0.4,0.8-0.9c0-0.3,0-0.6,0-0.9c0-0.4,0-0.8,0-1.2l1.4,1.4v2.1c0,0.3,0.3,0.6,0.6,0.6s0.6-0.3,0.6-0.6v-1l0.9,0.9
	c0.1,0.1,0.3,0.2,0.4,0.2s0.3-0.1,0.4-0.2c0.2-0.2,0.2-0.6,0-0.8l-0.9-0.9h1c0.3,0,0.6-0.3,0.6-0.6s-0.3-0.6-0.6-0.6h-2.1l-1.4-1.4
	c0.5,0,1.1,0,1.6,0c0.2,0,0.4,0,0.6,0c0.1,0,0.2,0,0.2-0.1c0.5-0.2,0.7-0.9,0.3-1.3l-1.5-1.5h2l1.5,1.5c0.1,0.1,0.3,0.2,0.4,0.2
	s0.3-0.1,0.4-0.2c0.2-0.2,0.2-0.6,0-0.8l-0.7-0.7h1.2c0.3,0,0.6-0.3,0.6-0.6S22.6,14.9,22.3,14.9z M12.4,11.7l1.7-1.7v2.4l-1.2,1.2
	c-0.2-0.1-0.4-0.2-0.6-0.2v-1.7H12.4z M9.6,10l1.7,1.7v1.6c-0.2,0.1-0.4,0.1-0.6,0.2l-1.1-1.2C9.6,12.3,9.6,10,9.6,10z M6.4,13.3
	h2.4l1.2,1.2c-0.1,0.2-0.2,0.4-0.2,0.5H8.1L6.4,13.3z M8.8,17.8H6.4l1.7-1.7h1.6c0.1,0.2,0.1,0.4,0.2,0.5L8.8,17.8z M11.4,19.3
	L9.8,21v-2.4l1.2-1.2c0.2,0.1,0.4,0.2,0.6,0.2v1.7H11.4z M11.9,16.6c-0.6,0-1.1-0.5-1.1-1.1s0.5-1.1,1.1-1.1s1.1,0.5,1.1,1.1
	S12.6,16.6,11.9,16.6z M14.3,21l-1.7-1.7v-1.6c0.2-0.1,0.4-0.1,0.6-0.2l1.1,1.1C14.3,18.5,14.3,21,14.3,21z M17.5,17.7h-2.4
	l-1.1-1.1c0.1-0.2,0.2-0.4,0.2-0.5h1.6L17.5,17.7z M15.8,14.9h-1.6c-0.1-0.2-0.1-0.4-0.2-0.5l1.1-1.1h2.4L15.8,14.9z"/>
</svg>
