<?xml version="1.0" encoding="utf-8"?>
<!-- Generator: Adobe Illustrator 24.2.1, SVG Export Plug-In . SVG Version: 6.00 Build 0)  -->
<!DOCTYPE svg PUBLIC "-//W3C//DTD SVG 1.1//EN" "http://www.w3.org/Graphics/SVG/1.1/DTD/svg11.dtd" [
	<!ENTITY ns_extend "http://ns.adobe.com/Extensibility/1.0/">
	<!ENTITY ns_ai "http://ns.adobe.com/AdobeIllustrator/10.0/">
	<!ENTITY ns_graphs "http://ns.adobe.com/Graphs/1.0/">
	<!ENTITY ns_vars "http://ns.adobe.com/Variables/1.0/">
	<!ENTITY ns_imrep "http://ns.adobe.com/ImageReplacement/1.0/">
	<!ENTITY ns_sfw "http://ns.adobe.com/SaveForWeb/1.0/">
	<!ENTITY ns_custom "http://ns.adobe.com/GenericCustomNamespace/1.0/">
	<!ENTITY ns_adobe_xpath "http://ns.adobe.com/XPath/1.0/">
]>
<svg version="1.1" id="Layer_1" xmlns:x="&ns_extend;" xmlns:i="&ns_ai;" xmlns:graph="&ns_graphs;"
	 xmlns="http://www.w3.org/2000/svg" xmlns:xlink="http://www.w3.org/1999/xlink" x="0px" y="0px" viewBox="0 0 24 40"
	 style="enable-background:new 0 0 24 40;" xml:space="preserve">
<style type="text/css">
	.st0{opacity:0.74;}
	.st1{opacity:0.57;}
	.st2{fill:url(#SVGID_1_);}
	.st3{fill:url(#SVGID_2_);}
	.st4{fill:#FFFFFF;}
</style>
<metadata>
	<sfw  xmlns="&ns_sfw;">
		<slices></slices>
		<sliceSourceBounds  bottomLeftOrigin="true" height="20.2" width="23" x="0.5" y="9.9"></sliceSourceBounds>
	</sfw>
</metadata>
<desc>Created with Sketch.</desc>
<g class="st0">
	<g>
		<g class="st1">
			
				<linearGradient id="SVGID_1_" gradientUnits="userSpaceOnUse" x1="12.05" y1="-2086.5493" x2="12.05" y2="-2102.4192" gradientTransform="matrix(1 0 0 -1 0 -2076)">
				<stop  offset="1.040000e-02" style="stop-color:#FFFFFF;stop-opacity:0"/>
				<stop  offset="0.513" style="stop-color:#FFFFFF"/>
			</linearGradient>
			<path class="st2" d="M18.5,10.4l-2.4,4.1c0.9,1,1.5,2.3,1.5,3.7c0,3.1-2.5,5.6-5.6,5.6s-5.6-2.5-5.6-5.6c0-1.4,0.6-2.8,1.4-3.7
				l-2.4-4.1L1,13l8.7,15.1c0.5,1,1.5,1.6,2.6,1.5c1.3-0.1,1.9-1.1,2.5-2.1c0.3-0.5,0.6-1.1,0.9-1.6c1-1.7,1.9-3.4,2.9-5.1
				s2-3.5,3-5.2c0.5-0.9,1-1.7,1.5-2.6L18.5,10.4z"/>
			
				<linearGradient id="SVGID_2_" gradientUnits="userSpaceOnUse" x1="-31.7172" y1="-3424.9875" x2="-31.7172" y2="-3438.1255" gradientTransform="matrix(1 0 0 -1 43.7172 -3414.894)">
				<stop  offset="1.040000e-02" style="stop-color:#FFFFFF;stop-opacity:0"/>
				<stop  offset="0.513" style="stop-color:#FFFFFF"/>
			</linearGradient>
			<path class="st3" d="M12,14.5c-2.1,0-3.8,1.7-3.8,3.8s1.7,3.8,3.8,3.8s3.8-1.7,3.8-3.8S14.1,14.5,12,14.5z"/>
		</g>
		<g>
			<g>
				<g>
					<path class="st4" d="M12,30.1c-0.1,0-0.3,0-0.4,0c-0.9-0.1-1.8-0.7-2.2-1.5c0,0-0.1-0.1-0.1-0.2L0.6,13.3
						c-0.1-0.2-0.1-0.5,0.2-0.7L5.2,10c0.1-0.1,0.3-0.1,0.4,0c0.1,0,0.2,0.1,0.3,0.2l2.4,4.1c0.1,0.2,0.1,0.4-0.1,0.6
						c-0.8,0.9-1.3,2.2-1.3,3.4c0,2.8,2.3,5.1,5.1,5.1s5.1-2.3,5.1-5.1c0-1.3-0.5-2.5-1.3-3.4c-0.1-0.2-0.2-0.4-0.1-0.6l2.4-4.1
						c0.1-0.1,0.2-0.2,0.3-0.2c0.1,0,0.3,0,0.4,0.1l4.5,2.6c0.2,0.1,0.3,0.4,0.2,0.7l-8.7,15.1c-0.1,0.1-0.1,0.2-0.1,0.2
						C14.1,29.5,13.1,30.1,12,30.1z M12.9,28.9c0.6-0.3,1-1,1.4-1.7c0.3-0.5,0.6-1.1,1-1.7c1-1.7,2-3.4,2.9-5.1c1-1.7,2-3.4,2.9-5.1
						c0.4-0.7,0.9-1.5,1.3-2.2L18.8,11l-2,3.4c0.9,1.1,1.3,2.4,1.3,3.8c0,3.4-2.7,6.1-6.1,6.1s-6.1-2.7-6.1-6.1
						c0-1.4,0.5-2.7,1.3-3.8l-2-3.4l-3.7,2.1C2.1,14,2.6,14.8,3,15.6c1,1.7,2,3.5,3,5.2c1,1.7,1.9,3.4,2.9,5c0.3,0.5,0.6,1,0.8,1.4
						c0.5,0.9,1,1.8,2.2,1.8C12.3,29.1,12.6,29,12.9,28.9z"/>
				</g>
			</g>
			<g>
				<path class="st4" d="M12,22.6c-2.3,0-4.3-1.9-4.3-4.3S9.6,14,12,14s4.2,1.9,4.2,4.3S14.3,22.6,12,22.6z M12,15
					c-1.8,0-3.3,1.5-3.3,3.3s1.5,3.3,3.3,3.3s3.3-1.5,3.3-3.3S13.8,15,12,15z"/>
			</g>
		</g>
	</g>
</g>
</svg>
