<?xml version="1.0" encoding="utf-8"?>
<!-- Generator: Adobe Illustrator 24.0.2, SVG Export Plug-In . SVG Version: 6.00 Build 0)  -->
<svg version="1.1" id="Layer_1" xmlns="http://www.w3.org/2000/svg" xmlns:xlink="http://www.w3.org/1999/xlink" x="0px" y="0px"
	 viewBox="0 0 24 40" style="enable-background:new 0 0 24 40;" xml:space="preserve">
<style type="text/css">
	.st0{fill:#59c9c9;}
</style>
<g>
	<path class="st0" d="M21,16.8l-1.1-0.1l0.7-0.9c0.3-0.4,0.5-0.9,0.5-1.4c0-0.5-0.2-1-0.6-1.4l-1.6-1.6c-0.7-0.7-2-0.8-2.8,0
		l-0.9,0.7L15.2,11c0-1.1-0.9-1.9-2-1.9h-2.3c-1.1,0-2,0.9-2,1.9l-0.1,1.1l-0.9-0.7c-0.8-0.7-2-0.7-2.8,0l-1.6,1.6
		c-0.8,0.8-0.8,2,0,2.8l0.7,0.9L3,16.8c-1.1,0-1.9,0.9-1.9,2v2.3c0,1.1,0.9,2,1.9,2l1.1,0.1l-0.7,0.9c-0.7,0.8-0.7,2,0,2.8l1.6,1.6
		c0.4,0.4,0.9,0.6,1.4,0.6c0.5,0,1-0.2,1.4-0.5l0.9-0.7L8.8,29c0,1.1,0.9,1.9,2,1.9h2.3c1.1,0,2-0.9,2-1.9l0.1-1.1l0.9,0.7
		c0.4,0.4,0.9,0.5,1.4,0.5c0.5,0,1-0.2,1.4-0.6l1.6-1.6c0.4-0.4,0.6-0.9,0.6-1.4c0-0.5-0.2-1-0.5-1.4l-0.7-0.9l1.1-0.1
		c1.1,0,1.9-0.9,1.9-2v-2.3C22.9,17.8,22.1,16.9,21,16.8z M20.6,21.2l-2.5,0.3c-0.2,0-0.3,0.1-0.4,0.3l-0.5,1.1
		c-0.1,0.1,0,0.3,0.1,0.4l1.6,2c0.1,0.2,0.1,0.4,0,0.6l-1.1,1.1c-0.2,0.2-0.4,0.2-0.6,0l-1.9-1.6c-0.1-0.1-0.3-0.1-0.4-0.1l-1.1,0.4
		c-0.1,0.1-0.3,0.2-0.3,0.4l-0.3,2.5c0,0.2-0.2,0.4-0.4,0.4h-1.5c-0.2,0-0.4-0.2-0.4-0.4l-0.3-2.5c0-0.2-0.1-0.3-0.3-0.4l-1.1-0.5
		c-0.1-0.1-0.3,0-0.4,0.1l-2,1.6c-0.2,0.1-0.4,0.1-0.6,0l-1.1-1.1c-0.2-0.2-0.2-0.4,0-0.6l1.6-1.9c0.1-0.1,0.1-0.3,0.1-0.4l-0.4-1.1
		c-0.1-0.1-0.2-0.3-0.4-0.3l-2.5-0.3c-0.2,0-0.4-0.2-0.4-0.4v-1.5c0-0.2,0.2-0.4,0.4-0.4l2.5-0.3c0.2,0,0.3-0.1,0.4-0.3l0.5-1.1
		c0.1-0.1,0-0.3-0.1-0.4l-1.6-2c-0.1-0.2-0.1-0.4,0-0.6l1.1-1.1c0.2-0.2,0.4-0.2,0.6,0l1.9,1.6c0.1,0.1,0.3,0.1,0.4,0.1l1.1-0.4
		c0.1-0.1,0.3-0.2,0.3-0.4l0.3-2.5c0-0.2,0.2-0.4,0.4-0.4h1.5c0.2,0,0.4,0.2,0.4,0.4l0.3,2.5c0,0.2,0.1,0.3,0.3,0.4l1.1,0.5
		c0.1,0.1,0.3,0,0.4-0.1l2-1.6c0.2-0.1,0.4-0.1,0.6,0l1.1,1.1c0.2,0.2,0.2,0.4,0,0.6l-1.6,1.9c-0.1,0.1-0.1,0.3-0.1,0.4l0.4,1.1
		c0.1,0.1,0.2,0.3,0.4,0.3l2.5,0.3c0.2,0,0.4,0.2,0.4,0.4v1.5C20.9,21,20.8,21.2,20.6,21.2z"/>
	<g>
		<path class="st0" d="M12,24.1c-2.2,0-4.1-1.8-4.1-4.1s1.8-4.1,4.1-4.1s4.1,1.8,4.1,4.1S14.2,24.1,12,24.1z M12,17.9
			c-1.1,0-2.1,0.9-2.1,2.1c0,1.1,0.9,2.1,2.1,2.1s2.1-0.9,2.1-2.1C14.1,18.9,13.1,17.9,12,17.9z"/>
	</g>
</g>
</svg>
