<?xml version="1.0" encoding="utf-8"?>
<!-- Generator: Adobe Illustrator 24.1.1, SVG Export Plug-In . SVG Version: 6.00 Build 0)  -->
<!DOCTYPE svg PUBLIC "-//W3C//DTD SVG 1.1//EN" "http://www.w3.org/Graphics/SVG/1.1/DTD/svg11.dtd" [
	<!ENTITY ns_extend "http://ns.adobe.com/Extensibility/1.0/">
	<!ENTITY ns_ai "http://ns.adobe.com/AdobeIllustrator/10.0/">
	<!ENTITY ns_graphs "http://ns.adobe.com/Graphs/1.0/">
	<!ENTITY ns_vars "http://ns.adobe.com/Variables/1.0/">
	<!ENTITY ns_imrep "http://ns.adobe.com/ImageReplacement/1.0/">
	<!ENTITY ns_sfw "http://ns.adobe.com/SaveForWeb/1.0/">
	<!ENTITY ns_custom "http://ns.adobe.com/GenericCustomNamespace/1.0/">
	<!ENTITY ns_adobe_xpath "http://ns.adobe.com/XPath/1.0/">
]>
<svg version="1.1" id="Layer_1" xmlns:x="&ns_extend;" xmlns:i="&ns_ai;" xmlns:graph="&ns_graphs;"
	 xmlns="http://www.w3.org/2000/svg" xmlns:xlink="http://www.w3.org/1999/xlink" x="0px" y="0px" viewBox="0 0 24 40"
	 style="enable-background:new 0 0 24 40;" xml:space="preserve">
<style type="text/css">
	.st0{opacity:0.57;}
	.st1{fill:url(#SVGID_1_);}
	.st2{fill:url(#SVGID_2_);}
	.st3{fill:#FFFFFF;}
</style>
<metadata>
	<sfw  xmlns="&ns_sfw;">
		<slices></slices>
		<sliceSourceBounds  bottomLeftOrigin="true" height="20.13" width="23.02" x="0.49" y="6.02"></sliceSourceBounds>
	</sfw>
</metadata>
<g>
	<g class="st0">
		<linearGradient id="SVGID_1_" gradientUnits="userSpaceOnUse" x1="12" y1="13.817" x2="12" y2="32.8932">
			<stop  offset="0.0104" style="stop-color:#FFFFFF;stop-opacity:0"/>
			<stop  offset="0.513" style="stop-color:#FFFFFF"/>
		</linearGradient>
		<path class="st1" d="M18.53,14.34l-2.39,4.14c0.9,0.99,1.45,2.3,1.45,3.74c0,3.08-2.51,5.59-5.59,5.59
			c-3.08,0-5.59-2.51-5.59-5.59c0-1.44,0.55-2.75,1.45-3.74l-2.39-4.14l-4.49,2.59l8.67,15.05c0.5,0.96,1.48,1.61,2.6,1.51
			c1.3-0.11,1.87-1.07,2.46-2.08c0.31-0.55,0.63-1.09,0.94-1.64c0.98-1.69,1.95-3.39,2.93-5.08c1-1.73,1.99-3.46,2.99-5.2
			c0.49-0.85,0.98-1.7,1.47-2.56L18.53,14.34z"/>
		<linearGradient id="SVGID_2_" gradientUnits="userSpaceOnUse" x1="12.0016" y1="13.817" x2="12.0016" y2="32.8932">
			<stop  offset="0.0104" style="stop-color:#FFFFFF;stop-opacity:0"/>
			<stop  offset="0.513" style="stop-color:#FFFFFF"/>
		</linearGradient>
		<path class="st2" d="M12,18.45c-2.08,0-3.76,1.69-3.76,3.77c0,2.08,1.69,3.77,3.76,3.77c2.08,0,3.77-1.69,3.77-3.77
			C15.77,20.14,14.08,18.45,12,18.45z"/>
	</g>
	<g>
		<g>
			<g>
				<path class="st3" d="M12,33.98c-0.14,0-0.28-0.01-0.43-0.03c-0.94-0.13-1.77-0.69-2.24-1.51c-0.03-0.04-0.06-0.11-0.09-0.18
					L0.55,17.17c-0.13-0.23-0.05-0.53,0.18-0.66l4.49-2.59c0.11-0.06,0.24-0.08,0.37-0.05c0.12,0.03,0.23,0.11,0.29,0.23l2.39,4.14
					c0.1,0.18,0.08,0.41-0.06,0.57c-0.85,0.94-1.32,2.15-1.32,3.41c0,2.82,2.29,5.11,5.1,5.11c2.82,0,5.11-2.29,5.11-5.11
					c0-1.26-0.47-2.47-1.32-3.41c-0.14-0.16-0.17-0.38-0.06-0.57l2.39-4.14c0.06-0.11,0.17-0.19,0.29-0.23
					c0.12-0.03,0.26-0.02,0.37,0.05l4.49,2.59c0.23,0.13,0.31,0.43,0.18,0.66l-8.66,15.05c-0.06,0.12-0.09,0.18-0.12,0.24
					C14.09,33.4,13.09,33.98,12,33.98z M12.85,32.82c0.65-0.32,1.04-0.99,1.43-1.66c0.32-0.55,0.64-1.11,0.96-1.66
					c0.98-1.7,1.96-3.4,2.94-5.1c0.98-1.69,1.95-3.39,2.93-5.08c0.42-0.73,0.85-1.47,1.27-2.2L18.71,15l-1.98,3.43
					c0.87,1.08,1.34,2.41,1.34,3.79c0,3.35-2.73,6.07-6.08,6.07c-3.35,0-6.07-2.72-6.07-6.07c0-1.38,0.47-2.72,1.34-3.79L5.29,15
					c0,0-3.66,2.11-3.66,2.11c0.46,0.8,0.92,1.6,1.38,2.4c1,1.73,2,3.47,3,5.2c0.97,1.68,1.94,3.37,2.91,5.05
					c0.27,0.47,0.55,0.95,0.82,1.42c0.52,0.9,1.03,1.8,2.22,1.82C12.31,33.01,12.6,32.94,12.85,32.82z"/>
			</g>
		</g>
		<g>
			<path class="st3" d="M12,26.47c-2.34,0-4.25-1.91-4.25-4.25s1.91-4.25,4.25-4.25c2.34,0,4.25,1.91,4.25,4.25
				S14.34,26.47,12,26.47z M12,18.93c-1.81,0-3.28,1.47-3.28,3.28c0,1.81,1.47,3.28,3.28,3.28c1.81,0,3.28-1.47,3.28-3.28
				C15.28,20.41,13.81,18.93,12,18.93z"/>
		</g>
	</g>
</g>
</svg>
