<?xml version="1.0" encoding="utf-8"?>
<!-- Generator: Adobe Illustrator 24.0.2, SVG Export Plug-In . SVG Version: 6.00 Build 0)  -->
<svg version="1.1" id="Layer_1" xmlns="http://www.w3.org/2000/svg" xmlns:xlink="http://www.w3.org/1999/xlink" x="0px" y="0px"
	 viewBox="0 0 30 30" style="enable-background:new 0 0 30 30;" xml:space="preserve">
<style type="text/css">
	.st0{fill:#707070;}
</style>
<g id="ic_pending">
	<path class="st0" d="M15,26.9C8.4,26.9,3.1,21.6,3.1,15S8.4,3.1,15,3.1S26.9,8.4,26.9,15S21.6,26.9,15,26.9z M15,6.1
		c-4.9,0-8.9,4-8.9,8.9s4,8.9,8.9,8.9s8.9-4,8.9-8.9S19.9,6.1,15,6.1z"/>
	<path class="st0" d="M19.8,13.6h-3.6V9.1c0-0.8-0.7-1.5-1.5-1.5s-1.5,0.7-1.5,1.5v6c0,0.8,0.7,1.5,1.5,1.5h5.1
		c0.8,0,1.5-0.7,1.5-1.5S20.6,13.6,19.8,13.6z"/>
</g>
</svg>
