<?xml version="1.0" encoding="utf-8"?>
<!-- Generator: Adobe Illustrator 24.0.2, SVG Export Plug-In . SVG Version: 6.00 Build 0)  -->
<svg version="1.1" id="Layer_1" xmlns="http://www.w3.org/2000/svg" xmlns:xlink="http://www.w3.org/1999/xlink" x="0px" y="0px"
	 viewBox="0 0 24 24" style="enable-background:new 0 0 24 24;" xml:space="preserve">
<style type="text/css">
	.st0{fill-rule:evenodd;clip-rule:evenodd;fill:#59c9c9;}
</style>
<path id="radio_on_1_" class="st0" d="M12,6c-3.3,0-6,2.7-6,6s2.7,6,6,6s6-2.7,6-6S15.4,6,12,6L12,6z M12,0C5.4,0,0,5.4,0,12
	s5.4,12,12,12s12-5.4,12-12S18.6,0,12,0z M12,21.6c-5.3,0-9.6-4.3-9.6-9.6S6.7,2.4,12,2.4s9.6,4.3,9.6,9.6
	C21.6,17.3,17.3,21.6,12,21.6z"/>
</svg>
