<?xml version="1.0" encoding="utf-8"?>
<!-- Generator: Adobe Illustrator 24.1.1, SVG Export Plug-In . SVG Version: 6.00 Build 0)  -->
<!DOCTYPE svg PUBLIC "-//W3C//DTD SVG 1.1//EN" "http://www.w3.org/Graphics/SVG/1.1/DTD/svg11.dtd" [
	<!ENTITY ns_extend "http://ns.adobe.com/Extensibility/1.0/">
	<!ENTITY ns_ai "http://ns.adobe.com/AdobeIllustrator/10.0/">
	<!ENTITY ns_graphs "http://ns.adobe.com/Graphs/1.0/">
	<!ENTITY ns_vars "http://ns.adobe.com/Variables/1.0/">
	<!ENTITY ns_imrep "http://ns.adobe.com/ImageReplacement/1.0/">
	<!ENTITY ns_sfw "http://ns.adobe.com/SaveForWeb/1.0/">
	<!ENTITY ns_custom "http://ns.adobe.com/GenericCustomNamespace/1.0/">
	<!ENTITY ns_adobe_xpath "http://ns.adobe.com/XPath/1.0/">
]>
<svg version="1.1" id="ic_send" xmlns:x="&ns_extend;" xmlns:i="&ns_ai;" xmlns:graph="&ns_graphs;"
	 xmlns="http://www.w3.org/2000/svg" xmlns:xlink="http://www.w3.org/1999/xlink" x="0px" y="0px" viewBox="0 0 26 26"
	 style="enable-background:new 0 0 26 26;" xml:space="preserve">
<style type="text/css">
	.st0{opacity:0.57;}
	.st1{fill:url(#SVGID_1_);}
	.st2{fill:url(#SVGID_2_);}
	.st3{fill:#707070;}
</style>
<metadata>
	<sfw  xmlns="&ns_sfw;">
		<slices></slices>
		<sliceSourceBounds  bottomLeftOrigin="true" height="21.24" width="21.24" x="2.38" y="2.38"></sliceSourceBounds>
	</sfw>
</metadata>
<g>
	<g>
		<g class="st0">
			
				<linearGradient id="SVGID_1_" gradientUnits="userSpaceOnUse" x1="12.4572" y1="21.3043" x2="12.4572" y2="5.4344" gradientTransform="matrix(-0.7071 -0.7071 -0.7071 0.7071 32.7812 10.8153)">
				<stop  offset="0.0104" style="stop-color:#707070;stop-opacity:0"/>
				<stop  offset="0.513" style="stop-color:#707070"/>
			</linearGradient>
			<path class="st1" d="M4.21,12.55l4.62-1.24c0.06-1.34,0.6-2.65,1.62-3.67c2.18-2.18,5.73-2.18,7.91,0s2.18,5.73,0,7.91
				c-1.02,1.02-2.33,1.56-3.67,1.62l-1.24,4.62l5.01,1.34l4.51-16.77c0.33-1.03,0.09-2.18-0.77-2.91c-1-0.84-2.08-0.57-3.21-0.27
				c-0.61,0.17-1.22,0.33-1.82,0.49c-1.89,0.5-3.78,1.02-5.66,1.52C9.56,5.71,7.64,6.24,5.7,6.76c-0.95,0.25-1.9,0.51-2.85,0.77
				L4.21,12.55z"/>
			
				<linearGradient id="SVGID_2_" gradientUnits="userSpaceOnUse" x1="-31.265" y1="-1317.134" x2="-31.265" y2="-1330.2721" gradientTransform="matrix(-0.7071 -0.7071 -0.7071 0.7071 -944.8725 926.6436)">
				<stop  offset="0.0104" style="stop-color:#707070;stop-opacity:0"/>
				<stop  offset="0.513" style="stop-color:#707070"/>
			</linearGradient>
			<path class="st2" d="M11.73,14.26c1.47,1.47,3.85,1.46,5.32-0.01c1.47-1.47,1.47-3.86,0.01-5.32c-1.47-1.47-3.86-1.47-5.33,0
				S10.26,12.79,11.73,14.26z"/>
		</g>
		<g>
			<g>
				<g>
					<path class="st3" d="M22.71,3.28c0.1,0.1,0.19,0.21,0.28,0.33c0.57,0.76,0.76,1.74,0.52,2.65c-0.01,0.05-0.04,0.12-0.06,0.19
						l-4.53,16.82c-0.07,0.25-0.34,0.41-0.59,0.34l-5.01-1.34c-0.12-0.04-0.23-0.11-0.3-0.23c-0.06-0.11-0.08-0.24-0.04-0.37
						l1.24-4.62c0.06-0.2,0.23-0.35,0.45-0.36c1.27-0.06,2.45-0.59,3.34-1.48c1.99-1.99,1.99-5.23,0.01-7.22
						C16.02,6,12.79,6,10.79,7.99c-0.89,0.89-1.41,2.08-1.48,3.34c-0.01,0.21-0.15,0.39-0.36,0.45l-4.62,1.24
						c-0.12,0.04-0.25,0.01-0.37-0.04c-0.11-0.06-0.2-0.17-0.23-0.3L2.4,7.67C2.33,7.42,2.48,7.15,2.74,7.08L19.5,2.56
						c0.13-0.04,0.19-0.06,0.25-0.08C20.83,2.21,21.94,2.51,22.71,3.28z M21.29,3.5c-0.69-0.23-1.44-0.04-2.18,0.16
						c-0.62,0.16-1.24,0.33-1.85,0.49c-1.9,0.51-3.79,1.02-5.69,1.53C9.68,6.19,7.79,6.7,5.91,7.2C5.09,7.42,4.27,7.64,3.45,7.86
						l1.09,4.07l3.83-1.03c0.15-1.38,0.76-2.65,1.73-3.63c2.37-2.37,6.22-2.36,8.59,0.01s2.37,6.22,0,8.58
						c-0.98,0.98-2.26,1.59-3.63,1.73l-1.03,3.83l4.08,1.1c0.24-0.89,0.48-1.78,0.72-2.67c0.52-1.93,1.04-3.87,1.56-5.8
						c0.5-1.87,1.01-3.75,1.51-5.63c0.14-0.52,0.28-1.06,0.42-1.58c0.27-1,0.54-2-0.28-2.86C21.81,3.75,21.55,3.59,21.29,3.5z"/>
				</g>
			</g>
			<g>
				<path class="st3" d="M17.4,8.59c1.65,1.65,1.65,4.36,0,6.01c-1.65,1.65-4.36,1.65-6.01,0s-1.65-4.36,0-6.01
					S15.75,6.94,17.4,8.59z M12.07,13.92c1.28,1.28,3.36,1.28,4.64,0c1.28-1.28,1.28-3.36,0-4.64C15.43,8,13.35,8,12.07,9.28
					S10.79,12.64,12.07,13.92z"/>
			</g>
		</g>
	</g>
</g>
</svg>
