<?xml version="1.0" encoding="utf-8"?>
<!-- Generator: Adobe Illustrator 24.0.2, SVG Export Plug-In . SVG Version: 6.00 Build 0)  -->
<svg version="1.1" id="Layer_1" xmlns="http://www.w3.org/2000/svg" xmlns:xlink="http://www.w3.org/1999/xlink" x="0px" y="0px"
	 viewBox="0 0 40 26" style="enable-background:new 0 0 40 26;" xml:space="preserve">
<style type="text/css">
	.st0{opacity:0.5;fill-rule:evenodd;clip-rule:evenodd;fill:#707070;enable-background:new    ;}
	.st1{fill:#707070;}
</style>
<g id="switch_off" transform="rotate(180 20 10.5)">
	<path id="switch_path" class="st0" d="M35.5,8.2c0,3.8-3.1,7-6.9,7c0,0-0.1,0-0.1,0h-20c-3.8,0-7-3.1-7-6.9c0,0,0-0.1,0-0.1
		c0-3.8,3.1-7,6.9-7c0,0,0.1,0,0.1,0h20C32.3,1.2,35.5,4.3,35.5,8.2C35.5,8.2,35.5,8.2,35.5,8.2z"/>
	<g transform="rotate(180 20 10.5)">
		<path id="switch_button-2" class="st1" d="M11.5,23c-5.5,0-10-4.5-10-10S6,3,11.5,3s10,4.5,10,10S17,23,11.5,23z"/>
	</g>
</g>
</svg>
