<?xml version="1.0" encoding="utf-8"?>
<!-- Generator: Adobe Illustrator 24.2.1, SVG Export Plug-In . SVG Version: 6.00 Build 0)  -->
<!DOCTYPE svg PUBLIC "-//W3C//DTD SVG 1.1//EN" "http://www.w3.org/Graphics/SVG/1.1/DTD/svg11.dtd" [
	<!ENTITY ns_extend "http://ns.adobe.com/Extensibility/1.0/">
	<!ENTITY ns_ai "http://ns.adobe.com/AdobeIllustrator/10.0/">
	<!ENTITY ns_graphs "http://ns.adobe.com/Graphs/1.0/">
	<!ENTITY ns_vars "http://ns.adobe.com/Variables/1.0/">
	<!ENTITY ns_imrep "http://ns.adobe.com/ImageReplacement/1.0/">
	<!ENTITY ns_sfw "http://ns.adobe.com/SaveForWeb/1.0/">
	<!ENTITY ns_custom "http://ns.adobe.com/GenericCustomNamespace/1.0/">
	<!ENTITY ns_adobe_xpath "http://ns.adobe.com/XPath/1.0/">
]>
<svg version="1.1" id="Layer_1" xmlns:x="&ns_extend;" xmlns:i="&ns_ai;" xmlns:graph="&ns_graphs;"
	 xmlns="http://www.w3.org/2000/svg" xmlns:xlink="http://www.w3.org/1999/xlink" x="0px" y="0px" viewBox="0 0 28 24"
	 style="enable-background:new 0 0 28 24;" xml:space="preserve">
<style type="text/css">
	.st0{opacity:0.74;fill:#FFFFFF;}
</style>
<metadata>
	<sfw  xmlns="&ns_sfw;">
		<slices></slices>
		<sliceSourceBounds  bottomLeftOrigin="true" height="20.1" width="16.2" x="5.8" y="2"></sliceSourceBounds>
	</sfw>
</metadata>
<path class="st0" d="M20.4,9.8L20.4,9.8c-0.1,0-0.2-0.1-0.2-0.2V8.5c0-1-0.2-1.9-0.6-2.8l0,0l0,0c0,0,0-0.1-0.1-0.1
	C19.4,5.3,19.2,5,19,4.7c0,0,0,0,0-0.1c0,0,0-0.1-0.1-0.1c-0.9-1.2-2.2-2.1-3.6-2.4c-0.2,0-0.4-0.1-0.6-0.1c-0.6-0.1-1.3-0.1-2,0
	c-2.9,0.6-5,3.4-5,6.4v1.1c0,0.1-0.1,0.2-0.2,0.2c-1,0.2-1.7,0.9-1.7,2V20c0,1,0.8,1.9,1.8,2l0,0c0.1,0,0.3,0,0.4,0h11.8
	c1.2,0,2.2-1,2.2-2.2v-8C22.1,10.7,21.4,10,20.4,9.8z M11.1,5.2c1-1,2.4-1.4,3.9-1c1.9,0.5,3.1,2.3,3.1,4.3v1c0,0.1-0.1,0.2-0.2,0.2
	H10c-0.1,0-0.2-0.1-0.2-0.2V8.4C9.8,7.2,10.3,6,11.1,5.2z M19.7,20.1H8.3c-0.1,0-0.2-0.1-0.2-0.2v-7.8c0-0.1,0.1-0.2,0.2-0.2h11.4
	c0.1,0,0.2,0.1,0.2,0.2v7.8C19.9,20,19.8,20.1,19.7,20.1z"/>
</svg>
