<?xml version="1.0" encoding="utf-8"?>
<!-- Generator: Adobe Illustrator 24.0.2, SVG Export Plug-In . SVG Version: 6.00 Build 0)  -->
<svg version="1.1" id="Layer_1" xmlns="http://www.w3.org/2000/svg" xmlns:xlink="http://www.w3.org/1999/xlink" x="0px" y="0px"
	 viewBox="0 0 28 24" style="enable-background:new 0 0 28 24;" xml:space="preserve">
<style type="text/css">
	.st0{fill:#FFFFFF;}
</style>
<path class="st0" d="M20,9.7H9.9l0,0V8.4c0-2,1.2-3.8,3.1-4.3c2.1-0.5,4.1,0.5,4.9,2.4c0.2,0.4,0.8,0.7,1.3,0.4
	c0.5-0.2,0.7-0.8,0.5-1.3c-1.2-2.6-4-4.1-6.9-3.6c-2.9,0.6-5,3.4-5,6.4v1.3l0,0c-1.1,0.1-1.9,0.9-1.9,2V20c0,1.1,0.9,2,2,2H20
	c1.1,0,2-0.9,2-2v-8.3C22.1,10.6,21.2,9.7,20,9.7z M20,20.1H8l0,0v-8.3l0,0h12l0,0V20.1C20.1,20.1,20.1,20.1,20,20.1z"/>
</svg>
