<?xml version="1.0" encoding="utf-8"?>
<!-- Generator: Adobe Illustrator 24.0.2, SVG Export Plug-In . SVG Version: 6.00 Build 0)  -->
<svg version="1.1" id="Layer_1" xmlns="http://www.w3.org/2000/svg" xmlns:xlink="http://www.w3.org/1999/xlink" x="0px" y="0px"
	 viewBox="0 0 40 26" style="enable-background:new 0 0 40 26;" xml:space="preserve">
<style type="text/css">
	.st0{opacity:0.5;fill-rule:evenodd;clip-rule:evenodd;fill:#59c9c9;enable-background:new    ;}
	.st1{fill:#59c9c9;}
</style>
<g id="switch_on" transform="translate(0 1)">
	<path id="switch_path" class="st0" d="M35.5,12.2c0,3.8-3.1,7-6.9,7c0,0-0.1,0-0.1,0h-20c-3.8,0-7-3.1-7-6.9c0,0,0-0.1,0-0.1
		c0-3.8,3.1-7,6.9-7c0,0,0.1,0,0.1,0h20C32.3,5.2,35.5,8.3,35.5,12.2C35.5,12.2,35.5,12.2,35.5,12.2z"/>
	<path id="switch_button-2" class="st1" d="M28.5,2c5.5,0,10,4.5,10,10s-4.5,10-10,10s-10-4.5-10-10S23,2,28.5,2z"/>
</g>
</svg>
