<?xml version="1.0" encoding="utf-8"?>
<!-- Generator: Adobe Illustrator 24.1.1, SVG Export Plug-In . SVG Version: 6.00 Build 0)  -->
<!DOCTYPE svg PUBLIC "-//W3C//DTD SVG 1.1//EN" "http://www.w3.org/Graphics/SVG/1.1/DTD/svg11.dtd" [
	<!ENTITY ns_extend "http://ns.adobe.com/Extensibility/1.0/">
	<!ENTITY ns_ai "http://ns.adobe.com/AdobeIllustrator/10.0/">
	<!ENTITY ns_graphs "http://ns.adobe.com/Graphs/1.0/">
	<!ENTITY ns_vars "http://ns.adobe.com/Variables/1.0/">
	<!ENTITY ns_imrep "http://ns.adobe.com/ImageReplacement/1.0/">
	<!ENTITY ns_sfw "http://ns.adobe.com/SaveForWeb/1.0/">
	<!ENTITY ns_custom "http://ns.adobe.com/GenericCustomNamespace/1.0/">
	<!ENTITY ns_adobe_xpath "http://ns.adobe.com/XPath/1.0/">
]>
<svg version="1.1" id="ic-transaction-mint" xmlns:x="&ns_extend;" xmlns:i="&ns_ai;" xmlns:graph="&ns_graphs;"
	 xmlns="http://www.w3.org/2000/svg" xmlns:xlink="http://www.w3.org/1999/xlink" x="0px" y="0px" viewBox="0 0 24 24"
	 style="enable-background:new 0 0 24 24;" xml:space="preserve">
<style type="text/css">
	.st0{fill:#B6B6B6;}
</style>
<metadata>
	<sfw  xmlns="&ns_sfw;">
		<slices></slices>
		<sliceSourceBounds  bottomLeftOrigin="true" height="19.8" width="19.79" x="2.1" y="2.1"></sliceSourceBounds>
	</sfw>
</metadata>
<g>
	<path class="st0" d="M16.3,12c0-2.41-1.99-4.41-4.41-4.41S7.38,9.48,7.38,12s1.99,4.41,4.41,4.41S16.3,14.41,16.3,12z M9.48,12
		c0-1.26,1.05-2.31,2.31-2.31S14.1,10.74,14.1,12s-1.05,2.31-2.31,2.31S9.48,13.26,9.48,12z"/>
	<path class="st0" d="M20.28,12.34c-0.62,0-1.14,0.41-1.24,1.04c-0.12,0.49-0.18,0.87-0.33,1.28c-0.13,0.36-0.28,0.71-0.47,1.05
		c-0.36,0.65-0.83,1.25-1.38,1.76c-0.56,0.5-1.2,0.92-1.88,1.23c-0.26,0.12-0.54,0.22-0.82,0.29c-2.48,0.73-5.15,0.05-7.23-1.81
		c-0.04-0.05-0.07-0.09-0.1-0.14l0.83,0.29c0.55,0.19,1.14-0.09,1.34-0.64c0.04-0.12,0.06-0.23,0.06-0.35c0-0.43-0.26-0.84-0.7-0.99
		c0,0-3.58-1.41-3.59-1.41c-0.55-0.19-1.14,0.09-1.34,0.64l-1.27,3.58c-0.19,0.55,0.09,1.14,0.64,1.34
		c0.12,0.04,0.23,0.06,0.35,0.06c0.43,0,0.84-0.26,0.99-0.7l0.2-0.56c0.3,0.33,0.59,0.57,0.59,0.57c2.05,1.96,4.62,3,7.21,3
		c0.92,0,1.86-0.14,2.77-0.4c0.73-0.22,1.44-0.52,2.1-0.9c0.65-0.38,1.25-0.83,1.8-1.35c0.54-0.52,1.02-1.1,1.42-1.74
		c0.41-0.64,0.73-1.34,0.99-2.06c0.2-0.6,0.33-1.19,0.33-1.82C21.53,12.96,21.01,12.34,20.28,12.34z"/>
	<path class="st0" d="M3.72,11.64c0.62,0,1.14-0.41,1.24-1.04c0.12-0.48,0.18-0.87,0.33-1.27c0.13-0.36,0.28-0.71,0.47-1.05
		c0.36-0.65,0.82-1.25,1.38-1.75s1.2-0.92,1.88-1.23c0.26-0.12,0.54-0.21,0.82-0.29c2.48-0.73,5.15-0.05,7.23,1.81
		c0.04,0.05,0.07,0.09,0.1,0.14l-0.83-0.29c-0.55-0.19-1.14,0.09-1.34,0.64c-0.04,0.12-0.06,0.23-0.06,0.35
		c0,0.43,0.26,0.84,0.7,0.99c0,0,3.58,1.41,3.59,1.41c0.55,0.19,1.14-0.09,1.34-0.64l1.27-3.58c0.19-0.55-0.09-1.14-0.64-1.34
		c-0.12-0.04-0.23-0.06-0.35-0.06c-0.43,0-0.84,0.26-0.99,0.7l-0.2,0.56c-0.3-0.33-0.59-0.57-0.59-0.57c-2.05-1.96-4.62-3-7.21-3
		c-0.92,0-1.86,0.14-2.77,0.4c-0.73,0.22-1.44,0.52-2.1,0.9C6.33,3.8,5.73,4.26,5.2,4.78C4.65,5.3,4.18,5.89,3.78,6.52
		C3.37,7.16,3.04,7.85,2.79,8.58c-0.2,0.6-0.33,1.19-0.33,1.82C2.47,11.02,2.99,11.64,3.72,11.64z"/>
</g>
</svg>
