<?xml version="1.0" encoding="utf-8"?>
<!-- Generator: Adobe Illustrator 24.0.2, SVG Export Plug-In . SVG Version: 6.00 Build 0)  -->
<svg version="1.1" id="ic-transaction-sent" xmlns="http://www.w3.org/2000/svg" xmlns:xlink="http://www.w3.org/1999/xlink"
	 x="0px" y="0px" viewBox="0 0 24 24" style="enable-background:new 0 0 24 24;" xml:space="preserve">
<style type="text/css">
	.st0{opacity:0.57;}
	.st1{fill:url(#SVGID_1_);}
	.st2{fill:url(#SVGID_2_);}
	.st3{fill:#707070;}
</style>
<g>
	<g>
		<g class="st0">
			
				<linearGradient id="SVGID_1_" gradientUnits="userSpaceOnUse" x1="-896.9985" y1="1610.746" x2="-896.9985" y2="1623.6735" gradientTransform="matrix(-0.7071 -0.7071 0.7071 -0.7071 -1766.0481 521.5201)">
				<stop  offset="1.042300e-02" style="stop-color:#707070;stop-opacity:0"/>
				<stop  offset="0.513" style="stop-color:#707070"/>
			</linearGradient>
			<path class="st1" d="M2.9,12.1l4.5-1.2c0.2-1.4,0.7-2.7,1.7-3.7c2.1-2.1,5.6-2.1,7.8,0c2.1,2.1,2.1,5.6,0,7.8
				c-1,1-2.3,1.5-3.6,1.6l-1.2,4.5l4.9,1.3l4.4-16.5c0-0.1,0.1-0.2,0.1-0.2c0.1-0.4,0.1-0.9,0-1.3c0,0,0-0.1-0.1-0.1V4.2
				c0-0.1-0.1-0.2-0.1-0.3l-0.1-0.1c-0.1-0.1-0.1-0.2-0.2-0.3c0-0.1-0.1-0.1-0.2-0.2s-0.1-0.1-0.2-0.2S20.4,3,20.3,2.9l-0.1-0.1
				c-0.1-0.1-0.2-0.1-0.3-0.2h-0.1c0,0-0.1,0-0.1-0.1c-0.4-0.1-0.9-0.1-1.3,0c-0.1,0-0.2,0.1-0.2,0.1L1.6,7.1L2.9,12.1z"/>
			
				<linearGradient id="SVGID_2_" gradientUnits="userSpaceOnUse" x1="-897.0339" y1="1610.7454" x2="-897.0339" y2="1623.674" gradientTransform="matrix(-0.7071 -0.7071 0.7071 -0.7071 -1766.0481 521.5201)">
				<stop  offset="1.042300e-02" style="stop-color:#707070;stop-opacity:0"/>
				<stop  offset="0.513" style="stop-color:#707070"/>
			</linearGradient>
			<path class="st2" d="M10.4,13.7c1.4,1.4,3.8,1.4,5.2,0s1.4-3.8,0-5.2s-3.8-1.4-5.2,0C8.9,10,8.9,12.3,10.4,13.7z"/>
		</g>
		<g>
			<path class="st3" d="M1.1,7.3l1.3,4.9c0.1,0.1,0.2,0.3,0.3,0.3c0.1,0.1,0.3,0.1,0.4,0.1l4.5-1.2C7.8,11.3,8,11.1,8,10.9
				c0.1-1.3,0.6-2.4,1.5-3.3c1.9-1.9,5.1-1.9,7,0s1.9,5.1,0,7c-0.9,0.9-2,1.4-3.3,1.4c-0.2,0-0.4,0.2-0.5,0.4l-1.2,4.5
				c0,0.1,0,0.3,0.1,0.4s0.2,0.2,0.3,0.2l4.9,1.3c0.3,0.1,0.6-0.1,0.7-0.4c0.3-0.9,0.5-1.8,0.8-2.8c0.5-2,1.1-4,1.6-6
				c0.5-1.9,1-3.8,1.6-5.7c0.2-0.7,0.4-1.4,0.6-2.2c0.3-1.1,0-2-0.6-2.9c-0.5-0.7-1.2-1-2-1.1c-0.9-0.1-1.7,0.2-2.6,0.4
				C16.2,2.3,2.2,6.4,1.5,6.6C1.2,6.7,1,7,1.1,7.3z M18.2,2.9c0.9-0.2,2.1,0.3,2.6,1.2C21,4.4,21,4.8,21,5.1C21,6,20.6,7,20.4,7.8
				c-0.2,0.9-0.5,1.9-0.7,2.8c-0.6,2.2-1.2,4.4-1.8,6.6c-0.4,1.5-0.8,2.9-1.2,4.4l-0.1,0.2l-3.9-1l1-3.7c1.3-0.2,2.7-0.8,3.5-1.8
				c2-2.6,2.1-6.1,0.1-8.4c-2.3-2.5-6.2-2.4-8.5,0c-1,1-1.6,2.2-1.7,3.6l-3.7,1l-1-3.9c0.9-0.3,1.8-0.5,2.7-0.8
				C7,6.2,17.5,3.1,18.2,2.9z"/>
			<path class="st3" d="M16,8.1c-1.7-1.7-4.3-1.7-6,0s-1.7,4.3,0,6s4.3,1.7,6,0C17.6,12.5,17.6,9.8,16,8.1z M10.7,13.4
				c-1.2-1.2-1.2-3.3,0-4.5s3.3-1.2,4.5,0s1.2,3.3,0,4.5S12,14.6,10.7,13.4z"/>
		</g>
	</g>
</g>
</svg>
