<?xml version="1.0" encoding="utf-8"?>
<!-- Generator: Adobe Illustrator 24.1.1, SVG Export Plug-In . SVG Version: 6.00 Build 0)  -->
<!DOCTYPE svg PUBLIC "-//W3C//DTD SVG 1.1//EN" "http://www.w3.org/Graphics/SVG/1.1/DTD/svg11.dtd" [
	<!ENTITY ns_extend "http://ns.adobe.com/Extensibility/1.0/">
	<!ENTITY ns_ai "http://ns.adobe.com/AdobeIllustrator/10.0/">
	<!ENTITY ns_graphs "http://ns.adobe.com/Graphs/1.0/">
	<!ENTITY ns_vars "http://ns.adobe.com/Variables/1.0/">
	<!ENTITY ns_imrep "http://ns.adobe.com/ImageReplacement/1.0/">
	<!ENTITY ns_sfw "http://ns.adobe.com/SaveForWeb/1.0/">
	<!ENTITY ns_custom "http://ns.adobe.com/GenericCustomNamespace/1.0/">
	<!ENTITY ns_adobe_xpath "http://ns.adobe.com/XPath/1.0/">
]>
<svg version="1.1" id="ic-transaction-staked" xmlns:x="&ns_extend;" xmlns:i="&ns_ai;" xmlns:graph="&ns_graphs;"
	 xmlns="http://www.w3.org/2000/svg" xmlns:xlink="http://www.w3.org/1999/xlink" x="0px" y="0px" viewBox="0 0 24 24"
	 style="enable-background:new 0 0 24 24;" xml:space="preserve">
<style type="text/css">
	.st0{fill-rule:evenodd;clip-rule:evenodd;fill:#B6B6B6;}
	.st1{fill:#B6B6B6;}
</style>
<metadata>
	<sfw  xmlns="&ns_sfw;">
		<slices></slices>
		<sliceSourceBounds  bottomLeftOrigin="true" height="19.473" width="23.565" x="0.218" y="2.264"></sliceSourceBounds>
	</sfw>
</metadata>
<g>
	<path class="st0" d="M23.773,11.647c-0.911-2.146-2.798-4.528-4.497-6.1c-1.315-1.217-2.868-2.199-4.319-3.248
		c-0.14-0.101-0.328,0.031-0.28,0.197l0.374,1.298c0.013,0.046,0.044,0.083,0.086,0.107c0.341,0.191,0.542,0.377,0.851,0.61
		c0.296,0.224,0.673,0.527,0.944,0.783c0.441,0.418,0.567,1.006,0.292,1.559c-0.461,0.927-1.411,1.782-2.097,2.552
		c-1.003,1.127-2.058,2.206-3.127,3.271c-1.069-1.065-2.124-2.144-3.127-3.271c-0.685-0.77-1.636-1.624-2.097-2.552
		C6.502,6.301,6.628,5.712,7.069,5.295c0.271-0.256,0.648-0.56,0.944-0.783c0.308-0.233,0.51-0.42,0.851-0.61
		C8.904,3.878,8.936,3.84,8.949,3.794l0.374-1.298C9.37,2.33,9.182,2.198,9.042,2.299c-1.45,1.049-3.003,2.03-4.319,3.248
		c-1.699,1.572-3.586,3.955-4.497,6.1c-0.083,0.197,0.404-0.301,0.532-0.471C1.725,9.896,3.45,7.921,4.1,7.927
		c0.842,0.007,1.425,0.67,2.005,1.19c1.657,1.484,3.212,3.08,4.74,4.705c-1.037,1.016-2.08,2.026-3.104,3.053
		c-1.101,1.104-2.214,2.198-3.299,3.317c-0.321,0.331-0.315,0.709,0.012,1.032c0.09,0.089,0.18,0.176,0.271,0.264
		c0.351,0.338,0.909,0.332,1.247-0.019c1.099-1.142,2.177-2.291,3.26-3.437c0.928-0.982,1.847-1.977,2.768-2.97
		c0.922,0.994,1.841,1.989,2.768,2.97c1.082,1.146,2.161,2.295,3.26,3.437c0.338,0.351,0.896,0.357,1.247,0.019
		c0.091-0.087,0.182-0.175,0.271-0.264c0.327-0.322,0.333-0.701,0.012-1.032c-1.085-1.12-2.198-2.214-3.299-3.317
		c-1.025-1.027-2.067-2.037-3.104-3.053c1.527-1.625,3.083-3.221,4.74-4.705c0.581-0.52,1.163-1.183,2.005-1.19
		c0.65-0.006,2.375,1.97,3.341,3.249C23.369,11.346,23.856,11.844,23.773,11.647z"/>
	<path class="st1" d="M14.914,6.66h-0.342l0.197-0.196c0.064-0.064,0.064-0.167,0-0.231s-0.167-0.064-0.231,0L14.109,6.66h-0.572
		c0,0,0.429-0.429,0.431-0.431c0.04-0.04,0.064-0.098,0.064-0.154c0-0.1-0.068-0.181-0.159-0.207
		c-0.018-0.007-0.037-0.011-0.062-0.012h-0.616l0.405-0.405h0.605c0.09,0,0.163-0.073,0.163-0.163s-0.073-0.163-0.163-0.163h-0.278
		l0.242-0.242c0.064-0.064,0.064-0.167,0-0.231s-0.167-0.064-0.231,0l-0.242,0.242V4.615c0-0.09-0.073-0.163-0.163-0.163
		s-0.163,0.073-0.163,0.163v0.605l-0.405,0.405c0-0.164,0-0.328,0-0.492c0-0.062,0.012-0.135-0.014-0.193
		c-0.059-0.134-0.249-0.19-0.359-0.08l-0.438,0.438V4.725l0.428-0.428c0.064-0.064,0.064-0.167,0-0.231s-0.167-0.064-0.231,0
		l-0.197,0.197V3.921c0-0.09-0.073-0.163-0.163-0.163s-0.163,0.073-0.163,0.163v0.342l-0.196-0.196
		c-0.064-0.064-0.167-0.064-0.231,0c-0.064,0.064-0.064,0.167,0,0.231l0.427,0.428v0.572l-0.421-0.422
		C11.363,4.83,11.306,4.8,11.241,4.8c-0.114,0-0.22,0.104-0.22,0.221V5.64l-0.404-0.404V4.631c0-0.09-0.073-0.163-0.163-0.163
		s-0.163,0.073-0.163,0.163v0.278l-0.242-0.242c-0.064-0.064-0.167-0.064-0.231,0s-0.064,0.167,0,0.231l0.242,0.242H9.78
		c-0.09,0-0.163,0.073-0.163,0.163S9.69,5.467,9.78,5.467h0.605l0.405,0.405c-0.045,0-0.516,0-0.576,0
		c-0.047,0-0.091,0.001-0.134,0.022C10.007,5.93,9.962,6.005,9.962,6.086c0,0.073,0.042,0.137,0.091,0.187
		c0.034,0.034,0.068,0.069,0.103,0.103c0.076,0.076,0.307,0.307,0.307,0.307H9.891L9.463,6.255c-0.064-0.064-0.167-0.064-0.231,0
		s-0.064,0.167,0,0.231l0.197,0.196H9.086c-0.09,0-0.163,0.073-0.163,0.163S8.996,7.01,9.086,7.01h0.343L9.232,7.206
		c-0.064,0.064-0.064,0.167,0,0.231c0.032,0.032,0.074,0.048,0.116,0.048s0.084-0.016,0.116-0.048L9.891,7.01h0.572
		c-0.114,0.114-0.227,0.227-0.341,0.341c-0.045,0.045-0.102,0.087-0.128,0.145c-0.027,0.059-0.03,0.13-0.002,0.188
		c0.027,0.057,0.072,0.086,0.126,0.113c0.06,0.029,0.144,0.017,0.209,0.017c0.088,0,0.177,0,0.265,0c0.071,0,0.142,0,0.213,0
		l-0.404,0.404H9.796c-0.09,0-0.163,0.073-0.163,0.163s0.073,0.163,0.163,0.163h0.278L9.832,8.788c-0.064,0.064-0.064,0.167,0,0.231
		c0.032,0.032,0.074,0.048,0.116,0.048c0.042,0,0.084-0.016,0.116-0.048l0.242-0.242v0.278c0,0.09,0.073,0.163,0.163,0.163
		s0.163-0.073,0.163-0.163V8.45l0.404-0.404v0.62c0,0.109,0.116,0.204,0.22,0.204c0.102,0,0.165-0.071,0.231-0.137
		c0.066-0.066,0.132-0.132,0.198-0.198c0.038-0.038,0.076-0.076,0.114-0.114c0.007-0.007,0.048-0.038,0.048-0.048v0.572
		l-0.427,0.427c-0.064,0.064-0.064,0.167,0,0.231c0.032,0.032,0.074,0.048,0.116,0.048c0.042,0,0.084-0.016,0.116-0.048l0.196-0.196
		v0.342c0,0.09,0.073,0.163,0.163,0.163s0.163-0.073,0.163-0.163V9.406l0.197,0.196c0.032,0.032,0.074,0.048,0.116,0.048
		c0.042,0,0.084-0.016,0.116-0.048c0.064-0.064,0.064-0.167,0-0.231l-0.428-0.427V8.372c0.105,0.105,0.21,0.21,0.315,0.315
		c0.08,0.08,0.143,0.17,0.267,0.174c0.131,0.003,0.223-0.119,0.222-0.241c-0.001-0.082,0-0.165,0-0.247c0-0.114,0-0.229,0-0.343
		l0.405,0.405v0.605c0,0.09,0.073,0.163,0.163,0.163s0.163-0.073,0.163-0.163V8.76l0.242,0.242c0.032,0.032,0.074,0.048,0.116,0.048
		c0.042,0,0.084-0.016,0.116-0.048c0.064-0.064,0.064-0.167,0-0.231l-0.242-0.242h0.278c0.09,0,0.163-0.073,0.163-0.163
		S14.31,8.202,14.22,8.202h-0.605l-0.404-0.404c0.151,0,0.302,0,0.453,0c0.056,0,0.111,0,0.167,0c0.024,0,0.047-0.006,0.068-0.016
		c0.139-0.064,0.189-0.245,0.075-0.359l-0.436-0.436h0.572l0.428,0.428c0.032,0.032,0.074,0.048,0.116,0.048
		c0.042,0,0.084-0.016,0.116-0.048c0.064-0.064,0.064-0.167,0-0.231l-0.197-0.196h0.342c0.09,0,0.163-0.073,0.163-0.163
		S15.004,6.66,14.914,6.66z M12.152,5.76l0.485-0.484v0.676l-0.328,0.328c-0.049-0.027-0.101-0.049-0.157-0.063V5.76z M11.347,5.282
		l0.478,0.478v0.464C11.77,6.239,11.718,6.261,11.67,6.29l-0.323-0.323V5.282z M10.441,6.198h0.676l0.328,0.328
		c-0.027,0.049-0.049,0.101-0.063,0.156h-0.457L10.441,6.198z M11.132,7.487h-0.685l0.478-0.478h0.464
		c0.016,0.055,0.038,0.107,0.067,0.155L11.132,7.487z M11.848,7.91l-0.485,0.485V7.718l0.328-0.328
		c0.049,0.027,0.101,0.049,0.157,0.063V7.91z M12,7.147c-0.172,0-0.312-0.14-0.312-0.312c0-0.172,0.14-0.312,0.312-0.312
		s0.312,0.14,0.312,0.312C12.312,7.007,12.172,7.147,12,7.147z M12.653,8.387L12.175,7.91V7.446
		c0.055-0.016,0.107-0.038,0.155-0.067l0.323,0.323V8.387z M13.559,7.471h-0.676l-0.328-0.328c0.027-0.049,0.049-0.101,0.063-0.157
		h0.456L13.559,7.471z M13.075,6.66h-0.463c-0.016-0.055-0.038-0.107-0.067-0.155l0.323-0.323h0.685L13.075,6.66z"/>
</g>
</svg>
