<?xml version="1.0" encoding="utf-8"?>
<!-- Generator: Adobe Illustrator 24.0.2, SVG Export Plug-In . SVG Version: 6.00 Build 0)  -->
<svg version="1.1" id="ic-transaction-received" xmlns="http://www.w3.org/2000/svg" xmlns:xlink="http://www.w3.org/1999/xlink"
	 x="0px" y="0px" viewBox="0 0 24 24" style="enable-background:new 0 0 24 24;" xml:space="preserve">
<style type="text/css">
	.st0{opacity:0.57;}
	.st1{fill:url(#SVGID_1_);}
	.st2{fill:url(#SVGID_2_);}
	.st3{fill:#707070;}
</style>
<g>
	<g>
		<g class="st0">
			
				<linearGradient id="SVGID_1_" gradientUnits="userSpaceOnUse" x1="-34.4646" y1="-1331.1063" x2="-34.4646" y2="-1344.0338" gradientTransform="matrix(1 0 0 -1 46.1425 -1328.8895)">
				<stop  offset="1.042300e-02" style="stop-color:#707070;stop-opacity:0"/>
				<stop  offset="0.513" style="stop-color:#707070"/>
			</linearGradient>
			<path class="st1" d="M18.4,2.5L16,6.6c0.9,1,1.4,2.3,1.4,3.7c0,3-2.5,5.5-5.5,5.5s-5.5-2.5-5.5-5.5c0-1.4,0.5-2.7,1.4-3.7
				L5.4,2.5L1,5.1l8.5,14.8c0,0.1,0.1,0.2,0.1,0.2c0.2,0.4,0.5,0.7,0.9,0.9c0,0,0.1,0,0.1,0.1c0,0,0.1,0,0.1,0.1
				c0.1,0,0.2,0.1,0.3,0.1s0.1,0,0.2,0c0.1,0,0.2,0,0.3,0s0.2,0,0.2,0c0.1,0,0.2,0,0.2,0c0.1,0,0.2,0,0.3,0s0.1,0,0.2,0
				c0.1,0,0.2-0.1,0.3-0.1c0,0,0.1,0,0.1-0.1c0,0,0.1,0,0.1-0.1c0.4-0.2,0.7-0.6,0.9-0.9c0-0.1,0.1-0.1,0.1-0.2l8.5-14.8L18.4,2.5z"
				/>
			
				<linearGradient id="SVGID_2_" gradientUnits="userSpaceOnUse" x1="-34.1646" y1="-1331.1057" x2="-34.1646" y2="-1344.0343" gradientTransform="matrix(1 0 0 -1 46.1425 -1328.8895)">
				<stop  offset="1.042300e-02" style="stop-color:#707070;stop-opacity:0"/>
				<stop  offset="0.513" style="stop-color:#707070"/>
			</linearGradient>
			<path class="st2" d="M12,6.5c-2,0-3.7,1.7-3.7,3.7s1.7,3.7,3.7,3.7s3.7-1.7,3.7-3.7S14,6.5,12,6.5z"/>
		</g>
		<g>
			<path class="st3" d="M23.1,4.6L18.7,2c-0.1-0.1-0.3-0.1-0.4-0.1S18,2,18,2.1l-2.4,4.1c-0.1,0.2-0.1,0.5,0.1,0.6
				c0.8,0.9,1.3,2.1,1.3,3.3c0,2.7-2.2,5-5,5c-2.7,0-5-2.2-5-5c0-1.2,0.5-2.4,1.3-3.3c0.2-0.2,0.2-0.4,0.1-0.6L6,2.2
				C5.9,2.1,5.8,2,5.7,2C5.6,2,5.4,2,5.3,2.1L0.9,4.7C0.6,4.8,0.6,5.2,0.7,5.4C1.1,6.2,1.6,7,2,7.8c1,1.7,1.9,3.4,2.9,5.1
				c1,1.7,1.9,3.4,2.9,5.1c0.3,0.6,0.6,1.1,1,1.7c0.3,0.6,0.6,1.3,1.2,1.7c0.4,0.4,1,0.6,1.6,0.7c0.2,0,0.4,0,0.6,0
				c1,0,2.1-0.7,2.5-1.6c0-0.1,0.1-0.1,0.1-0.2l8.5-14.8C23.5,5.1,23.4,4.7,23.1,4.6z M13.9,19.7c-0.3,0.4-0.7,0.8-1.1,1
				c-0.3,0.1-0.6,0.1-1,0.1c-0.5,0-0.9-0.1-1.3-0.4c-0.3-0.3-0.6-0.8-0.8-1.3c-0.1-0.3-0.3-0.5-0.4-0.8c-0.4-0.7-0.8-1.5-1.2-2.2
				c-1.1-1.9-2.1-3.8-3.2-5.6C4,9,3.2,7.5,2.3,6C2.2,5.8,2,5.5,1.9,5.2l3.5-2l1.9,3.3C6.4,7.6,6,8.9,6,10.2c0,3.3,2.7,6,6,6
				s6-2.7,6-6c0-1.4-0.5-2.7-1.3-3.7l1.9-3.3c0,0,3.5,2,3.5,2c-0.7,1.2-1.4,2.4-2,3.6c-1.3,2.3-2.6,4.5-3.9,6.8
				c-0.5,0.9-1,1.8-1.5,2.7C14.4,18.7,14.2,19.2,13.9,19.7z"/>
			<path class="st3" d="M12,14.5c2.3,0,4.2-1.9,4.2-4.2S14.3,6.1,12,6.1S7.8,8,7.8,10.3S9.7,14.5,12,14.5z M12,7.1
				c1.8,0,3.2,1.4,3.2,3.2s-1.4,3.1-3.2,3.1c-1.7,0-3.2-1.4-3.2-3.2S10.3,7.1,12,7.1z"/>
		</g>
	</g>
</g>
</svg>
