<?xml version="1.0" encoding="utf-8"?>
<!-- Generator: Adobe Illustrator 24.1.1, SVG Export Plug-In . SVG Version: 6.00 Build 0)  -->
<!DOCTYPE svg PUBLIC "-//W3C//DTD SVG 1.1//EN" "http://www.w3.org/Graphics/SVG/1.1/DTD/svg11.dtd" [
	<!ENTITY ns_extend "http://ns.adobe.com/Extensibility/1.0/">
	<!ENTITY ns_ai "http://ns.adobe.com/AdobeIllustrator/10.0/">
	<!ENTITY ns_graphs "http://ns.adobe.com/Graphs/1.0/">
	<!ENTITY ns_vars "http://ns.adobe.com/Variables/1.0/">
	<!ENTITY ns_imrep "http://ns.adobe.com/ImageReplacement/1.0/">
	<!ENTITY ns_sfw "http://ns.adobe.com/SaveForWeb/1.0/">
	<!ENTITY ns_custom "http://ns.adobe.com/GenericCustomNamespace/1.0/">
	<!ENTITY ns_adobe_xpath "http://ns.adobe.com/XPath/1.0/">
]>
<svg version="1.1" id="ic-transaction-sent" xmlns:x="&ns_extend;" xmlns:i="&ns_ai;" xmlns:graph="&ns_graphs;"
	 xmlns="http://www.w3.org/2000/svg" xmlns:xlink="http://www.w3.org/1999/xlink" x="0px" y="0px" viewBox="0 0 24 24"
	 style="enable-background:new 0 0 24 24;" xml:space="preserve">
<style type="text/css">
	.st0{opacity:0.57;}
	.st1{fill:url(#SVGID_1_);}
	.st2{fill:url(#SVGID_2_);}
	.st3{fill:#B6B6B6;}
</style>
<metadata>
	<sfw  xmlns="&ns_sfw;">
		<slices></slices>
		<sliceSourceBounds  bottomLeftOrigin="true" height="21.24" width="21.24" x="1.38" y="1.38"></sliceSourceBounds>
	</sfw>
</metadata>
<g>
	<g class="st0">
		
			<linearGradient id="SVGID_1_" gradientUnits="userSpaceOnUse" x1="43.6957" y1="27.4398" x2="43.6957" y2="9.9663" gradientTransform="matrix(-0.7071 -0.7071 -0.7071 0.7071 60.8646 24.9098)">
			<stop  offset="0.0104" style="stop-color:#B6B6B6;stop-opacity:0"/>
			<stop  offset="0.513" style="stop-color:#B6B6B6"/>
		</linearGradient>
		<path class="st1" d="M3.21,11.55l4.62-1.24c0.06-1.34,0.6-2.65,1.62-3.67c2.18-2.18,5.73-2.18,7.91,0s2.18,5.73,0,7.91
			c-1.02,1.02-2.33,1.56-3.67,1.62l-1.24,4.62l5.01,1.34l4.51-16.77c0.33-1.03,0.09-2.18-0.77-2.91c-1-0.84-2.08-0.57-3.21-0.27
			c-0.61,0.17-1.22,0.33-1.82,0.49c-1.89,0.5-3.78,1.02-5.66,1.52C8.56,4.71,6.64,5.24,4.7,5.76c-0.95,0.25-1.9,0.51-2.85,0.77
			L3.21,11.55z"/>
		
			<linearGradient id="SVGID_2_" gradientUnits="userSpaceOnUse" x1="-0.0265" y1="27.4398" x2="-0.0265" y2="9.9663" gradientTransform="matrix(-0.7071 -0.7071 -0.7071 0.7071 -916.7891 940.738)">
			<stop  offset="0.0104" style="stop-color:#B6B6B6;stop-opacity:0"/>
			<stop  offset="0.513" style="stop-color:#B6B6B6"/>
		</linearGradient>
		<path class="st2" d="M10.73,13.26c1.47,1.47,3.85,1.46,5.32-0.01c1.47-1.47,1.47-3.86,0.01-5.32c-1.47-1.47-3.86-1.47-5.33,0
			S9.26,11.79,10.73,13.26z"/>
	</g>
	<g>
		<g>
			<g>
				<path class="st3" d="M21.71,2.28c0.1,0.1,0.19,0.21,0.28,0.33c0.57,0.76,0.76,1.74,0.52,2.65c-0.01,0.05-0.04,0.12-0.06,0.19
					l-4.53,16.82c-0.07,0.25-0.34,0.41-0.59,0.34l-5.01-1.34c-0.12-0.04-0.23-0.11-0.3-0.23c-0.06-0.11-0.08-0.24-0.04-0.37
					l1.24-4.62c0.06-0.2,0.23-0.35,0.45-0.36c1.27-0.06,2.45-0.59,3.34-1.48c1.99-1.99,1.99-5.23,0.01-7.22
					C15.02,5,11.79,5,9.79,6.99C8.9,7.88,8.38,9.07,8.31,10.33c-0.01,0.21-0.15,0.39-0.36,0.45l-4.62,1.24
					c-0.12,0.04-0.25,0.01-0.37-0.04c-0.11-0.06-0.2-0.17-0.23-0.3L1.4,6.67C1.33,6.42,1.48,6.15,1.74,6.08L18.5,1.56
					c0.13-0.04,0.19-0.06,0.25-0.08C19.83,1.21,20.94,1.51,21.71,2.28z M20.29,2.5c-0.69-0.23-1.44-0.04-2.18,0.16
					c-0.62,0.16-1.24,0.33-1.85,0.49c-1.9,0.51-3.79,1.02-5.69,1.53C8.68,5.19,6.79,5.7,4.91,6.2C4.09,6.42,3.27,6.64,2.45,6.86
					l1.09,4.07l3.83-1.03C7.51,8.53,8.12,7.26,9.1,6.28c2.37-2.37,6.22-2.36,8.59,0.01s2.37,6.22,0,8.58
					c-0.98,0.98-2.26,1.59-3.63,1.73l-1.03,3.83l4.08,1.1c0.24-0.89,0.48-1.78,0.72-2.67c0.52-1.93,1.04-3.87,1.56-5.8
					c0.5-1.87,1.01-3.75,1.51-5.63c0.14-0.52,0.28-1.06,0.42-1.58c0.27-1,0.54-2-0.28-2.86C20.81,2.75,20.55,2.59,20.29,2.5z"/>
			</g>
		</g>
		<g>
			<path class="st3" d="M16.4,7.59c1.65,1.65,1.65,4.36,0,6.01c-1.65,1.65-4.36,1.65-6.01,0s-1.65-4.36,0-6.01S14.75,5.94,16.4,7.59
				z M11.07,12.92c1.28,1.28,3.36,1.28,4.64,0s1.28-3.36,0-4.64s-3.36-1.28-4.64,0S9.79,11.64,11.07,12.92z"/>
		</g>
	</g>
</g>
</svg>
