<?xml version="1.0" encoding="utf-8"?>
<!-- Generator: Adobe Illustrator 24.1.1, SVG Export Plug-In . SVG Version: 6.00 Build 0)  -->
<!DOCTYPE svg PUBLIC "-//W3C//DTD SVG 1.1//EN" "http://www.w3.org/Graphics/SVG/1.1/DTD/svg11.dtd" [
	<!ENTITY ns_extend "http://ns.adobe.com/Extensibility/1.0/">
	<!ENTITY ns_ai "http://ns.adobe.com/AdobeIllustrator/10.0/">
	<!ENTITY ns_graphs "http://ns.adobe.com/Graphs/1.0/">
	<!ENTITY ns_vars "http://ns.adobe.com/Variables/1.0/">
	<!ENTITY ns_imrep "http://ns.adobe.com/ImageReplacement/1.0/">
	<!ENTITY ns_sfw "http://ns.adobe.com/SaveForWeb/1.0/">
	<!ENTITY ns_custom "http://ns.adobe.com/GenericCustomNamespace/1.0/">
	<!ENTITY ns_adobe_xpath "http://ns.adobe.com/XPath/1.0/">
]>
<svg version="1.1" id="ic-transaction-staked" xmlns:x="&ns_extend;" xmlns:i="&ns_ai;" xmlns:graph="&ns_graphs;"
	 xmlns="http://www.w3.org/2000/svg" xmlns:xlink="http://www.w3.org/1999/xlink" x="0px" y="0px" viewBox="0 0 24 24"
	 style="enable-background:new 0 0 24 24;" xml:space="preserve">
<style type="text/css">
	.st0{opacity:0.57;}
	.st1{fill:url(#SVGID_1_);}
	.st2{fill:url(#SVGID_2_);}
	.st3{fill:#707070;}
	.st4{fill:url(#SVGID_3_);}
	.st5{fill:url(#SVGID_4_);}
</style>
<metadata>
	<sfw  xmlns="&ns_sfw;">
		<slices></slices>
		<sliceSourceBounds  bottomLeftOrigin="true" height="22" width="19.98" x="2.01" y="1"></sliceSourceBounds>
	</sfw>
</metadata>
<g>
	<g>
		<g>
			<g>
				<g>
					<g class="st0">
						
							<linearGradient id="SVGID_1_" gradientUnits="userSpaceOnUse" x1="396.1621" y1="128.7624" x2="396.1621" y2="121.1103" gradientTransform="matrix(6.123234e-17 1 1 -6.123234e-17 -107.0745 -384.3571)">
							<stop  offset="0.0104" style="stop-color:#707070;stop-opacity:0"/>
							<stop  offset="0.513" style="stop-color:#707070"/>
						</linearGradient>
						<path class="st1" d="M21.75,14.95l-2-1.15c-0.48,0.43-1.11,0.7-1.8,0.7c-1.49,0-2.7-1.21-2.7-2.7s1.21-2.7,2.7-2.7
							c0.69,0,1.33,0.27,1.8,0.7l2-1.15L20.5,6.49l-7.26,4.18c-0.46,0.24-0.78,0.71-0.73,1.25c0.05,0.63,0.52,0.9,1,1.19
							c0.27,0.15,0.53,0.3,0.79,0.45c0.81,0.47,1.63,0.94,2.45,1.41c0.83,0.48,1.67,0.96,2.51,1.44c0.41,0.24,0.82,0.47,1.23,0.71
							L21.75,14.95z"/>
						
							<linearGradient id="SVGID_2_" gradientUnits="userSpaceOnUse" x1="352.4449" y1="-1209.9119" x2="352.4449" y2="-1216.2467" gradientTransform="matrix(6.123234e-17 1 1 -6.123234e-17 1231.8195 -340.6399)">
							<stop  offset="0.0104" style="stop-color:#707070;stop-opacity:0"/>
							<stop  offset="0.513" style="stop-color:#707070"/>
						</linearGradient>
						<path class="st2" d="M19.77,11.8c0-1-0.81-1.81-1.82-1.81s-1.82,0.81-1.82,1.81s0.81,1.82,1.82,1.82S19.77,12.81,19.77,11.8z"
							/>
					</g>
					<g>
						<g>
							<g>
								<path class="st3" d="M12.28,11.8c0-0.07,0-0.14,0.01-0.21c0.06-0.45,0.33-0.85,0.73-1.08c0.02-0.01,0.05-0.03,0.09-0.04
									l7.28-4.19c0.11-0.06,0.26-0.02,0.32,0.09l1.25,2.16c0.03,0.05,0.04,0.12,0.02,0.18c-0.01,0.06-0.05,0.11-0.11,0.14l-2,1.15
									c-0.09,0.05-0.2,0.04-0.27-0.03c-0.45-0.41-1.04-0.64-1.64-0.64c-1.36,0-2.46,1.1-2.46,2.46s1.1,2.46,2.46,2.46
									c0.61,0,1.19-0.23,1.64-0.64c0.08-0.07,0.18-0.08,0.27-0.03l2,1.15c0.05,0.03,0.09,0.08,0.11,0.14
									c0.01,0.06,0.01,0.13-0.02,0.18l-1.25,2.16c-0.06,0.11-0.21,0.15-0.32,0.09l-7.26-4.18c-0.06-0.03-0.09-0.04-0.12-0.06
									C12.56,12.81,12.28,12.33,12.28,11.8z M12.84,12.21c0.15,0.31,0.48,0.5,0.8,0.69c0.27,0.15,0.54,0.31,0.8,0.46
									c0.82,0.47,1.64,0.95,2.46,1.42c0.81,0.47,1.63,0.94,2.45,1.41c0.35,0.2,0.71,0.41,1.06,0.61l1.02-1.76l-1.65-0.95
									c-0.52,0.42-1.16,0.65-1.83,0.65c-1.62,0-2.93-1.32-2.93-2.93s1.31-2.93,2.93-2.93c0.67,0,1.31,0.23,1.83,0.65l1.65-0.95
									l-1.02-1.76c-0.39,0.22-0.77,0.44-1.16,0.67c-0.83,0.48-1.67,0.96-2.51,1.45c-0.81,0.47-1.62,0.94-2.43,1.4
									c-0.23,0.13-0.46,0.27-0.68,0.4c-0.43,0.25-0.87,0.5-0.88,1.07C12.75,11.95,12.78,12.09,12.84,12.21z"/>
							</g>
						</g>
						<g>
							<path class="st3" d="M15.9,11.8c0-1.13,0.92-2.05,2.05-2.05S20,10.67,20,11.8s-0.92,2.05-2.05,2.05S15.9,12.93,15.9,11.8z
								 M19.54,11.8c0-0.87-0.71-1.58-1.58-1.58s-1.58,0.71-1.58,1.58s0.71,1.58,1.58,1.58C18.83,13.38,19.54,12.68,19.54,11.8z"/>
						</g>
					</g>
				</g>
			</g>
			<g>
				<g>
					<g class="st0">
						
							<linearGradient id="SVGID_3_" gradientUnits="userSpaceOnUse" x1="396.1671" y1="-1084.1511" x2="396.1671" y2="-1091.8032" gradientTransform="matrix(-4.489665e-11 1 -1 -4.489665e-11 -1081.839 -384.3571)">
							<stop  offset="0.0104" style="stop-color:#707070;stop-opacity:0"/>
							<stop  offset="0.513" style="stop-color:#707070"/>
						</linearGradient>
						<path class="st4" d="M3.5,17.13c0.41-0.24,0.82-0.47,1.23-0.71c0.84-0.48,1.67-0.96,2.51-1.44c0.81-0.47,1.63-0.94,2.45-1.41
							c0.27-0.15,0.53-0.3,0.79-0.45c0.49-0.28,0.95-0.56,1-1.19c0.05-0.54-0.27-1.01-0.73-1.25L3.5,6.49L2.25,8.65l2,1.15
							c0.48-0.43,1.11-0.7,1.8-0.7c1.49,0,2.7,1.21,2.7,2.7s-1.21,2.7-2.7,2.7c-0.69,0-1.33-0.27-1.8-0.7l-2,1.15L3.5,17.13z"/>
						
							<linearGradient id="SVGID_4_" gradientUnits="userSpaceOnUse" x1="352.4449" y1="-2422.8252" x2="352.4449" y2="-2429.1602" gradientTransform="matrix(-4.489665e-11 1 -1 -4.489665e-11 -2420.7329 -340.6399)">
							<stop  offset="0.0104" style="stop-color:#707070;stop-opacity:0"/>
							<stop  offset="0.513" style="stop-color:#707070"/>
						</linearGradient>
						<path class="st5" d="M6.05,13.62c1,0,1.82-0.81,1.82-1.82c0-1-0.81-1.81-1.82-1.81S4.23,10.8,4.23,11.8S5.05,13.62,6.05,13.62
							z"/>
					</g>
					<g>
						<g>
							<g>
								<path class="st3" d="M10.99,13.09c-0.03,0.01-0.06,0.03-0.12,0.06l-7.26,4.18c-0.11,0.06-0.26,0.02-0.32-0.09l-1.25-2.16
									C2.01,15.03,2,14.96,2.02,14.9c0.02-0.06,0.06-0.11,0.11-0.14l2-1.15c0.09-0.05,0.2-0.04,0.27,0.03
									c0.45,0.41,1.04,0.64,1.64,0.64c1.36,0,2.46-1.1,2.46-2.46c0-1.35-1.1-2.46-2.46-2.46C5.43,9.36,4.85,9.59,4.4,10
									c-0.08,0.07-0.19,0.08-0.27,0.03l-2-1.15C2.07,8.85,2.03,8.8,2.02,8.74s0-0.13,0.02-0.18L3.3,6.37
									c0.06-0.11,0.2-0.15,0.32-0.09l7.28,4.19c0.03,0.01,0.07,0.03,0.09,0.04c0.4,0.23,0.67,0.63,0.73,1.08
									c0.01,0.07,0.01,0.14,0.01,0.21C11.72,12.33,11.44,12.81,10.99,13.09z M11.25,11.79c-0.01-0.57-0.44-0.82-0.88-1.07
									c-0.23-0.13-0.46-0.27-0.68-0.4c-0.81-0.47-1.62-0.94-2.43-1.4C6.42,8.44,5.58,7.95,4.75,7.47
									C4.36,7.25,3.98,7.03,3.59,6.81L2.57,8.57l1.65,0.95C4.74,9.1,5.38,8.87,6.05,8.87c1.62,0,2.93,1.31,2.93,2.93
									s-1.31,2.93-2.93,2.93c-0.67,0-1.31-0.23-1.83-0.65l-1.65,0.95l1.02,1.76c0.35-0.2,0.71-0.41,1.06-0.61
									c0.81-0.47,1.63-0.94,2.45-1.41s1.64-0.95,2.46-1.42c0.27-0.15,0.54-0.31,0.8-0.46c0.32-0.19,0.65-0.38,0.8-0.69
									C11.22,12.09,11.25,11.95,11.25,11.79z"/>
							</g>
						</g>
						<g>
							<path class="st3" d="M6.05,13.85C4.92,13.85,4,12.93,4,11.8s0.92-2.05,2.05-2.05S8.1,10.67,8.1,11.8S7.18,13.85,6.05,13.85z
								 M6.05,13.38c0.87,0,1.58-0.71,1.58-1.58s-0.71-1.58-1.58-1.58s-1.59,0.71-1.59,1.58C4.46,12.68,5.17,13.38,6.05,13.38z"/>
						</g>
					</g>
				</g>
			</g>
		</g>
		<g>
			<path class="st3" d="M6.55,8.44c0.04,0.02,0.07,0.03,0.11,0.05C6.68,8.5,6.8,8.55,6.71,8.51C6.63,8.48,6.75,8.53,6.77,8.54
				c0.04,0.02,0.08,0.03,0.11,0.05c0.08,0.03,0.15,0.06,0.23,0.09c0.15,0.05,0.3,0.11,0.45,0.16l0,0C8.53,7.4,10.15,6.46,12,6.46
				c1.81,0,3.4,0.91,4.37,2.28c0.33-0.23,0.7-0.39,1.06-0.56C16.26,6.43,14.26,5.27,12,5.27c-2.35,0-4.4,1.25-5.55,3.12
				C6.48,8.41,6.51,8.42,6.55,8.44z"/>
			<path class="st3" d="M17.3,15.36c-0.17-0.07-0.34-0.14-0.5-0.21s-0.32-0.15-0.48-0.24c-0.97,1.34-2.54,2.23-4.32,2.23
				c-1.86,0-3.48-0.98-4.43-2.43c-0.22,0.07-0.44,0.15-0.66,0.22C6.89,14.95,6.87,14.98,6.85,15c0.01-0.01,0,0,0.01-0.01
				c0,0,0,0,0-0.01c0.02-0.03,0.06-0.06,0,0.01c-0.01,0.02-0.02,0.03-0.04,0.05c-0.06,0.08-0.11,0.17-0.15,0.26
				c-0.02,0.05-0.06,0.08-0.09,0.11c1.17,1.75,3.17,2.91,5.43,2.91s4.26-1.16,5.43-2.91C17.39,15.39,17.34,15.38,17.3,15.36z"/>
		</g>
	</g>
	<g>
		<path class="st3" d="M5.11,6.22C6.76,4.26,9.24,3,12,3c2.7,0,5.12,1.2,6.77,3.09l1.75-1.04C18.51,2.58,15.44,1,12,1
			C8.5,1,5.39,2.65,3.37,5.2L5.11,6.22z"/>
		<path class="st3" d="M19.08,17.54C17.43,19.64,14.87,21,12,21c-2.93,0-5.54-1.42-7.18-3.6l-1.73,1.02C5.08,21.19,8.33,23,12,23
			c3.61,0,6.8-1.75,8.81-4.44L19.08,17.54z"/>
	</g>
</g>
</svg>
