<?xml version="1.0" encoding="utf-8"?>
<!-- Generator: Adobe Illustrator 24.1.1, SVG Export Plug-In . SVG Version: 6.00 Build 0)  -->
<!DOCTYPE svg PUBLIC "-//W3C//DTD SVG 1.1//EN" "http://www.w3.org/Graphics/SVG/1.1/DTD/svg11.dtd" [
	<!ENTITY ns_extend "http://ns.adobe.com/Extensibility/1.0/">
	<!ENTITY ns_ai "http://ns.adobe.com/AdobeIllustrator/10.0/">
	<!ENTITY ns_graphs "http://ns.adobe.com/Graphs/1.0/">
	<!ENTITY ns_vars "http://ns.adobe.com/Variables/1.0/">
	<!ENTITY ns_imrep "http://ns.adobe.com/ImageReplacement/1.0/">
	<!ENTITY ns_sfw "http://ns.adobe.com/SaveForWeb/1.0/">
	<!ENTITY ns_custom "http://ns.adobe.com/GenericCustomNamespace/1.0/">
	<!ENTITY ns_adobe_xpath "http://ns.adobe.com/XPath/1.0/">
]>
<svg version="1.1" id="ic-transaction-staked" xmlns:x="&ns_extend;" xmlns:i="&ns_ai;" xmlns:graph="&ns_graphs;"
	 xmlns="http://www.w3.org/2000/svg" xmlns:xlink="http://www.w3.org/1999/xlink" x="0px" y="0px" viewBox="0 0 24 24"
	 style="enable-background:new 0 0 24 24;" xml:space="preserve">
<style type="text/css">
	.st0{fill:#FFFFFF;}
	.st1{fill-rule:evenodd;clip-rule:evenodd;fill:#707070;}
	.st2{fill:#707070;}
</style>
<metadata>
	<sfw  xmlns="&ns_sfw;">
		<slices></slices>
		<sliceSourceBounds  bottomLeftOrigin="true" height="19.68" width="21.11" x="1.45" y="2.16"></sliceSourceBounds>
	</sfw>
</metadata>
<g>
	<path class="st0" d="M18.3,13L18.3,13L18.3,13z"/>
</g>
<g>
	<path class="st1" d="M3.69,6.02c-0.1-0.11-0.17-0.2-0.23-0.28C3.25,5.49,3.27,5.16,3.49,4.93c0.13-0.13,0.28-0.27,0.42-0.4
		C4.16,4.3,4.48,4.3,4.73,4.52C4.81,4.58,4.9,4.66,4.98,4.73c0.88-0.7,1.87-1.19,2.82-1.78c0.37-0.23,0.75-0.46,1.13-0.69
		C9.18,2.12,9.42,2.14,9.6,2.33C9.78,2.51,9.79,2.76,9.62,3C8.87,4.07,8.11,5.13,7.36,6.2c-0.1,0.11-0.2,0.21-0.29,0.33
		c-0.02,0.02-0.02,0.11,0,0.13c0.13,0.19,0.3,0.36,0.41,0.55C7.9,7.88,8.47,8.43,9.03,8.98c0.88,0.88,1.76,1.76,2.64,2.64
		c0.31,0.31,0.32,0.32,0.64,0.01c1.22-1.22,2.43-2.44,3.64-3.67c0.1-0.1,0.17-0.21,0.25-0.32c0.26-0.36,0.5-0.7,0.75-1.04
		C16.1,5.41,15.24,4.2,14.4,3c-0.17-0.23-0.17-0.49,0-0.67c0.17-0.19,0.42-0.22,0.68-0.08c1.12,0.67,2.22,1.33,3.33,2.01
		c0.19,0.11,0.36,0.26,0.52,0.4c0.08,0.07,0.12,0.07,0.19,0c0.14-0.13,0.29-0.28,0.5-0.3c0.17-0.01,0.32,0.03,0.45,0.16
		c0.14,0.13,0.29,0.28,0.43,0.41c0.23,0.23,0.25,0.56,0.03,0.81c-0.22,0.27-0.21,0.27,0.03,0.51c0.59,0.57,1.17,1.14,1.76,1.71
		c0.3,0.29,0.31,0.65,0.03,0.95c-0.33,0.36-0.67,0.7-1,1.05c-0.26,0.27-0.64,0.27-0.91,0.01c-0.6-0.58-1.2-1.16-1.81-1.75
		c-0.04-0.04-0.09-0.08-0.11-0.1c-0.78,0.64-1.58,1.23-2.25,1.96c-0.89,0.98-1.83,1.93-2.74,2.89c-0.06,0.07-0.11,0.13-0.18,0.21
		c0.12,0.11,0.25,0.22,0.36,0.33c0.81,0.83,1.63,1.65,2.44,2.48c0.46,0.46,0.89,0.94,1.35,1.41c0.87,0.89,1.73,1.78,2.6,2.68
		c0.35,0.36,0.33,0.76-0.01,1.12c-0.14,0.14-0.29,0.28-0.43,0.41c-0.33,0.31-0.75,0.31-1.07-0.01c-1.55-1.61-3.1-3.2-4.65-4.81
		c-0.65-0.67-1.29-1.35-1.94-2.04c-0.01,0.01-0.03,0.02-0.06,0.04c-1.13,1.18-2.24,2.36-3.37,3.53c-1.04,1.08-2.07,2.14-3.11,3.21
		c-0.37,0.38-0.77,0.39-1.15,0.02c-0.13-0.12-0.26-0.26-0.39-0.38c-0.36-0.35-0.36-0.75-0.01-1.1c0.89-0.91,1.77-1.84,2.67-2.75
		c1.07-1.1,2.13-2.21,3.21-3.3c0.23-0.25,0.49-0.46,0.74-0.69c0.04-0.04,0.09-0.09,0.16-0.14c-0.39-0.42-0.76-0.85-1.14-1.25
		c-0.85-0.88-1.71-1.75-2.56-2.62C6.75,9.1,6.48,8.93,6.25,8.73c-0.26-0.2-0.51-0.4-0.78-0.62c-0.02,0.02-0.07,0.06-0.1,0.1
		C4.78,8.78,4.19,9.35,3.59,9.92c-0.31,0.3-0.68,0.3-0.98,0C2.29,9.59,1.98,9.27,1.67,8.94c-0.31-0.32-0.3-0.69,0.02-1
		c0.63-0.63,1.27-1.24,1.9-1.85C3.62,6.07,3.65,6.04,3.69,6.02z"/>
	<path class="st2" d="M14.12,6.3c-0.11-0.23-0.21-0.48-0.41-0.65c-0.03-0.02-0.05-0.04-0.08-0.05c-0.04-0.01-0.07,0.01-0.06,0.09
		c0,0.05,0.01,0.11,0.02,0.16c0.03,0.13,0.05,0.27,0.05,0.4c0.01,0.25-0.04,0.61-0.37,0.6c-0.26-0.01-0.49-0.22-0.52-0.47
		c-0.04-0.32,0.22-0.58,0.36-0.85c0.61-1.15,0.29-2.14-0.8-2.83c-0.18-0.12-0.13,0.07-0.08,0.16c0.06,0.1,0.11,0.21,0.13,0.33
		c0.03,0.23-0.07,0.46-0.21,0.64c-0.24,0.32-0.52,0.62-0.79,0.92c-0.17,0.18-0.3,0.4-0.51,0.55c-0.22,0.15-0.28,0-0.23-0.21
		c0.03-0.11,0.07-0.22,0.13-0.32c0.05-0.09,0.11-0.28-0.08-0.16c-0.55,0.35-0.89,1-0.97,1.63c-0.08,0.7-0.04,1.5,0.33,2.12
		c0.32,0.54,0.87,0.96,1.5,1.07c1,0.18,2.15-0.23,2.56-1.21C14.37,7.58,14.42,6.94,14.12,6.3z"/>
</g>
</svg>
