<?xml version="1.0" encoding="utf-8"?>
<!-- Generator: Adobe Illustrator 24.0.2, SVG Export Plug-In . SVG Version: 6.00 Build 0)  -->
<svg version="1.1" id="ic-transaction-staked" xmlns="http://www.w3.org/2000/svg" xmlns:xlink="http://www.w3.org/1999/xlink"
	 x="0px" y="0px" viewBox="0 0 24 24" style="enable-background:new 0 0 24 24;" xml:space="preserve">
<style type="text/css">
	.st0{fill-rule:evenodd;clip-rule:evenodd;fill:#707070;}
</style>
<path class="st0" d="M3.7,6C3.6,5.9,3.5,5.9,3.5,5.8C3.3,5.5,3.3,5.2,3.5,5c0.1-0.1,0.3-0.3,0.4-0.4c0.3-0.2,0.6-0.2,0.8,0
	c0.1,0.1,0.2,0.1,0.2,0.2C5.8,4.1,6.8,3.6,7.8,3C8.2,2.8,8.6,2.5,9,2.3c0.2-0.2,0.5-0.2,0.7,0c0.2,0.2,0.2,0.4,0,0.7
	C8.9,4.1,8.2,5.1,7.4,6.2C7.3,6.3,7.2,6.4,7.1,6.6v0.1c0.1,0.2,0.3,0.4,0.4,0.6c0.4,0.7,1,1.2,1.6,1.8c0.9,0.9,1.8,1.8,2.7,2.7
	c0.3,0.3,0.3,0.3,0.6,0c1.2-1.2,2.5-2.5,3.7-3.7c0.1-0.1,0.2-0.2,0.3-0.3c0.3-0.4,0.5-0.7,0.8-1.1c-0.9-1.2-1.7-2.4-2.6-3.6
	c-0.2-0.2-0.2-0.5,0-0.7c0.1-0.3,0.3-0.3,0.6-0.2c1.1,0.7,2.3,1.3,3.4,2c0.2,0.1,0.4,0.3,0.5,0.4s0.1,0.1,0.2,0s0.3-0.3,0.5-0.3
	s0.3,0,0.4,0.2c0.1,0.1,0.3,0.3,0.4,0.4c0.2,0.2,0.2,0.6,0,0.8c-0.2,0.3-0.2,0.3,0,0.5c0.6,0.6,1.2,1.1,1.8,1.7c0.3,0.3,0.3,0.7,0,1
	c-0.3,0.4-0.7,0.7-1,1.1c-0.3,0.3-0.6,0.3-0.9,0c-0.6-0.6-1.2-1.2-1.8-1.8l-0.1-0.1c-0.8,0.6-1.6,1.2-2.3,2c-0.9,1-1.9,2-2.8,2.9
	c-0.1,0.1-0.1,0.1-0.2,0.2c0.1,0.1,0.2,0.2,0.4,0.3c0.8,0.8,1.7,1.7,2.5,2.5c0.5,0.5,0.9,0.9,1.4,1.4c0.9,0.9,1.8,1.8,2.6,2.7
	c0.3,0.4,0.3,0.8,0,1.1c-0.1,0.1-0.3,0.3-0.4,0.4c-0.3,0.3-0.8,0.3-1.1,0c-1.6-1.6-3.1-3.2-4.7-4.9c-0.7-0.7-1.3-1.4-2-2.1
	c0,0,0,0-0.1,0c-1.1,1.2-2.3,2.4-3.4,3.6c-1,1.1-2.1,2.2-3.1,3.3c-0.4,0.4-0.8,0.4-1.2,0c-0.1-0.1-0.3-0.3-0.4-0.4
	c-0.4-0.3-0.4-0.8,0-1.1c0.9-0.9,1.8-1.9,2.7-2.8c1.1-1.1,2.2-2.2,3.2-3.3c0.2-0.2,0.5-0.5,0.7-0.7c0,0,0.1-0.1,0.2-0.1
	c-0.4-0.4-0.8-0.9-1.2-1.3C8.7,11.1,7.9,10.3,7,9.4C6.8,9.2,6.5,9,6.3,8.8C6,8.6,5.8,8.4,5.5,8.2L5.4,8.3C4.8,8.8,4.2,9.4,3.6,10
	c-0.3,0.3-0.7,0.3-1,0S2,9.3,1.6,9c-0.3-0.3-0.3-0.7,0-1C2.3,7.4,2.9,6.7,3.7,6C3.6,6.1,3.6,6.1,3.7,6z"/>
</svg>
