<?xml version="1.0" encoding="utf-8"?>
<!-- Generator: Adobe Illustrator 24.1.1, SVG Export Plug-In . SVG Version: 6.00 Build 0)  -->
<!DOCTYPE svg PUBLIC "-//W3C//DTD SVG 1.1//EN" "http://www.w3.org/Graphics/SVG/1.1/DTD/svg11.dtd" [
	<!ENTITY ns_extend "http://ns.adobe.com/Extensibility/1.0/">
	<!ENTITY ns_ai "http://ns.adobe.com/AdobeIllustrator/10.0/">
	<!ENTITY ns_graphs "http://ns.adobe.com/Graphs/1.0/">
	<!ENTITY ns_vars "http://ns.adobe.com/Variables/1.0/">
	<!ENTITY ns_imrep "http://ns.adobe.com/ImageReplacement/1.0/">
	<!ENTITY ns_sfw "http://ns.adobe.com/SaveForWeb/1.0/">
	<!ENTITY ns_custom "http://ns.adobe.com/GenericCustomNamespace/1.0/">
	<!ENTITY ns_adobe_xpath "http://ns.adobe.com/XPath/1.0/">
]>
<svg version="1.1" id="Layer_1" xmlns:x="&ns_extend;" xmlns:i="&ns_ai;" xmlns:graph="&ns_graphs;"
	 xmlns="http://www.w3.org/2000/svg" xmlns:xlink="http://www.w3.org/1999/xlink" x="0px" y="0px" viewBox="0 0 24 24"
	 style="enable-background:new 0 0 24 24;" xml:space="preserve">
<style type="text/css">
	.st0{fill:none;}
	.st1{fill:#00D3D5;}
</style>
<metadata>
	<sfw  xmlns="&ns_sfw;">
		<slices></slices>
		<sliceSourceBounds  bottomLeftOrigin="true" height="20" width="20" x="2" y="2"></sliceSourceBounds>
	</sfw>
</metadata>
<g id="ic-update" transform="translate(2.000000, 2.000000)">
	<polygon id="Rectangle_4642" class="st0" points="0,0 20,0 20,20 0,20 	"/>
	<path class="st1" d="M18,7.6C18,7.6,18,7.6,18,7.6l0-3.7c0-0.6-0.5-1.1-1.1-1.1s-1.1,0.5-1.1,1.1V4c-1.5-1.4-3.5-2.2-5.6-2.2
		C5.7,1.7,2,5.4,2,10c0,4.6,3.7,8.3,8.3,8.3c2.2,0,4.3-0.9,5.8-2.4c0.4-0.4,0.4-1.1,0-1.6c-0.4-0.4-1.1-0.4-1.6,0
		c-1.1,1.1-2.7,1.8-4.3,1.8c-3.3,0-6-2.7-6-6s2.7-6,6-6c2,0,3.8,1,4.9,2.5H14c-0.6,0-1.1,0.5-1.1,1.1s0.5,1.1,1.1,1.1h3
		c0.1,0,0.3,0,0.4-0.1c0,0,0,0,0.1,0c0.1-0.1,0.2-0.1,0.3-0.2c0,0,0,0,0,0c0,0,0.1-0.1,0.1-0.1c0-0.1,0.1-0.1,0.1-0.2c0,0,0,0,0,0
		C18,7.9,18,7.7,18,7.6z"/>
</g>
</svg>
