<?xml version="1.0" encoding="utf-8"?>
<!-- Generator: Adobe Illustrator 24.1.1, SVG Export Plug-In . SVG Version: 6.00 Build 0)  -->
<!DOCTYPE svg PUBLIC "-//W3C//DTD SVG 1.1//EN" "http://www.w3.org/Graphics/SVG/1.1/DTD/svg11.dtd" [
	<!ENTITY ns_extend "http://ns.adobe.com/Extensibility/1.0/">
	<!ENTITY ns_ai "http://ns.adobe.com/AdobeIllustrator/10.0/">
	<!ENTITY ns_graphs "http://ns.adobe.com/Graphs/1.0/">
	<!ENTITY ns_vars "http://ns.adobe.com/Variables/1.0/">
	<!ENTITY ns_imrep "http://ns.adobe.com/ImageReplacement/1.0/">
	<!ENTITY ns_sfw "http://ns.adobe.com/SaveForWeb/1.0/">
	<!ENTITY ns_custom "http://ns.adobe.com/GenericCustomNamespace/1.0/">
	<!ENTITY ns_adobe_xpath "http://ns.adobe.com/XPath/1.0/">
]>
<svg version="1.1" id="ic_unlock_staking" xmlns:x="&ns_extend;" xmlns:i="&ns_ai;" xmlns:graph="&ns_graphs;"
	 xmlns="http://www.w3.org/2000/svg" xmlns:xlink="http://www.w3.org/1999/xlink" x="0px" y="0px" viewBox="0 0 24 24"
	 style="enable-background:new 0 0 24 24;" xml:space="preserve">
<style type="text/css">
	.st0{fill:none;}
	.st1{fill:#FFFFFF;}
</style>
<metadata>
	<sfw  xmlns="&ns_sfw;">
		<slices></slices>
		<sliceSourceBounds  bottomLeftOrigin="true" height="24" width="24" x="0" y="0"></sliceSourceBounds>
	</sfw>
</metadata>
<path id="Rectangle_4445" class="st0" d="M0,0h24v24H0V0z"/>
<path class="st1" d="M20,11.9l0.4-0.4c0.4-0.4,0.4-1.1,0-1.6c-0.4-0.4-1.1-0.4-1.6,0l-0.3,0.3c-1.3-1.1-2.9-1.8-4.6-2.1c0,0,0,0,0,0
	c-0.2,0-0.4-0.1-0.5-0.1H5.6V7.3c0-1.5,0.9-2.8,2.2-3.1c1.5-0.4,3,0.4,3.6,1.8c0.1,0.2,0.4,0.4,0.7,0.5c0.3,0.1,0.5,0,0.7-0.1
	c0.5-0.2,0.8-0.8,0.5-1.4c-1-2.2-3.4-3.4-5.8-3C5.1,2.4,3.3,4.7,3.3,7.3v0.8C2.4,8.3,1.8,9,1.8,9.9v6.6c0,1,0.8,1.9,1.9,1.9h4.6
	l2.1-2.1H4.1v-6h9v3.4l2.2-2.2l0-0.7c0.6,0.3,1.2,0.6,1.7,1l-8.4,8.4c-0.4,0.4-0.4,1.1,0,1.6C8.7,22,9,22.1,9.3,22.1
	s0.6-0.1,0.8-0.3l8.4-8.4c0.9,1.3,1.5,2.8,1.5,4.5c0,0.1,0,0.3,0,0.4c0,0.6,0.4,1.1,1.1,1.2c0,0,0,0,0.1,0c0.6,0,1.1-0.5,1.1-1.1
	c0-0.2,0-0.3,0-0.5C22.2,15.7,21.4,13.6,20,11.9z"/>
</svg>
