<?xml version="1.0" encoding="utf-8"?>
<!-- Generator: Adobe Illustrator 24.2.1, SVG Export Plug-In . SVG Version: 6.00 Build 0)  -->
<!DOCTYPE svg PUBLIC "-//W3C//DTD SVG 1.1//EN" "http://www.w3.org/Graphics/SVG/1.1/DTD/svg11.dtd" [
	<!ENTITY ns_extend "http://ns.adobe.com/Extensibility/1.0/">
	<!ENTITY ns_ai "http://ns.adobe.com/AdobeIllustrator/10.0/">
	<!ENTITY ns_graphs "http://ns.adobe.com/Graphs/1.0/">
	<!ENTITY ns_vars "http://ns.adobe.com/Variables/1.0/">
	<!ENTITY ns_imrep "http://ns.adobe.com/ImageReplacement/1.0/">
	<!ENTITY ns_sfw "http://ns.adobe.com/SaveForWeb/1.0/">
	<!ENTITY ns_custom "http://ns.adobe.com/GenericCustomNamespace/1.0/">
	<!ENTITY ns_adobe_xpath "http://ns.adobe.com/XPath/1.0/">
]>
<svg version="1.1" id="ic_locked" xmlns:x="&ns_extend;" xmlns:i="&ns_ai;" xmlns:graph="&ns_graphs;"
	 xmlns="http://www.w3.org/2000/svg" xmlns:xlink="http://www.w3.org/1999/xlink" x="0px" y="0px" viewBox="0 0 24 24"
	 style="enable-background:new 0 0 24 24;" xml:space="preserve">
<style type="text/css">
	.st0{opacity:0.74;fill:#FFFFFF;}
</style>
<metadata>
	<sfw  xmlns="&ns_sfw;">
		<slices></slices>
		<sliceSourceBounds  bottomLeftOrigin="true" height="20.1" width="16.2" x="3.9" y="2"></sliceSourceBounds>
	</sfw>
</metadata>
<path class="st0" d="M18.5,9.8L18.5,9.8c-0.1,0-0.2-0.1-0.2-0.2V8.5c0-1-0.2-1.9-0.6-2.8l0,0l0,0c0,0,0-0.1-0.1-0.1
	c-0.1-0.3-0.3-0.6-0.5-0.9c0,0,0,0,0-0.1c0,0,0-0.1-0.1-0.1c-0.9-1.2-2.2-2.1-3.6-2.4C13.2,2.1,13,2,12.8,2c-0.6-0.1-1.3-0.1-2,0
	c-2.9,0.6-5,3.4-5,6.4v1.1c0,0.1-0.1,0.2-0.2,0.2c-1,0.2-1.7,0.9-1.7,2V20c0,1,0.8,1.9,1.8,2l0,0c0.1,0,0.3,0,0.4,0h11.8
	c1.2,0,2.2-1,2.2-2.2v-8C20.2,10.7,19.5,10,18.5,9.8z M9.2,5.2c1-1,2.4-1.4,3.9-1c1.9,0.5,3.1,2.3,3.1,4.3v1c0,0.1-0.1,0.2-0.2,0.2
	H8.1C8,9.7,7.9,9.6,7.9,9.5V8.4C7.9,7.2,8.4,6,9.2,5.2z M17.8,20.1H6.4c-0.1,0-0.2-0.1-0.2-0.2v-7.8c0-0.1,0.1-0.2,0.2-0.2h11.4
	c0.1,0,0.2,0.1,0.2,0.2v7.8C18,20,17.9,20.1,17.8,20.1z"/>
</svg>
