<?xml version="1.0" encoding="utf-8"?>
<!-- Generator: Adobe Illustrator 24.1.1, SVG Export Plug-In . SVG Version: 6.00 Build 0)  -->
<!DOCTYPE svg PUBLIC "-//W3C//DTD SVG 1.1//EN" "http://www.w3.org/Graphics/SVG/1.1/DTD/svg11.dtd" [
	<!ENTITY ns_extend "http://ns.adobe.com/Extensibility/1.0/">
	<!ENTITY ns_ai "http://ns.adobe.com/AdobeIllustrator/10.0/">
	<!ENTITY ns_graphs "http://ns.adobe.com/Graphs/1.0/">
	<!ENTITY ns_vars "http://ns.adobe.com/Variables/1.0/">
	<!ENTITY ns_imrep "http://ns.adobe.com/ImageReplacement/1.0/">
	<!ENTITY ns_sfw "http://ns.adobe.com/SaveForWeb/1.0/">
	<!ENTITY ns_custom "http://ns.adobe.com/GenericCustomNamespace/1.0/">
	<!ENTITY ns_adobe_xpath "http://ns.adobe.com/XPath/1.0/">
]>
<svg version="1.1" id="ic_empty_masternode" xmlns:x="&ns_extend;" xmlns:i="&ns_ai;" xmlns:graph="&ns_graphs;"
	 xmlns="http://www.w3.org/2000/svg" xmlns:xlink="http://www.w3.org/1999/xlink" x="0px" y="0px" viewBox="0 0 100 100"
	 style="enable-background:new 0 0 100 100;" xml:space="preserve">
<style type="text/css">
	.st0{fill:none;}
	.st1{fill:#D6D6D6;stroke:#666666;stroke-width:2;stroke-linecap:round;stroke-linejoin:round;stroke-miterlimit:10;}
	.st2{fill:none;stroke:#666666;stroke-width:2;stroke-linecap:round;stroke-linejoin:round;stroke-miterlimit:10;}
</style>
<metadata>
	<sfw  xmlns="&ns_sfw;">
		<slices></slices>
		<sliceSourceBounds  bottomLeftOrigin="true" height="100" width="100" x="0" y="0"></sliceSourceBounds>
	</sfw>
</metadata>
<path id="Rectangle_4674" class="st0" d="M0,0h100v100H0V0z"/>
<g>
	<g>
		<path class="st1" d="M63.8,25.3c0-7.6-6.2-13.8-13.8-13.8s-13.8,6.2-13.8,13.8S42.4,39.1,50,39.1C57.6,39.2,63.8,33,63.8,25.3z"/>
		<path class="st1" d="M27.9,50.2c-7.6,0-13.8,6.2-13.8,13.8s6.2,13.8,13.8,13.8S41.7,71.6,41.7,64S35.5,50.2,27.9,50.2z"/>
		<path class="st1" d="M72.1,50.2c-7.6,0-13.8,6.2-13.8,13.8s6.2,13.8,13.8,13.8S85.9,71.6,85.9,64C86,56.4,79.8,50.2,72.1,50.2z"/>
	</g>
	<g>
		<path class="st2" d="M43.1,80.9c0,4.2,3.4,7.6,7.6,7.6s7.6-3.4,7.6-7.6s-3.4-7.6-7.6-7.6C46.5,73.4,43.1,76.8,43.1,80.9z"/>
		<path class="st2" d="M78,44.7c4.2,0,7.6-3.4,7.6-7.6s-3.4-7.6-7.6-7.6s-7.6,3.4-7.6,7.6S73.8,44.7,78,44.7z"/>
		<path class="st2" d="M22,44.7c4.2,0,7.6-3.4,7.6-7.6s-3.4-7.6-7.6-7.6s-7.6,3.4-7.6,7.6S17.8,44.7,22,44.7z"/>
	</g>
</g>
</svg>
