<?xml version="1.0" encoding="utf-8"?>
<!-- Generator: Adobe Illustrator 24.1.1, SVG Export Plug-In . SVG Version: 6.00 Build 0)  -->
<!DOCTYPE svg PUBLIC "-//W3C//DTD SVG 1.1//EN" "http://www.w3.org/Graphics/SVG/1.1/DTD/svg11.dtd" [
	<!ENTITY ns_extend "http://ns.adobe.com/Extensibility/1.0/">
	<!ENTITY ns_ai "http://ns.adobe.com/AdobeIllustrator/10.0/">
	<!ENTITY ns_graphs "http://ns.adobe.com/Graphs/1.0/">
	<!ENTITY ns_vars "http://ns.adobe.com/Variables/1.0/">
	<!ENTITY ns_imrep "http://ns.adobe.com/ImageReplacement/1.0/">
	<!ENTITY ns_sfw "http://ns.adobe.com/SaveForWeb/1.0/">
	<!ENTITY ns_custom "http://ns.adobe.com/GenericCustomNamespace/1.0/">
	<!ENTITY ns_adobe_xpath "http://ns.adobe.com/XPath/1.0/">
]>
<svg version="1.1" id="Group_9058" xmlns:x="&ns_extend;" xmlns:i="&ns_ai;" xmlns:graph="&ns_graphs;"
	 xmlns="http://www.w3.org/2000/svg" xmlns:xlink="http://www.w3.org/1999/xlink" x="0px" y="0px" viewBox="0 0 100 100"
	 style="enable-background:new 0 0 100 100;" xml:space="preserve">
<style type="text/css">
	.st0{fill:none;}
	.st1{fill:#00D3D5;}
	.st2{fill:#59c9c9;}
	.st3{fill:#FFFFFF;}
	.st4{fill:#666666;}
</style>
<metadata>
	<sfw  xmlns="&ns_sfw;">
		<slices></slices>
		<sliceSourceBounds  bottomLeftOrigin="true" height="100" width="100" x="0" y="0"></sliceSourceBounds>
	</sfw>
</metadata>
<path id="Rectangle_4716" class="st0" d="M0,0h100v100H0V0z"/>
<g>
	<g>
		<path class="st1" d="M83.8,11.7h-7c-0.5,0-1,0.5-1,1v15.1c0,0.5,0.5,1,1,1h1.6v3.7c0,0.9,1.2,1.3,1.8,0.7l4.4-4.4
			c0.2-0.2,0.3-0.4,0.3-0.7v-0.4V24V12.7C84.8,12.2,84.3,11.7,83.8,11.7z"/>
		<path class="st2" d="M79.4,34.6c-0.3,0-0.5-0.1-0.8-0.2c-0.8-0.3-1.3-1-1.3-1.8v-2.7h-0.6c-1.1,0-2-0.9-2-2V12.7c0-1.1,0.9-2,2-2
			h7c1.1,0,2,0.9,2,2v15.5c0,0.5-0.2,1-0.6,1.4L80.8,34C80.4,34.4,79.9,34.6,79.4,34.6z M79.3,32.6C79.4,32.6,79.4,32.6,79.3,32.6
			l4.4-4.4V12.7h-7v15.1h1.6c0.6,0,1,0.4,1,1V32.6L79.3,32.6z"/>
	</g>
	<g>
		<path class="st1" d="M83.8,35.3h-7c-0.5,0-1,0.5-1,1v15.1c0,0.5,0.5,1,1,1h1.6v3.7c0,0.9,1.2,1.3,1.8,0.7l4.4-4.4
			c0.2-0.2,0.3-0.4,0.3-0.7v-0.4v-3.7V36.3C84.8,35.8,84.3,35.3,83.8,35.3z"/>
		<path class="st2" d="M79.4,58.2c-0.3,0-0.5-0.1-0.8-0.2c-0.8-0.3-1.3-1-1.3-1.8v-2.7h-0.6c-1.1,0-2-0.9-2-2V36.3c0-1.1,0.9-2,2-2
			h7c1.1,0,2,0.9,2,2v15.5c0,0.5-0.2,1-0.6,1.4l-4.4,4.4C80.4,58,79.9,58.2,79.4,58.2z M79.3,56.2C79.4,56.2,79.4,56.2,79.3,56.2
			l4.4-4.4V36.3h-7v15.1h1.6c0.6,0,1,0.4,1,1V56.2L79.3,56.2z"/>
	</g>
	<g>
		<path class="st1" d="M83.8,58.9h-7c-0.5,0-1,0.5-1,1V75c0,0.5,0.5,1,1,1h1.6v3.7c0,0.9,1.2,1.3,1.8,0.7l4.4-4.4
			c0.2-0.2,0.3-0.4,0.3-0.7V75v-3.7V59.9C84.8,59.3,84.3,58.9,83.8,58.9z"/>
		<path class="st2" d="M79.4,81.8c-0.3,0-0.5-0.1-0.8-0.2c-0.8-0.3-1.3-1-1.3-1.8V77h-0.6c-1.1,0-2-0.9-2-2V59.9c0-1.1,0.9-2,2-2h7
			c1.1,0,2,0.9,2,2v15.5c0,0.5-0.2,1-0.6,1.4l-4.4,4.4C80.4,81.6,79.9,81.8,79.4,81.8z M79.3,79.8C79.4,79.8,79.4,79.8,79.3,79.8
			l4.4-4.4V59.9h-7V75h1.6c0.6,0,1,0.4,1,1V79.8L79.3,79.8z"/>
	</g>
	<g>
		<path class="st3" d="M74.8,91.8h-56c-2,0-3.6-1.6-3.6-3.6V11.7c0-2,1.6-3.6,3.6-3.6h56c2,0,3.6,1.6,3.6,3.6v76.6
			C78.4,90.2,76.8,91.8,74.8,91.8z"/>
		<path class="st4" d="M74.8,92.8h-56c-2.5,0-4.6-2-4.6-4.6V11.7c0-2.5,2-4.6,4.6-4.6h56c2.5,0,4.6,2.1,4.6,4.6v76.6
			C79.4,90.8,77.3,92.8,74.8,92.8z M18.8,9.1c-1.4,0-2.6,1.2-2.6,2.6v76.6c0,1.4,1.2,2.6,2.6,2.6h56c1.4,0,2.6-1.2,2.6-2.6V11.7
			c0-1.4-1.2-2.6-2.6-2.6H18.8z"/>
	</g>
	<path class="st1" d="M18,8.2c-0.9,0.9-1.9,1.9-2.8,2.8v77.7l3.2,3.2h8.8V8.2H18z"/>
	<g>
		<path class="st2" d="M27.2,91.9c-0.6,0-1-0.4-1-1v-82c0-0.6,0.4-1,1-1s1,0.4,1,1V91C28.2,91.5,27.7,91.9,27.2,91.9z"/>
	</g>
	<g>
		<path class="st2" d="M74.8,92.9h-56c-2.5,0-4.6-2.1-4.6-4.6V11.7c0-2.5,2-4.6,4.6-4.6h56c2.5,0,4.6,2,4.6,4.6v76.6
			C79.3,90.8,77.3,92.9,74.8,92.9z M18.8,9.2c-1.4,0-2.6,1.2-2.6,2.6v76.6c0,1.4,1.2,2.6,2.6,2.6h56c1.4,0,2.6-1.2,2.6-2.6V11.7
			c0-1.4-1.2-2.6-2.6-2.6L18.8,9.2L18.8,9.2z"/>
	</g>
	<g>
		<circle class="st1" cx="53.1" cy="35.9" r="6.7"/>
		<path class="st2" d="M53.1,43.6c-4.2,0-7.7-3.4-7.7-7.7c0-4.2,3.4-7.7,7.7-7.7c4.2,0,7.7,3.4,7.7,7.7S57.3,43.6,53.1,43.6z
			 M53.1,30.2c-3.1,0-5.7,2.6-5.7,5.7c0,3.1,2.5,5.7,5.7,5.7s5.7-2.6,5.7-5.7S56.2,30.2,53.1,30.2z"/>
	</g>
	<path class="st1" d="M65,41.6c-1.8-0.1-2.7,1.3-3.8,2.4c-3,3-7.7,4-11.8,2.7c-1.2-0.4-2.3-1-3.3-1.7c-1.1-0.8-1.8-1.8-2.8-2.6
		c-0.6-0.6-1.5-0.8-2.3-0.8c-2.1,0-3.9,1.7-3.7,3.7c0.4,4.1,5.6,7.6,5.6,7.6c2.9,2.1,6.4,3.3,10.2,3.3S60.4,55,63.2,53
		c0,0,5.5-4.4,5.5-7.6C68.8,43.3,66.9,41.7,65,41.6z"/>
	<path class="st2" d="M53.1,20.4c-10.2,0-18.4,8.3-18.4,18.4c0,3.1,0.8,6.1,2.2,8.7c0,0,0,0,0,0.1l0,0c3.1,5.7,9.2,9.6,16.2,9.6
		c10.2,0,18.4-8.3,18.4-18.4S63.2,20.4,53.1,20.4z M53.1,22.4c9,0,16.4,7.4,16.4,16.4c0,1.4-0.2,2.7-0.5,4c-0.8-1.3-2.3-2.2-3.9-2.2
		c-1.9-0.1-3.1,1.1-4,2.2c-0.2,0.2-0.3,0.4-0.5,0.5c-2.7,2.7-7,3.7-10.8,2.5c-1.1-0.3-2.1-0.9-3-1.5c-0.6-0.4-1-0.9-1.5-1.4
		c-0.4-0.4-0.7-0.8-1.2-1.2c-0.8-0.7-1.9-1.1-3-1.1c-1.4,0-2.7,0.6-3.6,1.6c-0.1,0.1-0.2,0.3-0.3,0.4c-0.3-1.2-0.5-2.5-0.5-3.8
		C36.7,29.8,44,22.4,53.1,22.4z M53.1,55.3c-6.2,0-11.6-3.5-14.4-8.6c-0.2-0.5-0.3-0.9-0.4-1.4c-0.1-0.6,0.2-1.2,0.6-1.7
		c0.5-0.6,1.3-0.9,2.1-0.9c0.6,0,1.3,0.2,1.7,0.6c0.4,0.3,0.7,0.7,1,1c0.5,0.6,1.1,1.2,1.8,1.7c1.1,0.8,2.3,1.4,3.6,1.8
		c4.5,1.4,9.6,0.2,12.8-3c0.2-0.2,0.4-0.4,0.6-0.6c0.9-1,1.5-1.6,2.5-1.6c1.3,0,2.7,1.2,2.7,2.7c0,0.5-0.2,1.1-0.5,1.7
		C64.4,51.9,59.1,55.3,53.1,55.3z"/>
</g>
</svg>
