<?xml version="1.0" encoding="utf-8"?>
<!-- Generator: Adobe Illustrator 24.1.1, SVG Export Plug-In . SVG Version: 6.00 Build 0)  -->
<!DOCTYPE svg PUBLIC "-//W3C//DTD SVG 1.1//EN" "http://www.w3.org/Graphics/SVG/1.1/DTD/svg11.dtd" [
	<!ENTITY ns_extend "http://ns.adobe.com/Extensibility/1.0/">
	<!ENTITY ns_ai "http://ns.adobe.com/AdobeIllustrator/10.0/">
	<!ENTITY ns_graphs "http://ns.adobe.com/Graphs/1.0/">
	<!ENTITY ns_vars "http://ns.adobe.com/Variables/1.0/">
	<!ENTITY ns_imrep "http://ns.adobe.com/ImageReplacement/1.0/">
	<!ENTITY ns_sfw "http://ns.adobe.com/SaveForWeb/1.0/">
	<!ENTITY ns_custom "http://ns.adobe.com/GenericCustomNamespace/1.0/">
	<!ENTITY ns_adobe_xpath "http://ns.adobe.com/XPath/1.0/">
]>
<svg version="1.1" id="ic_empty_dark_error" xmlns:x="&ns_extend;" xmlns:i="&ns_ai;" xmlns:graph="&ns_graphs;"
	 xmlns="http://www.w3.org/2000/svg" xmlns:xlink="http://www.w3.org/1999/xlink" x="0px" y="0px" viewBox="0 0 100 100"
	 style="enable-background:new 0 0 100 100;" xml:space="preserve">
<style type="text/css">
	.st0{fill:#FFFFFF;}
	.st1{fill:url(#SVGID_1_);}
	.st2{fill:url(#SVGID_2_);}
	.st3{fill:url(#SVGID_3_);}
	.st4{fill:url(#SVGID_4_);}
	.st5{fill:#00D3D5;}
	.st6{fill:#59c9c9;}
</style>
<metadata>
	<sfw  xmlns="&ns_sfw;">
		<slices></slices>
		<sliceSourceBounds  bottomLeftOrigin="true" height="761.8" width="344.5" x="-257.5" y="7.7"></sliceSourceBounds>
	</sfw>
</metadata>
<g>
	<g>
		<path class="st0" d="M-186.6-632.5c0,18.6-15.1,33.7-33.7,33.7s-33.7-15.1-33.7-33.7s15.1-33.7,33.7-33.7
			C-201.8-666.2-186.6-651.1-186.6-632.5z"/>
		
			<linearGradient id="SVGID_1_" gradientUnits="userSpaceOnUse" x1="-220.4998" y1="-185.9356" x2="-220.4998" y2="-242.7975" gradientTransform="matrix(1 0 0 1 0 -418)">
			<stop  offset="0" style="stop-color:#00D3D5"/>
			<stop  offset="1" style="stop-color:#59c9c9"/>
		</linearGradient>
		<path class="st1" d="M-220.5-669.5c-20.4,0-37,16.6-37,37s16.6,37,37,37s37-16.6,37-37C-183.4-652.9-200-669.5-220.5-669.5z
			 M-220.5-603.3c-16.1,0-29.2-13.1-29.2-29.2c0-16.1,13.1-29.2,29.2-29.2s29.2,13.1,29.2,29.2
			C-191.3-616.4-204.4-603.3-220.5-603.3z"/>
	</g>
	<g>
		<g>
			
				<linearGradient id="SVGID_2_" gradientUnits="userSpaceOnUse" x1="-220.45" y1="-185.936" x2="-220.45" y2="-242.7974" gradientTransform="matrix(1 0 0 1 0 -418)">
				<stop  offset="0" style="stop-color:#00D3D5"/>
				<stop  offset="1" style="stop-color:#59c9c9"/>
			</linearGradient>
			<path class="st2" d="M-220.1-643.4L-220.1-643.4L-220.1-643.4L-220.1-643.4c2.9,0,5.6,1.1,7.6,3.2c1,1,1.8,2.2,2.4,3.5l4.9-4.9
				c0.5-0.5,0.8-0.9,1-1.4c0.4-0.6,0.6-1.4,0.6-2.2c0-2.4-1.9-4.3-4.3-4.3h-29.4v8.7h10.2C-225.3-642.4-222.8-643.4-220.1-643.4z"/>
			
				<linearGradient id="SVGID_3_" gradientUnits="userSpaceOnUse" x1="-220.1" y1="-185.9349" x2="-220.1" y2="-242.7984" gradientTransform="matrix(1 0 0 1 0 -418)">
				<stop  offset="0" style="stop-color:#00D3D5"/>
				<stop  offset="1" style="stop-color:#59c9c9"/>
			</linearGradient>
			<path class="st3" d="M-220.1-638.3L-220.1-638.3c-3.2,0-5.7,2.6-5.7,5.7c0,3.2,2.6,5.7,5.7,5.7l0,0c3.2,0,5.7-2.6,5.7-5.7
				C-214.4-635.7-217-638.3-220.1-638.3z"/>
			
				<linearGradient id="SVGID_4_" gradientUnits="userSpaceOnUse" x1="-220.5" y1="-185.9354" x2="-220.5" y2="-242.7979" gradientTransform="matrix(1 0 0 1 0 -418)">
				<stop  offset="0" style="stop-color:#00D3D5"/>
				<stop  offset="1" style="stop-color:#59c9c9"/>
			</linearGradient>
			<path class="st4" d="M-220.2-621.8c-4.6,0-8.5-2.9-10.1-7l-5.4,5.4c-0.5,0.5-0.8,0.9-1,1.4c-0.4,0.6-0.6,1.4-0.6,2.2
				c0,2.4,1.9,4.3,4.3,4.3h29.3v-8.7h-9.7C-215.2-622.7-217.6-621.8-220.2-621.8z"/>
		</g>
	</g>
</g>
<g>
	<g>
		<g>
			<g>
				<path class="st5" d="M50,28.2L30.4,62.1h39.1L50,28.2z M47.3,37.4c0-1.4,1.2-2.6,2.6-2.6c1.4,0,2.6,1.2,2.6,2.6V49
					c0,1.4-1.2,2.6-2.6,2.6c-1.4,0-2.6-1.2-2.6-2.6V37.4z M49.9,60.1c-1.7,0-3.1-1.4-3.1-3.1s1.4-3.1,3.1-3.1c1.7,0,3.1,1.4,3.1,3.1
					S51.6,60.1,49.9,60.1z"/>
			</g>
			<g>
				<path class="st6" d="M49.9,54.9c1.1,0,2.1,1,2.1,2.1s-1,2.1-2.1,2.1s-2.1-1-2.1-2.1C47.8,55.9,48.8,54.9,49.9,54.9 M49.9,52.9
					c-2.2,0-4.1,1.9-4.1,4.1c0,2.2,1.9,4.1,4.1,4.1c2.2,0,4.1-1.9,4.1-4.1C54,54.8,52.1,52.9,49.9,52.9L49.9,52.9z"/>
			</g>
		</g>
		<g>
			<path class="st6" d="M49.9,35.8c0.9,0,1.6,0.7,1.6,1.6V49c0,0.9-0.7,1.6-1.6,1.6c-0.9,0-1.6-0.7-1.6-1.6V37.4
				C48.3,36.5,49,35.8,49.9,35.8 M49.9,33.8c-2,0-3.6,1.6-3.6,3.6V49c0,2,1.6,3.6,3.6,3.6s3.6-1.6,3.6-3.6V37.4
				C53.5,35.4,51.9,33.8,49.9,33.8L49.9,33.8z"/>
		</g>
	</g>
	<g>
		<path class="st5" d="M85,28.7L51,9c-0.6-0.4-1.4-0.4-1.9,0L15,28.7c-0.6,0.4-1,1-1,1.7v39.3c0,0.7,0.4,1.4,1,1.7L49,91
			c0.3,0.2,0.7,0.3,1,0.3s0.7-0.1,1-0.3l34-19.7c0.6-0.4,1-1,1-1.7V30.3C86,29.7,85.6,29,85,28.7z M82.1,68.6L51.9,85.9v-19H48v19
			L17.9,68.6V33.8l18.8,11.3l1.9-3.4L19.7,30.3L50,12.9l30.4,17.5l-18.6,12l2,3.4l18.4-11.9v34.7H82.1z"/>
		<path class="st6" d="M50,92.3c-0.5,0-1.1-0.2-1.5-0.5l-34-19.6c-0.9-0.4-1.5-1.5-1.5-2.5V30.3c0-1,0.5-1.9,1.4-2.5L48.5,8.2
			c0.9-0.6,2.1-0.6,3,0l34,19.6c0.9,0.5,1.5,1.5,1.5,2.5v39.3c0,1-0.5,1.9-1.4,2.5L51.5,91.8C51.1,92.1,50.5,92.3,50,92.3z M50,9.8
			c-0.1,0-0.3,0-0.4,0.1L15.5,29.6C15.4,29.7,15,30,15,30.4v39.3c0,0.3,0.2,0.6,0.4,0.8l34.1,19.7c0.2,0.1,0.4,0.2,0.5,0.2
			s0.3,0,0.4-0.1l34.1-19.7c0.1-0.1,0.5-0.4,0.5-0.8V30.3c0-0.3-0.2-0.6-0.4-0.8c0,0,0,0-0.1,0l-34-19.6C50.3,9.8,50.1,9.8,50,9.8z
			 M48.1,86.9c-0.2,0-0.3,0-0.5-0.1L17.4,69.5c-0.3-0.2-0.5-0.5-0.5-0.9V33.8c0-0.4,0.2-0.7,0.5-0.9s0.7-0.2,1,0l18,10.8l0.9-1.6
			L19.2,31.2c-0.3-0.2-0.5-0.5-0.5-0.9s0.2-0.7,0.5-0.9L49.5,12c0.3-0.2,0.7-0.2,1,0l30.4,17.5c0.3,0.2,0.5,0.5,0.5,0.8
			s-0.2,0.7-0.5,0.9L63.1,42.7l1,1.7l17.5-11.3c0.3-0.2,0.7-0.2,1,0s0.5,0.5,0.5,0.9v34.6c0,0.4-0.2,0.7-0.5,0.9L52.4,86.8
			c-0.3,0.2-0.7,0.2-1,0s-0.5-0.5-0.5-0.9v-18H49v18c0,0.4-0.2,0.7-0.5,0.9C48.4,86.9,48.2,86.9,48.1,86.9z M18.9,68l28.2,16.2V66.9
			c0-0.6,0.4-1,1-1H52c0.6,0,1,0.4,1,1v17.2L81.1,68V35.8L64.3,46.7c-0.2,0.1-0.5,0.2-0.8,0.1c-0.3-0.1-0.5-0.2-0.6-0.5l-2-3.4
			c-0.3-0.5-0.1-1.1,0.3-1.3l17.2-11.1L50,14.1L21.7,30.4l17.5,10.5c0.5,0.3,0.6,0.9,0.4,1.4l-1.9,3.4C37.4,45.8,37.2,46,37,46
			c-0.3,0.1-0.5,0-0.8-0.1L18.9,35.5V68z M82.1,68.6L82.1,68.6L82.1,68.6z"/>
	</g>
	<g>
		<path class="st0" d="M74.9,61.2L53.2,23.6c-0.7-1.3-1.9-2-3.2-2s-2.4,0.7-3.2,2L25.1,61.2c-0.6,1.3-0.7,2.6-0.1,3.7
			c0.6,1.1,1.8,1.7,3.3,1.7h43.5c1.4,0,2.6-0.6,3.3-1.7C75.6,63.9,75.6,62.5,74.9,61.2z M29.3,62.4L50,26.6l20.7,35.8H29.3z"/>
		<path class="st6" d="M71.8,67.6H28.2c-1.8,0-3.3-0.8-4.1-2.2c-0.8-1.3-0.8-3,0.1-4.6L46,23.1c0.9-1.6,2.4-2.5,4-2.5s3.1,0.9,4,2.5
			l21.8,37.6c0.9,1.5,0.9,3.3,0.1,4.7C75.1,66.8,73.5,67.6,71.8,67.6z M50,22.6c-0.9,0-1.7,0.5-2.3,1.5L26,61.7
			c-0.5,1-0.5,2-0.1,2.7c0.5,0.8,1.3,1.2,2.4,1.2h43.5c1,0,2-0.5,2.4-1.2c0.5-0.8,0.4-1.8-0.1-2.7l0,0L52.3,24.1
			C51.7,23.2,50.9,22.6,50,22.6z M70.7,63.4H29.3c-0.4,0-0.7-0.2-0.9-0.5s-0.2-0.7,0-1l20.7-35.8c0.4-0.6,1.4-0.6,1.7,0l20.7,35.8
			c0.2,0.3,0.2,0.7,0,1S71.1,63.4,70.7,63.4z M31,61.4h38L50,28.6L31,61.4z"/>
	</g>
</g>
</svg>
