<?xml version="1.0" encoding="utf-8"?>
<!-- Generator: Adobe Illustrator 24.1.1, SVG Export Plug-In . SVG Version: 6.00 Build 0)  -->
<!DOCTYPE svg PUBLIC "-//W3C//DTD SVG 1.1//EN" "http://www.w3.org/Graphics/SVG/1.1/DTD/svg11.dtd" [
	<!ENTITY ns_extend "http://ns.adobe.com/Extensibility/1.0/">
	<!ENTITY ns_ai "http://ns.adobe.com/AdobeIllustrator/10.0/">
	<!ENTITY ns_graphs "http://ns.adobe.com/Graphs/1.0/">
	<!ENTITY ns_vars "http://ns.adobe.com/Variables/1.0/">
	<!ENTITY ns_imrep "http://ns.adobe.com/ImageReplacement/1.0/">
	<!ENTITY ns_sfw "http://ns.adobe.com/SaveForWeb/1.0/">
	<!ENTITY ns_custom "http://ns.adobe.com/GenericCustomNamespace/1.0/">
	<!ENTITY ns_adobe_xpath "http://ns.adobe.com/XPath/1.0/">
]>
<svg version="1.1" id="ic_dark_staking_off" xmlns:x="&ns_extend;" xmlns:i="&ns_ai;" xmlns:graph="&ns_graphs;"
	 xmlns="http://www.w3.org/2000/svg" xmlns:xlink="http://www.w3.org/1999/xlink" x="0px" y="0px" viewBox="0 0 100 100"
	 style="enable-background:new 0 0 100 100;" xml:space="preserve">
<style type="text/css">
	.st0{fill:none;}
	.st1{fill:#00D3D5;}
	.st2{fill-rule:evenodd;clip-rule:evenodd;fill:#59c9c9;}
</style>
<metadata>
	<sfw  xmlns="&ns_sfw;">
		<slices></slices>
		<sliceSourceBounds  bottomLeftOrigin="true" height="100" width="100" x="0" y="0"></sliceSourceBounds>
	</sfw>
</metadata>
<path id="Rectangle_4702" class="st0" d="M0,0h100v100H0V0z"/>
<g>
	<g>
		<path class="st1" d="M50,96C25.2,96,5,75.8,5,51C5,26.2,25.2,6,50,6c24.8,0,45,20.2,45,45C95,75.8,74.8,96,50,96z M50,9
			C26.8,9,8,27.8,8,51c0,23.2,18.9,42,42,42c23.2,0,42-18.9,42-42C92,27.8,73.2,9,50,9z"/>
	</g>
	<g>
		<path class="st2" d="M14.5,21.4c-0.4-0.5-0.7-0.8-1-1.2c-0.9-1.1-0.8-2.5,0.2-3.5c0.6-0.6,1.2-1.2,1.8-1.7c1.1-1,2.4-1,3.5,0
			c0.3,0.3,0.7,0.6,1,0.9c3.8-3,8-5.1,12-7.6c1.6-1,3.3-2,4.9-2.9c1-0.6,2.1-0.5,2.9,0.3c0.8,0.8,0.8,1.9,0.1,2.9
			c-3.2,4.6-6.5,9.1-9.7,13.7c-0.4,0.5-0.8,1-1.2,1.5c-0.1,0.2-0.1,0.5,0,0.6c0.6,0.8,1.3,1.5,1.8,2.3c1.8,2.9,4.2,5.2,6.6,7.6
			c3.8,3.8,7.5,7.5,11.3,11.3c1.3,1.3,1.4,1.4,2.7,0.1c5.2-5.2,10.4-10.4,15.6-15.7c0.4-0.4,0.7-0.9,1.1-1.4c1.1-1.5,2.2-3,3.2-4.5
			c-3.6-5.1-7.3-10.2-10.9-15.4c-0.7-1-0.7-2.1,0-2.9c0.7-0.8,1.8-1,2.9-0.3c4.8,2.8,9.5,5.7,14.2,8.6c0.8,0.5,1.5,1.1,2.2,1.7
			c0.3,0.3,0.5,0.3,0.8,0c0.6-0.6,1.2-1.2,2.2-1.3c0.7,0,1.4,0.2,1.9,0.7c0.6,0.6,1.3,1.2,1.9,1.8c1,1,1,2.4,0.2,3.5
			c-0.9,1.2-0.9,1.1,0.2,2.2c2.5,2.4,5,4.9,7.5,7.3c1.3,1.2,1.3,2.8,0.1,4.1c-1.4,1.5-2.9,3-4.3,4.5c-1.1,1.1-2.7,1.2-3.9,0
			c-2.6-2.5-5.1-5-7.7-7.5c-0.2-0.2-0.4-0.3-0.5-0.4c-3.3,2.7-6.8,5.2-9.6,8.4c-3.8,4.2-7.8,8.3-11.7,12.4c-0.3,0.3-0.5,0.6-0.8,0.9
			c0.5,0.5,1,1,1.5,1.4c3.5,3.5,7,7,10.5,10.6c1.9,2,3.8,4,5.8,6c3.7,3.8,7.4,7.6,11.1,11.4c1.5,1.5,1.5,3.3-0.1,4.7
			c-0.6,0.6-1.2,1.2-1.8,1.8c-1.4,1.3-3.2,1.3-4.6-0.1c-6.6-6.8-13.3-13.7-19.9-20.6c-2.8-2.9-5.5-5.8-8.3-8.7c0,0-0.2,0.1-0.2,0.2
			c-4.8,5-9.6,10.1-14.4,15.1c-4.4,4.6-8.9,9.2-13.3,13.8c-1.6,1.6-3.3,1.6-4.9,0.1c-0.6-0.5-1.1-1.1-1.7-1.6
			c-1.5-1.5-1.5-3.2,0-4.7c3.8-3.9,7.6-7.9,11.4-11.8c4.6-4.7,9.1-9.4,13.7-14.1c1-1,2.1-2,3.2-3c0.2-0.2,0.4-0.4,0.7-0.6
			c-1.7-1.8-3.2-3.6-4.9-5.3c-3.6-3.8-7.3-7.5-11-11.2c-0.9-0.9-2-1.7-3.1-2.5c-1.1-0.9-2.2-1.7-3.3-2.7c-0.1,0.1-0.3,0.2-0.4,0.4
			c-2.5,2.4-5,4.9-7.6,7.3c-1.3,1.3-2.9,1.3-4.2,0c-1.4-1.4-2.7-2.8-4.1-4.2c-1.3-1.4-1.3-2.9,0.1-4.3c2.7-2.6,5.4-5.3,8.2-7.9
			C14.1,21.6,14.3,21.6,14.5,21.4z"/>
		<path class="st1" d="M80.5,90.1c-1.1,0-2.1-0.5-3-1.4C70.8,81.8,64.2,75,57.5,68.1c-1.9-1.9-3.7-3.9-5.6-5.9l-2-2.1l-4.3,4.5
			c-3.2,3.4-6.4,6.7-9.6,10.1c-3.1,3.2-6.2,6.4-9.3,9.6l-4,4.2c-1,1-2,1.5-3.1,1.5c-1.1,0-2.2-0.5-3.2-1.5L14.7,87
			c-1.9-1.9-1.9-4.2-0.1-6.1l4.5-4.7c2.3-2.4,4.6-4.7,6.8-7.1c4.6-4.7,9.1-9.4,13.7-14.1c0.7-0.7,1.5-1.4,2.2-2.1
			c0.3-0.3,0.6-0.6,0.9-0.8c-0.3-0.3-0.6-0.6-0.9-1c-1.1-1.3-2.2-2.4-3.3-3.6c-4-4.1-7.6-7.8-11-11.2c-0.6-0.6-1.3-1.1-2-1.7
			c-0.3-0.2-0.6-0.5-1-0.7c-0.7-0.6-1.5-1.2-2.2-1.7l-0.5-0.4L21,32.8c-2.1,2-4.2,4-6.2,6.1c-1.7,1.7-3.9,1.7-5.6,0
			C8,37.7,7,36.6,5.9,35.5l-0.8-0.9c-1.7-1.8-1.7-4,0.1-5.7c2.6-2.5,5.2-5.1,7.9-7.6c-0.1-0.1-0.2-0.3-0.3-0.4
			c-1.2-1.5-1.1-3.4,0.2-4.8c0.7-0.7,1.3-1.3,1.8-1.8c1.4-1.3,3.3-1.3,4.8,0l0.4,0.4c2.4-1.8,5-3.4,7.6-4.8c1.3-0.8,2.6-1.5,3.9-2.3
			c1.2-0.8,2.5-1.5,3.7-2.3l1.2-0.7c1.4-0.9,3-0.7,4.1,0.4c1.1,1.1,1.2,2.8,0.2,4.1c-3.2,4.6-6.5,9.1-9.7,13.7
			c-0.2,0.3-0.4,0.5-0.6,0.8c-0.1,0.1-0.2,0.3-0.4,0.4c0.2,0.2,0.3,0.4,0.5,0.6c0.4,0.5,0.8,0.9,1.1,1.5c1.6,2.5,3.6,4.5,5.8,6.7
			l0.7,0.7c3.8,3.8,7.5,7.5,11.3,11.3c0.2,0.2,0.5,0.5,0.7,0.6c0.2-0.2,0.4-0.4,0.6-0.6c5.2-5.2,10.4-10.4,15.6-15.7
			c0.2-0.2,0.5-0.6,0.7-0.9c0.1-0.1,0.2-0.3,0.3-0.4c0.8-1.1,1.6-2.3,2.4-3.4l0.4-0.5L59.4,9.1c-1-1.4-0.9-3,0.1-4.1
			c1.1-1.2,2.7-1.4,4.2-0.5c4.8,2.8,9.5,5.7,14.3,8.6c0.8,0.5,1.5,1,2.1,1.6c0.6-0.6,1.4-1.2,2.6-1.3c1-0.1,1.9,0.2,2.6,0.9
			c0.6,0.6,1.3,1.2,1.9,1.8c1.3,1.4,1.4,3.3,0.2,4.8c-0.1,0.1-0.2,0.3-0.3,0.4c0.1,0.1,0.3,0.3,0.4,0.4c2.5,2.5,5.1,4.9,7.6,7.3
			c1.7,1.6,1.7,3.8,0.2,5.4c-1.3,1.4-2.8,2.9-4.3,4.5c-1.5,1.5-3.7,1.5-5.3,0.1c-1.8-1.7-3.5-3.4-5.3-5.1l-2.3-2.2
			c-0.4,0.3-0.7,0.6-1.1,0.9c-2.8,2.2-5.4,4.3-7.7,6.9c-2.6,2.9-5.4,5.8-8.1,8.5c-1.2,1.3-2.5,2.6-3.7,3.9c0,0-0.1,0.1-0.1,0.1
			c0.3,0.3,0.6,0.5,0.9,0.8l1.7,1.7c2.9,3,5.8,5.9,8.8,8.9c1.1,1.1,2.2,2.3,3.3,3.4c0.8,0.9,1.6,1.7,2.5,2.6
			c2.1,2.1,4.1,4.3,6.2,6.4l4.9,5c1.9,1.9,1.8,4.3-0.1,6.1c-0.6,0.6-1.2,1.2-1.9,1.8C82.5,89.7,81.5,90.1,80.5,90.1z M50,57.8
			c0.3,0,0.5,0.1,0.7,0.3l2.7,2.8c1.9,2,3.7,3.9,5.6,5.9c6.6,6.9,13.2,13.7,19.9,20.5c1,1,2.2,1,3.2,0.1c0.6-0.6,1.2-1.2,1.8-1.8
			c1.1-1.1,1.1-2.2,0-3.3l-4.9-5c-2.1-2.1-4.1-4.3-6.2-6.4c-0.8-0.9-1.6-1.7-2.5-2.6c-1.1-1.1-2.2-2.3-3.3-3.4
			c-2.9-3-5.8-5.9-8.8-8.9l-1.7-1.7c-0.3-0.3-0.6-0.6-1-0.9l-0.5-0.5c-0.4-0.4-0.4-0.9-0.1-1.4l0.2-0.3c0.2-0.2,0.4-0.5,0.6-0.7
			c1.2-1.3,2.5-2.6,3.7-3.9c2.7-2.8,5.4-5.6,8-8.5c2.4-2.7,5.2-4.9,8-7.1c0.6-0.5,1.2-0.9,1.8-1.4c0.4-0.3,0.9-0.3,1.3,0l0.1,0.1
			c0.1,0.1,0.3,0.2,0.4,0.4l2.4,2.3c1.8,1.7,3.5,3.4,5.3,5.1c0.8,0.7,1.8,0.7,2.5,0c1.6-1.6,3-3,4.3-4.4c1-1.1,0.5-2.1-0.1-2.7
			c-2.5-2.4-5-4.9-7.5-7.3c-1.5-1.4-1.5-2-0.2-3.5c0.6-0.7,0.5-1.5-0.1-2.1c-0.6-0.6-1.2-1.2-1.8-1.8c-0.3-0.3-0.7-0.4-1.2-0.4
			c-0.5,0-0.9,0.4-1.5,0.9c-0.4,0.4-1.2,0.9-2.2,0.1l-0.2-0.2c-0.6-0.5-1.3-1-1.9-1.4c-4.7-2.9-9.5-5.7-14.2-8.6
			C62.2,6,61.5,5.7,61,6.3C60.4,6.9,60.8,7.6,61,8l10.9,15.4c0.2,0.3,0.2,0.8,0,1.2l-0.8,1.1c-0.8,1.1-1.6,2.2-2.4,3.4
			c-0.1,0.1-0.2,0.2-0.3,0.4c-0.3,0.4-0.5,0.8-0.9,1.2C62.4,35.7,57.2,41,52,46.2c-0.7,0.7-1.3,1.3-2.1,1.3c-0.7,0-1.2-0.5-2-1.3
			c-3.8-3.8-7.5-7.5-11.3-11.3l-0.7-0.7c-2.1-2.1-4.4-4.4-6-7.1c-0.3-0.4-0.6-0.8-1-1.3c-0.3-0.3-0.5-0.6-0.8-1
			c-0.4-0.5-0.3-1.3,0-1.8c0.2-0.3,0.4-0.5,0.6-0.8c0.2-0.2,0.4-0.4,0.5-0.7c3.2-4.5,6.5-9.1,9.7-13.7c0.3-0.4,0.5-1,0-1.6
			c-0.5-0.6-1.2-0.4-1.6-0.1l-1.2,0.7c-1.2,0.7-2.5,1.5-3.7,2.2c-1.3,0.8-2.7,1.6-4,2.4c-2.7,1.6-5.5,3.2-8,5.2
			c-0.4,0.3-0.9,0.3-1.3,0l-1-0.9c-0.7-0.6-1.5-0.6-2.1,0c-0.5,0.5-1.1,1-1.8,1.7c-0.6,0.6-0.7,1.4-0.1,2.1c0.2,0.2,0.4,0.5,0.6,0.7
			l0.4,0.4c0.2,0.2,0.3,0.5,0.2,0.8c0,0.3-0.2,0.5-0.4,0.7l-0.2,0.1c0,0-0.1,0-0.1,0.1c-2.7,2.6-5.4,5.3-8.1,7.9c-1,1-1,1.9-0.1,2.9
			l0.8,0.9c1.1,1.1,2.1,2.2,3.2,3.3c0.9,0.9,1.8,0.9,2.8,0c2.1-2,4.2-4,6.2-6.1l1.3-1.3c0.1-0.1,0.3-0.3,0.4-0.4l0.1-0.1
			c0.4-0.3,0.9-0.3,1.3,0l1.1,0.9c0.8,0.6,1.5,1.2,2.2,1.8c0.3,0.2,0.6,0.5,0.9,0.7c0.8,0.6,1.5,1.2,2.2,1.9c3.4,3.4,7,7.1,11,11.2
			c1.1,1.2,2.3,2.4,3.4,3.7c0.5,0.6,1,1.1,1.5,1.7c0.2,0.2,0.3,0.5,0.3,0.7c0,0.3-0.1,0.5-0.3,0.7L44.7,53c-0.2,0.1-0.3,0.3-0.4,0.4
			c-0.3,0.3-0.7,0.6-1,0.9c-0.7,0.7-1.5,1.3-2.1,2C36.6,61,32,65.7,27.5,70.5c-2.3,2.4-4.6,4.7-6.8,7.1l-4.5,4.7
			c-1.1,1.1-1.1,2.3,0,3.3l1.7,1.6c0.6,0.6,1.2,0.9,1.8,0.9c0.6,0,1.2-0.3,1.7-0.9l4.1-4.2c3.1-3.2,6.2-6.4,9.2-9.6
			c3.2-3.3,6.4-6.7,9.6-10.1l4.8-5.1c0.1-0.1,0.3-0.2,0.4-0.3C49.5,57.8,49.7,57.8,50,57.8z"/>
	</g>
	<g>
		<rect x="5.8" y="50" class="st1" width="87.7" height="3"/>
	</g>
</g>
</svg>
