<?xml version="1.0" encoding="utf-8"?>
<!-- Generator: Adobe Illustrator 24.1.1, SVG Export Plug-In . SVG Version: 6.00 Build 0)  -->
<!DOCTYPE svg PUBLIC "-//W3C//DTD SVG 1.1//EN" "http://www.w3.org/Graphics/SVG/1.1/DTD/svg11.dtd" [
	<!ENTITY ns_extend "http://ns.adobe.com/Extensibility/1.0/">
	<!ENTITY ns_ai "http://ns.adobe.com/AdobeIllustrator/10.0/">
	<!ENTITY ns_graphs "http://ns.adobe.com/Graphs/1.0/">
	<!ENTITY ns_vars "http://ns.adobe.com/Variables/1.0/">
	<!ENTITY ns_imrep "http://ns.adobe.com/ImageReplacement/1.0/">
	<!ENTITY ns_sfw "http://ns.adobe.com/SaveForWeb/1.0/">
	<!ENTITY ns_custom "http://ns.adobe.com/GenericCustomNamespace/1.0/">
	<!ENTITY ns_adobe_xpath "http://ns.adobe.com/XPath/1.0/">
]>
<svg version="1.1" id="Layer_1" xmlns:x="&ns_extend;" xmlns:i="&ns_ai;" xmlns:graph="&ns_graphs;"
	 xmlns="http://www.w3.org/2000/svg" xmlns:xlink="http://www.w3.org/1999/xlink" x="0px" y="0px" viewBox="0 0 100 100"
	 style="enable-background:new 0 0 100 100;" xml:space="preserve">
<style type="text/css">
	.st0{fill:#666666;}
	.st1{fill-rule:evenodd;clip-rule:evenodd;fill:#D6D6D6;}
	.st2{fill:none;}
</style>
<metadata>
	<sfw  xmlns="&ns_sfw;">
		<slices></slices>
		<sliceSourceBounds  bottomLeftOrigin="true" height="100" width="100" x="0" y="0"></sliceSourceBounds>
	</sfw>
</metadata>
<g id="ic_staking_off" transform="translate(-150)">
	<g>
		<g>
			<path class="st0" d="M199.9,96c-24.8,0-45-20.2-45-45s20.2-45,45-45s45,20.2,45,45S224.7,96,199.9,96z M199.9,9
				c-23.2,0-42,18.8-42,42s18.9,42,42,42c23.2,0,42-18.9,42-42C241.9,27.8,223.1,9,199.9,9z"/>
		</g>
		<g>
			<path class="st1" d="M164.4,21.4c-0.4-0.5-0.7-0.8-1-1.2c-0.9-1.1-0.8-2.5,0.2-3.5c0.6-0.6,1.2-1.2,1.8-1.7c1.1-1,2.4-1,3.5,0
				c0.3,0.3,0.7,0.6,1,0.9c3.8-3,8-5.1,12-7.6c1.6-1,3.3-2,4.9-2.9c1-0.6,2.1-0.5,2.9,0.3s0.8,1.9,0.1,2.9
				c-3.2,4.6-6.5,9.1-9.7,13.7c-0.4,0.5-0.8,1-1.2,1.5c-0.1,0.2-0.1,0.5,0,0.6c0.6,0.8,1.3,1.5,1.8,2.3c1.8,2.9,4.2,5.2,6.6,7.6
				c3.8,3.8,7.5,7.5,11.3,11.3c1.3,1.3,1.4,1.4,2.7,0.1c5.2-5.2,10.4-10.4,15.6-15.7c0.4-0.4,0.7-0.9,1.1-1.4c1.1-1.5,2.2-3,3.2-4.5
				c-3.6-5.1-7.3-10.2-10.9-15.4c-0.7-1-0.7-2.1,0-2.9c0.7-0.8,1.8-1,2.9-0.3c4.8,2.8,9.5,5.7,14.2,8.6c0.8,0.5,1.5,1.1,2.2,1.7
				c0.3,0.3,0.5,0.3,0.8,0c0.6-0.6,1.2-1.2,2.2-1.3c0.7,0,1.4,0.2,1.9,0.7c0.6,0.6,1.3,1.2,1.9,1.8c1,1,1,2.4,0.2,3.5
				c-0.9,1.2-0.9,1.1,0.2,2.2c2.5,2.4,5,4.9,7.5,7.3c1.3,1.2,1.3,2.8,0.1,4.1c-1.4,1.5-2.9,3-4.3,4.5c-1.1,1.1-2.7,1.2-3.9,0
				c-2.6-2.5-5.1-5-7.7-7.5c-0.2-0.2-0.4-0.3-0.5-0.4c-3.3,2.7-6.8,5.2-9.6,8.4c-3.8,4.2-7.8,8.3-11.7,12.4
				c-0.3,0.3-0.5,0.6-0.8,0.9c0.5,0.5,1,1,1.5,1.4c3.5,3.5,7,7,10.5,10.6c1.9,2,3.8,4,5.8,6c3.7,3.8,7.4,7.6,11.1,11.4
				c1.5,1.5,1.5,3.3-0.1,4.7c-0.6,0.6-1.2,1.2-1.8,1.8c-1.4,1.3-3.2,1.3-4.6-0.1c-6.6-6.8-13.3-13.7-19.9-20.6
				c-2.8-2.9-5.5-5.8-8.3-8.7c0,0-0.2,0.1-0.2,0.2c-4.8,5-9.6,10.1-14.4,15.1c-4.4,4.6-8.9,9.2-13.3,13.8c-1.6,1.6-3.3,1.6-4.9,0.1
				c-0.6-0.5-1.1-1.1-1.7-1.6c-1.5-1.5-1.5-3.2,0-4.7c3.8-3.9,7.6-7.9,11.4-11.8c4.6-4.7,9.1-9.4,13.7-14.1c1-1,2.1-2,3.2-3
				c0.2-0.2,0.4-0.4,0.7-0.6c-1.7-1.8-3.2-3.6-4.9-5.3c-3.6-3.8-7.3-7.5-11-11.2c-0.9-0.9-2-1.7-3.1-2.5c-1.1-0.9-2.2-1.7-3.3-2.7
				c-0.1,0.1-0.3,0.2-0.4,0.4c-2.5,2.4-5,4.9-7.6,7.3c-1.3,1.3-2.9,1.3-4.2,0c-1.4-1.4-2.7-2.8-4.1-4.2c-1.3-1.4-1.3-2.9,0.1-4.3
				c2.7-2.6,5.4-5.3,8.2-7.9C164,21.6,164.2,21.6,164.4,21.4z"/>
			<path class="st0" d="M230.4,90.1c-1.1,0-2.1-0.5-3-1.4c-6.7-6.9-13.3-13.7-20-20.6c-1.9-1.9-3.7-3.9-5.6-5.9l-2-2.1l-4.3,4.5
				c-3.2,3.4-6.4,6.7-9.6,10.1c-3.1,3.2-6.2,6.4-9.3,9.6l-4,4.2c-1,1-2,1.5-3.1,1.5s-2.2-0.5-3.2-1.5l-1.7-1.5
				c-1.9-1.9-1.9-4.2-0.1-6.1l4.5-4.7c2.3-2.4,4.6-4.7,6.8-7.1c4.6-4.7,9.1-9.4,13.7-14.1c0.7-0.7,1.5-1.4,2.2-2.1
				c0.3-0.3,0.6-0.6,0.9-0.8c-0.3-0.3-0.6-0.6-0.9-1c-1.1-1.3-2.2-2.4-3.3-3.6c-4-4.1-7.6-7.8-11-11.2c-0.6-0.6-1.3-1.1-2-1.7
				c-0.3-0.2-0.6-0.5-1-0.7c-0.7-0.6-1.5-1.2-2.2-1.7l-0.5-0.4l-0.8,1c-2.1,2-4.2,4-6.2,6.1c-1.7,1.7-3.9,1.7-5.6,0
				c-1.2-1.2-2.2-2.3-3.3-3.4l-0.8-0.9c-1.7-1.8-1.7-4,0.1-5.7c2.6-2.5,5.2-5.1,7.9-7.6c-0.1-0.1-0.2-0.3-0.3-0.4
				c-1.2-1.5-1.1-3.4,0.2-4.8c0.7-0.7,1.3-1.3,1.8-1.8c1.4-1.3,3.3-1.3,4.8,0l0.4,0.4c2.4-1.8,5-3.4,7.6-4.8
				c1.3-0.8,2.6-1.5,3.9-2.3c1.2-0.8,2.5-1.5,3.7-2.3l1.2-0.7c1.4-0.9,3-0.7,4.1,0.4c1.1,1.1,1.2,2.8,0.2,4.1
				c-3.2,4.6-6.5,9.1-9.7,13.7c-0.2,0.3-0.4,0.5-0.6,0.8c-0.1,0.1-0.2,0.3-0.4,0.4c0.2,0.2,0.3,0.4,0.5,0.6c0.4,0.5,0.8,0.9,1.1,1.5
				c1.6,2.5,3.6,4.5,5.8,6.7l0.7,0.7c3.8,3.8,7.5,7.5,11.3,11.3c0.2,0.2,0.5,0.5,0.7,0.6c0.2-0.2,0.4-0.4,0.6-0.6
				c5.2-5.2,10.4-10.4,15.6-15.7c0.2-0.2,0.5-0.6,0.7-0.9c0.1-0.1,0.2-0.3,0.3-0.4c0.8-1.1,1.6-2.3,2.4-3.4l0.4-0.5L209.3,9.1
				c-1-1.4-0.9-3,0.1-4.1c1.1-1.2,2.7-1.4,4.2-0.5c4.8,2.8,9.5,5.7,14.3,8.6c0.8,0.5,1.5,1,2.1,1.6c0.6-0.6,1.4-1.2,2.6-1.3
				c1-0.1,1.9,0.2,2.6,0.9c0.6,0.6,1.3,1.2,1.9,1.8c1.3,1.4,1.4,3.3,0.2,4.8c-0.1,0.1-0.2,0.3-0.3,0.4c0.1,0.1,0.3,0.3,0.4,0.4
				c2.5,2.5,5.1,4.9,7.6,7.3c1.7,1.6,1.7,3.8,0.2,5.4c-1.3,1.4-2.8,2.9-4.3,4.5c-1.5,1.5-3.7,1.5-5.3,0.1c-1.8-1.7-3.5-3.4-5.3-5.1
				l-2.3-2.2c-0.4,0.3-0.7,0.6-1.1,0.9c-2.8,2.2-5.4,4.3-7.7,6.9c-2.6,2.9-5.4,5.8-8.1,8.5c-1.2,1.3-2.5,2.6-3.7,3.9l-0.1,0.1
				c0.3,0.3,0.6,0.5,0.9,0.8l1.7,1.7c2.9,3,5.8,5.9,8.8,8.9c1.1,1.1,2.2,2.3,3.3,3.4c0.8,0.9,1.6,1.7,2.5,2.6
				c2.1,2.1,4.1,4.3,6.2,6.4l4.9,5c1.9,1.9,1.8,4.3-0.1,6.1c-0.6,0.6-1.2,1.2-1.9,1.8C232.4,89.7,231.4,90.1,230.4,90.1z
				 M199.9,57.8c0.3,0,0.5,0.1,0.7,0.3l2.7,2.8c1.9,2,3.7,3.9,5.6,5.9c6.6,6.9,13.2,13.7,19.9,20.5c1,1,2.2,1,3.2,0.1
				c0.6-0.6,1.2-1.2,1.8-1.8c1.1-1.1,1.1-2.2,0-3.3l-4.9-5c-2.1-2.1-4.1-4.3-6.2-6.4c-0.8-0.9-1.6-1.7-2.5-2.6
				c-1.1-1.1-2.2-2.3-3.3-3.4c-2.9-3-5.8-5.9-8.8-8.9l-1.7-1.7c-0.3-0.3-0.6-0.6-1-0.9l-0.5-0.5c-0.4-0.4-0.4-0.9-0.1-1.4l0.2-0.3
				c0.2-0.2,0.4-0.5,0.6-0.7c1.2-1.3,2.5-2.6,3.7-3.9c2.7-2.8,5.4-5.6,8-8.5c2.4-2.7,5.2-4.9,8-7.1c0.6-0.5,1.2-0.9,1.8-1.4
				c0.4-0.3,0.9-0.3,1.3,0l0.1,0.1c0.1,0.1,0.3,0.2,0.4,0.4l2.4,2.3c1.8,1.7,3.5,3.4,5.3,5.1c0.8,0.7,1.8,0.7,2.5,0
				c1.6-1.6,3-3,4.3-4.4c1-1.1,0.5-2.1-0.1-2.7c-2.5-2.4-5-4.9-7.5-7.3c-1.5-1.4-1.5-2-0.2-3.5c0.6-0.7,0.5-1.5-0.1-2.1
				c-0.6-0.6-1.2-1.2-1.8-1.8c-0.3-0.3-0.7-0.4-1.2-0.4s-0.9,0.4-1.5,0.9c-0.4,0.4-1.2,0.9-2.2,0.1l-0.2-0.2c-0.6-0.5-1.3-1-1.9-1.4
				c-4.7-2.9-9.5-5.7-14.2-8.6c-0.4-0.1-1.1-0.4-1.6,0.2c-0.6,0.6-0.2,1.3,0,1.7l10.9,15.4c0.2,0.3,0.2,0.8,0,1.2l-0.8,1.1
				c-0.8,1.1-1.6,2.2-2.4,3.4c-0.1,0.1-0.2,0.2-0.3,0.4c-0.3,0.4-0.5,0.8-0.9,1.2c-5.1,5-10.3,10.3-15.5,15.5
				c-0.7,0.7-1.3,1.3-2.1,1.3c-0.7,0-1.2-0.5-2-1.3c-3.8-3.8-7.5-7.5-11.3-11.3l-0.7-0.7c-2.1-2.1-4.4-4.4-6-7.1
				c-0.3-0.4-0.6-0.8-1-1.3c-0.3-0.3-0.5-0.6-0.8-1c-0.4-0.5-0.3-1.3,0-1.8c0.2-0.3,0.4-0.5,0.6-0.8c0.2-0.2,0.4-0.4,0.5-0.7
				c3.2-4.5,6.5-9.1,9.7-13.7c0.3-0.4,0.5-1,0-1.6s-1.2-0.4-1.6-0.1L186,6.8c-1.2,0.7-2.5,1.5-3.7,2.2c-1.3,0.8-2.7,1.6-4,2.4
				c-2.7,1.6-5.5,3.2-8,5.2c-0.4,0.3-0.9,0.3-1.3,0l-1-0.9c-0.7-0.6-1.5-0.6-2.1,0c-0.5,0.5-1.1,1-1.8,1.7c-0.6,0.6-0.7,1.4-0.1,2.1
				c0.2,0.2,0.4,0.5,0.6,0.7l0.4,0.4c0.2,0.2,0.3,0.5,0.2,0.8c0,0.3-0.2,0.5-0.4,0.7l-0.2,0.1c0,0-0.1,0-0.1,0.1
				c-2.7,2.6-5.4,5.3-8.1,7.9c-1,1-1,1.9-0.1,2.9l0.8,0.9c1.1,1.1,2.1,2.2,3.2,3.3c0.9,0.9,1.8,0.9,2.8,0c2.1-2,4.2-4,6.2-6.1
				l1.3-1.3c0.1-0.1,0.3-0.3,0.4-0.4l0.1-0.1c0.4-0.3,0.9-0.3,1.3,0l1.1,0.9c0.8,0.6,1.5,1.2,2.2,1.8c0.3,0.2,0.6,0.5,0.9,0.7
				c0.8,0.6,1.5,1.2,2.2,1.9c3.4,3.4,7,7.1,11,11.2c1.1,1.2,2.3,2.4,3.4,3.7c0.5,0.6,1,1.1,1.5,1.7c0.2,0.2,0.3,0.5,0.3,0.7
				c0,0.3-0.1,0.5-0.3,0.7l-0.1,0.3c-0.2,0.1-0.3,0.3-0.4,0.4c-0.3,0.3-0.7,0.6-1,0.9c-0.7,0.7-1.5,1.3-2.1,2
				c-4.6,4.7-9.2,9.4-13.7,14.2c-2.3,2.4-4.6,4.7-6.8,7.1l-4.5,4.7c-1.1,1.1-1.1,2.3,0,3.3l1.7,1.6c0.6,0.6,1.2,0.9,1.8,0.9
				c0.6,0,1.2-0.3,1.7-0.9l4.1-4.2c3.1-3.2,6.2-6.4,9.2-9.6c3.2-3.3,6.4-6.7,9.6-10.1l4.8-5.1c0.1-0.1,0.3-0.2,0.4-0.3
				C199.4,57.8,199.6,57.8,199.9,57.8z"/>
		</g>
		<g>
			<rect x="155.7" y="50" class="st0" width="87.7" height="3"/>
		</g>
	</g>
	<path id="Rectangle_4662" class="st2" d="M150,0h100v100H150V0z"/>
</g>
</svg>
