<?xml version="1.0" encoding="utf-8"?>
<!-- Generator: Adobe Illustrator 24.1.1, SVG Export Plug-In . SVG Version: 6.00 Build 0)  -->
<!DOCTYPE svg PUBLIC "-//W3C//DTD SVG 1.1//EN" "http://www.w3.org/Graphics/SVG/1.1/DTD/svg11.dtd" [
	<!ENTITY ns_extend "http://ns.adobe.com/Extensibility/1.0/">
	<!ENTITY ns_ai "http://ns.adobe.com/AdobeIllustrator/10.0/">
	<!ENTITY ns_graphs "http://ns.adobe.com/Graphs/1.0/">
	<!ENTITY ns_vars "http://ns.adobe.com/Variables/1.0/">
	<!ENTITY ns_imrep "http://ns.adobe.com/ImageReplacement/1.0/">
	<!ENTITY ns_sfw "http://ns.adobe.com/SaveForWeb/1.0/">
	<!ENTITY ns_custom "http://ns.adobe.com/GenericCustomNamespace/1.0/">
	<!ENTITY ns_adobe_xpath "http://ns.adobe.com/XPath/1.0/">
]>
<svg version="1.1" id="Layer_1" xmlns:x="&ns_extend;" xmlns:i="&ns_ai;" xmlns:graph="&ns_graphs;"
	 xmlns="http://www.w3.org/2000/svg" xmlns:xlink="http://www.w3.org/1999/xlink" x="0px" y="0px" viewBox="0 0 72.7 72.7"
	 style="enable-background:new 0 0 72.7 72.7;" xml:space="preserve">
<style type="text/css">
	.st0{fill:#FFFFFF;}
</style>
<metadata>
	<sfw  xmlns="&ns_sfw;">
		<slices></slices>
		<sliceSourceBounds  bottomLeftOrigin="true" height="72.2" width="72.1" x="0.3" y="0.2"></sliceSourceBounds>
	</sfw>
</metadata>
<g>
	<path class="st0" d="M48.4,69C48.4,69,48.4,69,48.4,69C48.3,69,48.3,69.1,48.4,69L48.4,69z"/>
	<path class="st0" d="M41.6,41.5c1.1,0,2.2,0,3.3,0c0-3.4,0-6.8,0-10.3c-2.4,0-4.6,0-6.8,0c0,1.1,0,2.3-0.1,3.4c-1,0-2.1,0-3.4,0
		c0-1.2,0-2.3,0-3.4c-2.2,0-4.4,0-6.9,0c0-1.2,0-2.3,0-3.4c-2.2,0-4.5,0-6.7,0c0,1.3,0,2.3,0,3.4c1.1,0.1,2.1,0.1,3.1,0.1
		c0,1.2,0,2.2,0,3.4c-3.5,0-6.8,0-10.2,0c0,1.1,0,2.2,0,3.5c1.3,0,2.3,0,3.3,0c0,1.2,0,2.2,0,3.2c-2.3,0-4.5,0-6.9,0
		c0-1.2,0-2.2,0-3.2c-1.2,0-2.2,0-3.2,0c-0.1,1.1-0.2,2.2-0.2,3.2c-1.2,0-2.2,0-3.4,0c0-1.1,0-2.1,0-3.2c-1.2,0-2.2,0-3.2,0
		c0,2.3,0,4.5,0,6.9c9.2,0,18.3,0,27.5,0c0,2.4,0,4.5,0,6.7c1.2,0,2.2,0,3.3,0c0.1,1.1,0.2,2.3,0.3,3.6c1.2,0,2.1,0,3.3,0
		c0,2.3,0,4.6,0,6.8c1,0,2.1,0,3.4,0c0,2.4,0,4.6,0,6.9c3.4,0,6.8,0,10.3,0c0-1.1,0-2.2,0-3.3c1.3-0.1,2.3-0.1,3.3-0.2
		c0-2.4,0-4.5,0-6.7c-1.2,0-2.2,0-3.3,0c0,1,0,2.1,0,3.3c-1.2,0-2.2,0-3.5,0c0-1.1,0-2.2,0-3.3c-2.2,0-4.4,0-6.7,0
		c0-1.2,0-2.2,0-3.5c2.2,0,4.5,0,6.7,0c0-3.4,0-6.8,0-10.3c-1,0-2.1,0-3.3,0C41.6,43.8,41.6,42.8,41.6,41.5z M34.7,41.4
		c1,0.1,2,0.1,3.3,0.2c0,2.3,0,4.5,0,6.8c-1.1,0-2.2,0-3.4,0c0-1,0-2.1,0-3.3c-1.1-0.1-2.2-0.1-3.5-0.2c0-2.2,0-4.5,0-6.7
		c1,0,2.1-0.1,3.4-0.2C34.5,39.1,34.6,40.2,34.7,41.4z M21,41.3c0-1,0-2,0-3.3c2.2,0,4.5,0,6.7,0c0,1,0,2.1,0,3.3
		C25.4,41.3,23.3,41.3,21,41.3z M27.7,38c0-1,0-2.1,0-3.3c1.1,0,2.1,0,3.3,0c0,1.1,0,2.2,0,3.3C30,38.1,28.8,38,27.7,38z M31.1,51.7
		c0-1,0-2.1,0-3.3c1.3,0,2.4,0,3.5,0c0,1,0,2.1,0,3.3C33.4,51.7,32.3,51.7,31.1,51.7z M41.3,51.7c-1,0-2,0-3.3,0c0-1.1,0-2.2,0-3.3
		c1,0,2.1,0,3.3,0C41.3,49.5,41.3,50.5,41.3,51.7z M41.3,37.9c-1,0-2,0-3.3,0c0-1.1,0-2.2,0-3.3c1,0,2.1,0,3.3,0
		C41.3,35.7,41.3,36.7,41.3,37.9z"/>
	<path class="st0" d="M34.6,62.1C34.6,62.1,34.6,62.1,34.6,62.1L34.6,62.1C34.6,62.2,34.6,62.1,34.6,62.1z"/>
	<path class="st0" d="M13.9,34.6C13.9,34.6,14,34.6,13.9,34.6C14,34.6,14,34.6,13.9,34.6L13.9,34.6z"/>
	<path class="st0" d="M24.2,0.2c-8,0-15.8,0-23.8,0c0,8.1,0,16,0,23.8c8.1,0,16,0,23.8,0C24.2,16.1,24.2,8.2,24.2,0.2z M20.7,20.7
		c-5.6,0-11.2,0-17,0c0-5.6,0-11.2,0-17c5.7,0,11.2,0,17,0C20.7,9.3,20.7,14.9,20.7,20.7z"/>
	<path class="st0" d="M72.3,0.3c-8.1,0-16,0-23.8,0c0,8,0,15.9,0,23.8c8,0,15.8,0,23.8,0C72.3,16.1,72.3,8.2,72.3,0.3z M68.9,20.6
		c-5.6,0-11.2,0-17,0c0-5.6,0-11.2,0-17c5.7,0,11.3,0,17,0C68.9,9.3,68.9,14.9,68.9,20.6z"/>
	<path class="st0" d="M0.3,72.4c8,0,15.9,0,23.8,0c0-8,0-15.9,0-23.9c-8,0-15.9,0-23.8,0C0.3,56.6,0.3,64.5,0.3,72.4z M3.7,51.9
		c5.7,0,11.3,0,17,0c0,5.6,0,11.2,0,16.9c-5.6,0-11.2,0-17,0C3.7,63.2,3.7,57.6,3.7,51.9z"/>
	<path class="st0" d="M34.6,31.1C34.6,31.1,34.6,31.1,34.6,31.1C34.6,31.1,34.6,31.2,34.6,31.1C34.6,31.2,34.6,31.2,34.6,31.1
		C34.6,31.2,34.6,31.1,34.6,31.1z"/>
	<path class="st0" d="M27.7,27.7C27.7,27.7,27.7,27.7,27.7,27.7C27.7,27.7,27.7,27.7,27.7,27.7C27.7,27.7,27.7,27.7,27.7,27.7
		C27.7,27.7,27.7,27.7,27.7,27.7z"/>
	<path class="st0" d="M38.1,31.1L38.1,31.1C38,31.2,38.1,31.2,38.1,31.1C38.1,31.2,38.1,31.1,38.1,31.1C38.1,31.1,38,31.1,38.1,31.1
		C38,31.1,38,31.2,38.1,31.1C38,31.2,38.1,31.1,38.1,31.1z"/>
	<path class="st0" d="M34.6,31.1c1.1,0,2.3,0,3.4,0c0-1.1,0-2.2,0-3.5c2.5,0,4.6,0,6.8,0c0-2.4,0-4.6,0-6.9c-1.2,0-2.2,0-3.3,0
		c0-1.1,0-2.2,0-3.5c-1.3,0-2.4,0-3.4,0c0-1.2,0-2.2,0-3.4c2.3,0,4.5,0,6.6,0c0-2.4,0-4.6,0-6.7c-1.1,0-2.1,0-3.2,0
		c-0.1,1.1-0.1,2.2-0.2,3.2c-1.2,0-2.2,0-3.3,0c-0.1-1.2-0.1-2.2-0.2-3.2c-1.2,0-2.2,0-3.2,0c-0.1,1.1-0.1,2.2-0.2,3.4
		c-1.2,0-2.2,0-3.3,0c0,1.1,0,2.2,0,3.3c-1.3,0.1-2.4,0.1-3.5,0.2c0,4.7,0,9.2,0,13.6c2.2,0,4.4,0,6.9,0
		C34.6,28.9,34.6,30,34.6,31.1z M38.2,20.8c1.1,0,2.2,0,3.3,0c0,1,0,2.1,0,3.3c-1.1,0-2.1,0-3.3,0C38.2,23.1,38.2,22.1,38.2,20.8z
		 M34.4,24.2c-1.1,0-2,0-3.1,0c0-2.2,0-4.4,0-6.7c1,0,2,0,3.1,0C34.4,19.7,34.4,22,34.4,24.2z"/>
	<path class="st0" d="M69,48.4C69,48.4,69,48.4,69,48.4C69,48.4,69.1,48.4,69,48.4L69,48.4z"/>
	<path class="st0" d="M51.9,51.9c0,1.1,0,2.2,0,3.5c1.3,0,2.3,0,3.5,0c0,3.5,0,6.8,0,10.1c1.2,0,2.2,0,3.5,0c0-2.3,0-4.5,0-6.7
		c1.2-0.1,2.2-0.1,3.2-0.1c0-1.2,0-2.2,0-3.5c-1.2,0-2.2,0-3.2,0c0-1.2,0-2.2,0-3.4c3.4,0,6.8,0,10.2,0c0-1.3,0-2.3,0-3.4
		c-4.6,0-9.1,0-13.7,0c0,1,0,2.1,0,3.4C54.1,51.9,53,51.9,51.9,51.9z"/>
	<path class="st0" d="M13.9,34.6C13.9,34.6,14,34.6,13.9,34.6C14,34.6,13.9,34.6,13.9,34.6C13.9,34.6,13.9,34.6,13.9,34.6z"/>
	<path class="st0" d="M10.4,27.9c0,1.1,0,2.1,0,3.1c-1.2,0-2.2,0-3.3,0c-0.1-1.2-0.1-2.2-0.2-3.2c-2.4,0-4.5,0-6.6,0
		c0,2.3,0,4.5,0,6.7c4.6,0,9.1,0,13.6,0c0-2.3,0-4.5,0-6.7C12.6,27.9,11.6,27.9,10.4,27.9z"/>
	<path class="st0" d="M58.6,27.9c-3.5,0-6.8,0-10.1,0c0,2.3,0,4.4,0,6.6c3.4,0,6.6,0,10.1,0C58.6,32.2,58.6,30,58.6,27.9z"/>
	<path class="st0" d="M69,31.2C69.1,31.2,69.1,31.2,69,31.2C69.1,31.2,69.1,31.2,69,31.2L69,31.2z"/>
	<path class="st0" d="M72.4,41.4c0-3.4,0-6.8,0-10.2c-1.2,0-2.2,0-3.3,0c0,2.2,0,4.4,0,6.7c-1.3,0.1-2.4,0.2-3.5,0.2
		c0,1,0,2.1,0,3.2C68,41.4,70.1,41.4,72.4,41.4z"/>
	<path class="st0" d="M51.8,51.8C51.8,51.8,51.8,51.8,51.8,51.8C51.8,51.9,51.8,51.9,51.8,51.8C51.9,51.8,51.9,51.8,51.8,51.8
		C51.8,51.8,51.8,51.8,51.8,51.8z"/>
	<path class="st0" d="M55.2,41.4C55.2,41.4,55.2,41.4,55.2,41.4C55.2,41.5,55.2,41.4,55.2,41.4C55.2,41.4,55.2,41.4,55.2,41.4z"/>
	<path class="st0" d="M51.9,45c-1.2,0-2.3,0-3.4,0c0,2.3,0,4.5,0,6.8c1.3,0,2.3,0,3.4,0c0-1,0-2.1,0-3.4c1.2,0,2.3,0,3.4,0
		c0-2.3-0.1-4.6-0.1-6.9c-1.1,0-2.2,0-3.3,0.1C51.9,42.6,51.9,43.6,51.9,45z"/>
	<path class="st0" d="M55.3,48.4L55.3,48.4C55.3,48.4,55.3,48.4,55.3,48.4C55.3,48.4,55.3,48.4,55.3,48.4
		C55.3,48.3,55.3,48.3,55.3,48.4C55.2,48.4,55.2,48.4,55.3,48.4C55.2,48.4,55.3,48.4,55.3,48.4z"/>
	<path class="st0" d="M65.7,58.7c1.1,0,2.1,0,3.4,0c0,2.5,0,4.7,0,6.8c1.2,0,2.2,0,3.2,0c0-3.4,0-6.8,0-10.1c-2.3,0-4.5,0-6.6,0
		C65.7,56.6,65.7,57.6,65.7,58.7z"/>
	<path class="st0" d="M31.1,65.6c-1.1,0-2.2,0-3.3,0c0,2.4,0,4.6,0,6.7c3.5,0,6.8,0,10.2,0c0-1.2,0-2.2,0-3.3c-2.2,0-4.4,0-6.9,0
		C31.1,67.8,31.1,66.7,31.1,65.6z"/>
	<path class="st0" d="M38,69.1C38,69.1,38.1,69.1,38,69.1C38.1,69.1,38.1,69,38,69.1C38.1,69,38,69,38,69.1C38,69,38,69.1,38,69.1z"
		/>
	<path class="st0" d="M55.2,41.4C55.2,41.4,55.2,41.4,55.2,41.4C55.2,41.4,55.2,41.4,55.2,41.4C55.2,41.4,55.2,41.5,55.2,41.4z"/>
	<path class="st0" d="M62.1,38.1C62.2,38.1,62.2,38.1,62.1,38.1L62.1,38.1C62.1,38,62.1,38.1,62.1,38.1z"/>
	<path class="st0" d="M55.2,41.4c1.1,0.1,2.2,0.1,3.4,0.2c0.1,1.1,0.1,2.2,0.2,3.2c1.2,0,2.2,0,3.3,0c0-2.3,0-4.5,0-6.7
		c-2.2,0-4.5,0-6.9,0C55.2,39.3,55.2,40.4,55.2,41.4z"/>
	<path class="st0" d="M31.1,10.5C31.1,10.5,31.1,10.5,31.1,10.5C31.1,10.5,31.2,10.5,31.1,10.5L31.1,10.5
		C31.2,10.5,31.2,10.5,31.1,10.5C31.2,10.5,31.2,10.5,31.1,10.5C31.2,10.5,31.2,10.5,31.1,10.5z"/>
	<path class="st0" d="M31.1,3.6C31.1,3.6,31.1,3.6,31.1,3.6C31.1,3.6,31.2,3.6,31.1,3.6L31.1,3.6z"/>
	<path class="st0" d="M27.9,3.6c0,2.4,0,4.6,0,6.8c1.2,0,2.2,0,3.3,0c0-2.3,0-4.6,0-6.8C30,3.6,28.9,3.6,27.9,3.6z"/>
	<path class="st0" d="M62.3,27.8c0,1.2,0,2.2,0,3.3c2.3,0,4.5,0,6.7,0c0-1.1,0-2.2,0-3.3C66.6,27.8,64.5,27.8,62.3,27.8z"/>
	<path class="st0" d="M69,31.2C69,31.2,69.1,31.1,69,31.2C69.1,31.1,69.1,31.1,69,31.2C69,31.2,69,31.2,69,31.2z"/>
	<path class="st0" d="M72.4,45.1c-1.2,0-2.2,0-3.3,0c0,1.2,0,2.2,0,3.3c1.1,0,2.2,0,3.3,0C72.4,47.1,72.4,46.1,72.4,45.1z"/>
	<path class="st0" d="M69,48.4C69,48.4,69.1,48.4,69,48.4C69.1,48.4,69.1,48.4,69,48.4C69.1,48.4,69,48.4,69,48.4z"/>
	<path class="st0" d="M62.2,38.1C62.2,38.1,62.2,38,62.2,38.1C62.2,38,62.2,38,62.2,38.1C62.1,38,62.2,38.1,62.2,38.1z"/>
	<path class="st0" d="M62.2,34.8c0,1.2,0,2.2,0,3.3c1.1,0,2.2,0,3.3,0.1c0-1.1,0-2.3,0-3.3C64.3,34.8,63.3,34.8,62.2,34.8z"/>
	<path class="st0" d="M65.5,38.1C65.5,38.1,65.5,38.1,65.5,38.1C65.5,38.2,65.5,38.1,65.5,38.1C65.5,38.1,65.5,38.2,65.5,38.1
		C65.5,38.2,65.5,38.2,65.5,38.1C65.6,38.1,65.6,38.1,65.5,38.1C65.6,38.1,65.5,38.1,65.5,38.1z"/>
	<path class="st0" d="M51.9,41.5L51.9,41.5C51.8,41.5,51.8,41.5,51.9,41.5C51.9,41.5,51.9,41.5,51.9,41.5
		C51.8,41.5,51.8,41.5,51.9,41.5C51.8,41.5,51.8,41.5,51.9,41.5C51.8,41.5,51.8,41.5,51.9,41.5z"/>
	<path class="st0" d="M51.8,38.2c-1.3,0-2.3,0-3.4,0c0,1.2,0,2.2,0,3.3c1.1,0,2.3,0,3.4,0C51.8,40.4,51.8,39.3,51.8,38.2z"/>
	<path class="st0" d="M27.8,58.9c0,1.1,0,2.1,0,3.2c1.2,0,2.3,0,3.4,0c0-1.1,0-2.2,0-3.2C29.8,58.9,28.8,58.9,27.8,58.9z"/>
	<path class="st0" d="M45,41.5C45,41.5,45,41.5,45,41.5C45,41.5,44.9,41.5,45,41.5C44.9,41.5,44.9,41.5,45,41.5
		C44.9,41.5,45,41.5,45,41.5z"/>
	<path class="st0" d="M45,45L45,45C44.9,44.9,44.9,44.9,45,45C44.9,45,45,45,45,45C45,44.9,45,44.9,45,45C45,44.9,44.9,44.9,45,45
		C44.9,44.9,44.9,44.9,45,45z"/>
	<path class="st0" d="M45,41.5c0,1.1,0,2.3,0,3.4c1.1,0,2.3,0,3.4,0c0-1.1,0-2.3,0-3.4C47.2,41.5,46.1,41.5,45,41.5z"/>
	<path class="st0" d="M48.4,44.9C48.4,44.9,48.4,44.9,48.4,44.9C48.4,45,48.4,45,48.4,44.9C48.4,44.9,48.4,44.9,48.4,44.9
		C48.4,44.9,48.4,44.9,48.4,44.9z"/>
	<path class="st0" d="M48.4,41.5L48.4,41.5C48.4,41.5,48.4,41.5,48.4,41.5C48.4,41.5,48.4,41.5,48.4,41.5
		C48.4,41.5,48.4,41.5,48.4,41.5C48.4,41.5,48.4,41.5,48.4,41.5C48.4,41.5,48.4,41.5,48.4,41.5z"/>
	<path class="st0" d="M34.6,62.1C34.6,62.1,34.6,62.2,34.6,62.1C34.6,62.2,34.6,62.2,34.6,62.1L34.6,62.1z"/>
	<path class="st0" d="M31.2,62.1C31.2,62.1,31.3,62,31.2,62.1C31.2,62,31.2,62,31.2,62.1C31.2,62.1,31.2,62.1,31.2,62.1L31.2,62.1
		L31.2,62.1C31.2,62.1,31.2,62.1,31.2,62.1L31.2,62.1C31.2,62.1,31.2,62.1,31.2,62.1C31.3,62.1,31.3,62.1,31.2,62.1
		C31.3,62,31.2,62.1,31.2,62.1z"/>
	<path class="st0" d="M34.6,62.2c-1.1,0-2.2-0.1-3.3-0.1c0,1.2,0,2.3-0.1,3.5c1,0,2.1,0,3.4,0C34.6,64.4,34.6,63.3,34.6,62.2z"/>
	<path class="st0" d="M31.2,65.6C31.2,65.6,31.2,65.6,31.2,65.6C31.1,65.6,31.1,65.6,31.2,65.6C31.2,65.6,31.2,65.6,31.2,65.6
		C31.2,65.6,31.2,65.6,31.2,65.6z"/>
	<path class="st0" d="M48.4,58.7c0-1.1,0-2.1,0-3.4c-1.2,0-2.3,0-3.4,0c0,1.1,0,2.3,0,3.4C46.1,58.7,47.2,58.7,48.4,58.7z"/>
	<path class="st0" d="M45,58.7C45,58.7,44.9,58.7,45,58.7C44.9,58.7,44.9,58.7,45,58.7C44.9,58.7,45,58.7,45,58.7
		C45,58.7,45,58.7,45,58.7z"/>
	<path class="st0" d="M45,55.3C45,55.3,45,55.3,45,55.3C45,55.2,44.9,55.2,45,55.3C44.9,55.3,44.9,55.3,45,55.3
		C44.9,55.3,45,55.3,45,55.3z"/>
	<path class="st0" d="M48.4,58.7L48.4,58.7C48.4,58.7,48.4,58.7,48.4,58.7C48.4,58.7,48.4,58.7,48.4,58.7
		C48.4,58.7,48.4,58.7,48.4,58.7C48.4,58.7,48.4,58.7,48.4,58.7C48.4,58.7,48.4,58.7,48.4,58.7z"/>
	<path class="st0" d="M62.3,65.5c1.1,0,2.1,0,3.2,0c0-1.1,0-2.1,0-3.2c-1.2,0-2.2,0-3.2,0C62.3,63.5,62.3,64.5,62.3,65.5z"/>
	<path class="st0" d="M34.5,0.3c-1.2,0-2.2,0-3.3,0c0,1.2,0,2.2,0,3.3c1.1,0,2.2,0,3.3,0C34.5,2.3,34.5,1.3,34.5,0.3z"/>
	<path class="st0" d="M31.1,3.6C31.1,3.6,31.2,3.6,31.1,3.6C31.2,3.6,31.2,3.6,31.1,3.6C31.2,3.6,31.1,3.6,31.1,3.6z"/>
	<path class="st0" d="M51.7,72.4c0-1.2,0-2.2,0-3.3c-1.2,0-2.2,0-3.3,0c0,1.1,0,2.2,0,3.3C49.7,72.4,50.7,72.4,51.7,72.4z"/>
	<path class="st0" d="M48.4,69C48.4,69,48.3,69.1,48.4,69C48.4,69.1,48.4,69.1,48.4,69C48.4,69.1,48.4,69,48.4,69z"/>
	<path class="st0" d="M55.4,72.4c1.1,0,2.2,0,3.2,0c0-1.2,0-2.2,0-3.2c-1.1,0-2.1,0-3.2,0C55.4,70.3,55.4,71.3,55.4,72.4z"/>
	<path class="st0" d="M65.7,72.4c1.1,0,2.1,0,3.1,0c0-1.3,0-2.3,0-3.3c-1.1,0-2.1,0-3.1,0C65.7,70.3,65.7,71.3,65.7,72.4z"/>
	<path class="st0" d="M17.3,7.2c-3.4,0-6.7,0-10.1,0c0,3.4,0,6.7,0,10c3.5,0,6.8,0,10.1,0C17.3,13.8,17.3,10.6,17.3,7.2z"/>
	<path class="st0" d="M65.5,7.2c-3.5,0-6.8,0-10.1,0c0,3.4,0,6.7,0,10.1c3.5,0,6.8,0,10.1,0C65.5,13.8,65.5,10.5,65.5,7.2z"/>
	<path class="st0" d="M7.1,65.5c3.5,0,6.8,0,10.1,0c0-3.4,0-6.7,0-10.1c-3.4,0-6.8,0-10.1,0C7.1,58.8,7.1,62.1,7.1,65.5z"/>
</g>
</svg>
