<?xml version="1.0" encoding="utf-8"?>
<!-- Generator: Adobe Illustrator 24.1.1, SVG Export Plug-In . SVG Version: 6.00 Build 0)  -->
<!DOCTYPE svg PUBLIC "-//W3C//DTD SVG 1.1//EN" "http://www.w3.org/Graphics/SVG/1.1/DTD/svg11.dtd" [
	<!ENTITY ns_extend "http://ns.adobe.com/Extensibility/1.0/">
	<!ENTITY ns_ai "http://ns.adobe.com/AdobeIllustrator/10.0/">
	<!ENTITY ns_graphs "http://ns.adobe.com/Graphs/1.0/">
	<!ENTITY ns_vars "http://ns.adobe.com/Variables/1.0/">
	<!ENTITY ns_imrep "http://ns.adobe.com/ImageReplacement/1.0/">
	<!ENTITY ns_sfw "http://ns.adobe.com/SaveForWeb/1.0/">
	<!ENTITY ns_custom "http://ns.adobe.com/GenericCustomNamespace/1.0/">
	<!ENTITY ns_adobe_xpath "http://ns.adobe.com/XPath/1.0/">
]>
<svg version="1.1" id="ic_dark_staking_on" xmlns:x="&ns_extend;" xmlns:i="&ns_ai;" xmlns:graph="&ns_graphs;"
	 xmlns="http://www.w3.org/2000/svg" xmlns:xlink="http://www.w3.org/1999/xlink" x="0px" y="0px" viewBox="0 0 100 100"
	 style="enable-background:new 0 0 100 100;" xml:space="preserve">
<style type="text/css">
	.st0{fill:none;}
	.st1{fill-rule:evenodd;clip-rule:evenodd;fill:#59c9c9;}
	.st2{fill:#00D3D5;}
	.st3{fill-rule:evenodd;clip-rule:evenodd;fill:#FFFFFF;}
</style>
<metadata>
	<sfw  xmlns="&ns_sfw;">
		<slices></slices>
		<sliceSourceBounds  bottomLeftOrigin="true" height="100" width="100" x="0" y="0"></sliceSourceBounds>
	</sfw>
</metadata>
<path id="Rectangle_4709" class="st0" d="M0,0h100v100H0V0z"/>
<g>
	<g>
		<path class="st1" d="M14.5,24.4c-0.4-0.5-0.7-0.8-1-1.2c-0.9-1.1-0.8-2.5,0.2-3.5c0.6-0.6,1.2-1.2,1.8-1.7c1.1-1,2.4-1,3.5,0
			c0.3,0.3,0.7,0.6,1,0.9c3.8-3,8-5.1,12-7.6c1.6-1,3.3-2,4.9-2.9c1-0.6,2.1-0.5,2.9,0.3c0.8,0.8,0.8,1.9,0.1,2.9
			c-3.2,4.6-6.5,9.1-9.7,13.7c-0.4,0.5-0.8,1-1.2,1.5c-0.1,0.2-0.1,0.5,0,0.6c0.6,0.8,1.3,1.5,1.8,2.3c1.8,2.9,4.2,5.2,6.6,7.6
			c3.8,3.8,7.5,7.5,11.3,11.3c1.3,1.3,1.4,1.4,2.7,0.1C56.6,43.5,61.8,38.3,67,33c0.4-0.4,0.7-0.9,1.1-1.4c1.1-1.5,2.2-3,3.2-4.5
			C67.7,22,64,16.9,60.4,11.7c-0.7-1-0.7-2.1,0-2.9c0.7-0.8,1.8-1,2.9-0.3c4.8,2.8,9.5,5.7,14.2,8.6c0.8,0.5,1.5,1.1,2.2,1.7
			c0.3,0.3,0.5,0.3,0.8,0c0.6-0.6,1.2-1.2,2.2-1.3c0.7,0,1.4,0.2,1.9,0.7c0.6,0.6,1.3,1.2,1.9,1.8c1,1,1,2.4,0.2,3.5
			c-0.9,1.2-0.9,1.1,0.2,2.2c2.5,2.4,5,4.9,7.5,7.3c1.3,1.2,1.3,2.8,0.1,4.1c-1.4,1.5-2.9,3-4.3,4.5c-1.1,1.1-2.7,1.2-3.9,0
			c-2.6-2.5-5.1-5-7.7-7.5c-0.2-0.2-0.4-0.3-0.5-0.4c-3.3,2.7-6.8,5.2-9.6,8.4c-4,3.9-8,7.9-12,12.1c-0.3,0.3-0.5,0.6-0.8,0.9
			c0.5,0.5,1,1,1.5,1.4c3.5,3.5,7,7,10.5,10.6c1.9,2,3.8,4,5.8,6c3.7,3.8,7.4,7.6,11.1,11.4c1.5,1.5,1.5,3.3-0.1,4.7
			c-0.6,0.6-1.2,1.2-1.8,1.8c-1.4,1.3-3.2,1.3-4.6-0.1c-6.6-6.8-13.3-13.7-19.9-20.6c-2.8-2.9-5.5-5.8-8.3-8.7c0,0-0.2,0.1-0.2,0.2
			c-4.8,5-9.6,10.1-14.4,15.1c-4.4,4.6-8.9,9.2-13.3,13.8c-1.6,1.6-3.3,1.6-4.9,0.1c-0.6-0.5-1.1-1.1-1.7-1.6
			c-1.5-1.5-1.5-3.2,0-4.7c3.8-3.9,7.6-7.9,11.4-11.8c4.6-4.7,9.1-9.4,13.7-14.1c1-1,2.1-2,3.2-3c0.2-0.2,0.4-0.4,0.7-0.6
			c-1.7-1.8-3.2-3.6-4.9-5.3c-3.6-3.8-7.3-7.5-11-11.2c-0.9-0.9-2-1.7-3.1-2.5c-1.1-0.9-2.2-1.7-3.3-2.7c-0.1,0.1-0.3,0.2-0.4,0.4
			c-2.5,2.4-5,4.9-7.6,7.3c-1.3,1.3-2.9,1.3-4.2,0c-1.4-1.4-2.7-2.8-4.1-4.2c-1.3-1.4-1.3-2.9,0.1-4.3c2.7-2.6,5.4-5.3,8.2-7.9
			C14.1,24.6,14.3,24.5,14.5,24.4z"/>
		<path class="st2" d="M80.5,93.1c-1.1,0-2.1-0.5-3-1.4c-6.7-6.9-13.3-13.7-20-20.6c-1.9-1.9-3.7-3.9-5.6-5.9l-2-2.1l-4.3,4.5
			c-3.2,3.4-6.4,6.7-9.6,10.1c-3.1,3.2-6.2,6.4-9.3,9.6l-4,4.2c-1,1-2,1.5-3.1,1.5s-2.2-0.5-3.2-1.5L14.7,90
			c-1.9-1.9-1.9-4.2-0.1-6.1l4.5-4.7c2.3-2.4,4.6-4.7,6.8-7.1c4.6-4.7,9.1-9.4,13.7-14.1c0.7-0.7,1.5-1.4,2.2-2.1
			c0.3-0.3,0.6-0.6,0.9-0.8c-0.3-0.3-0.6-0.6-0.9-1c-1.1-1.3-2.2-2.4-3.3-3.6c-4-4.1-7.6-7.8-11-11.2c-0.6-0.6-1.3-1.1-2-1.7
			c-0.3-0.2-0.6-0.5-1-0.7c-0.7-0.6-1.5-1.2-2.2-1.7l-0.5-0.4l-0.8,1c-2.1,2-4.2,4-6.2,6.1c-1.7,1.7-3.9,1.7-5.6,0
			C8,40.7,7,39.6,5.9,38.5l-0.8-0.9c-1.7-1.8-1.7-4,0.1-5.7c2.6-2.5,5.2-5.1,7.9-7.6c-0.1-0.1-0.2-0.3-0.3-0.4
			c-1.2-1.5-1.1-3.4,0.2-4.8c0.7-0.7,1.3-1.3,1.8-1.8c1.4-1.3,3.3-1.3,4.8,0l0.4,0.4c2.4-1.8,5-3.4,7.6-4.8c1.3-0.8,2.6-1.5,3.9-2.3
			c1.2-0.8,2.5-1.5,3.7-2.3l1.2-0.7c1.4-0.9,3-0.7,4.1,0.4s1.2,2.8,0.2,4.1c-3.2,4.6-6.5,9.1-9.7,13.7c-0.2,0.3-0.4,0.5-0.6,0.8
			c-0.1,0.1-0.2,0.3-0.4,0.4c0.2,0.2,0.3,0.4,0.5,0.6c0.4,0.5,0.8,0.9,1.1,1.5c1.6,2.5,3.6,4.5,5.8,6.7l0.7,0.7
			c3.8,3.8,7.5,7.5,11.3,11.3c0.2,0.2,0.5,0.5,0.7,0.6c0.2-0.2,0.4-0.4,0.6-0.6c5.2-5.2,10.4-10.4,15.6-15.7
			c0.2-0.2,0.5-0.6,0.7-0.9c0.1-0.1,0.2-0.3,0.3-0.4c0.8-1.1,1.6-2.3,2.4-3.4l0.4-0.5L59.4,12.1c-1-1.4-0.9-3,0.1-4.1
			c1.1-1.2,2.7-1.4,4.2-0.5c4.8,2.8,9.5,5.7,14.3,8.6c0.8,0.5,1.5,1,2.1,1.6c0.6-0.6,1.4-1.2,2.6-1.3c1-0.1,1.9,0.2,2.6,0.9
			c0.6,0.6,1.3,1.2,1.9,1.8c1.3,1.4,1.4,3.3,0.2,4.8c-0.1,0.1-0.2,0.3-0.3,0.4c0.1,0.1,0.3,0.3,0.4,0.4c2.5,2.5,5.1,4.9,7.6,7.3
			c1.7,1.6,1.7,3.8,0.2,5.4c-1.3,1.4-2.8,2.9-4.3,4.5c-1.5,1.5-3.7,1.5-5.3,0.1c-1.8-1.7-3.5-3.4-5.3-5.1l-2.3-2.2
			c-0.4,0.3-0.7,0.6-1.1,0.9c-2.8,2.2-5.4,4.3-7.7,6.9c-2.6,2.9-5.4,5.8-8.1,8.5c-1.2,1.3-2.5,2.6-3.7,3.9L57.4,55
			c0.3,0.3,0.6,0.5,0.9,0.8l1.7,1.7c2.9,3,5.8,5.9,8.8,8.9c1.1,1.1,2.2,2.3,3.3,3.4c0.8,0.9,1.6,1.7,2.5,2.6
			c2.1,2.1,4.1,4.3,6.2,6.4l4.9,5c1.9,1.9,1.8,4.3-0.1,6.1c-0.6,0.6-1.2,1.2-1.9,1.8C82.5,92.6,81.5,93.1,80.5,93.1z M50,60.8
			c0.3,0,0.5,0.1,0.7,0.3l2.7,2.8c1.9,2,3.7,3.9,5.6,5.9c6.6,6.9,13.2,13.7,19.9,20.5c1,1,2.2,1,3.2,0.1c0.6-0.6,1.2-1.2,1.8-1.8
			c1.1-1.1,1.1-2.2,0-3.3l-4.9-5c-2.1-2.1-4.1-4.3-6.2-6.4c-0.8-0.9-1.6-1.7-2.5-2.6c-1.1-1.1-2.2-2.3-3.3-3.4
			c-2.9-3-5.8-5.9-8.8-8.9l-1.7-1.7c-0.3-0.3-0.6-0.6-1-0.9L55,55.9c-0.4-0.4-0.4-0.9-0.1-1.4l0.2-0.3c0.2-0.2,0.4-0.5,0.6-0.7
			c1.2-1.3,2.5-2.6,3.7-3.9c2.7-2.8,5.4-5.6,8-8.5c2.4-2.7,5.2-4.9,8-7.1c0.6-0.5,1.2-0.9,1.8-1.4c0.4-0.3,0.9-0.3,1.3,0l0.1,0.1
			c0.1,0.1,0.3,0.2,0.4,0.4l2.4,2.3c1.8,1.7,3.5,3.4,5.3,5.1c0.8,0.7,1.8,0.7,2.5,0c1.6-1.6,3-3,4.3-4.4c1-1.1,0.5-2.1-0.1-2.7
			c-2.5-2.4-5-4.9-7.5-7.3c-1.5-1.4-1.5-2-0.2-3.5c0.6-0.7,0.5-1.5-0.1-2.1s-1.2-1.2-1.8-1.8c-0.3-0.3-0.7-0.4-1.2-0.4
			s-0.9,0.4-1.5,0.9c-0.4,0.4-1.2,0.9-2.2,0.1l-0.2-0.2c-0.6-0.5-1.3-1-1.9-1.4c-4.7-2.9-9.5-5.7-14.2-8.6C62.2,9,61.5,8.7,61,9.3
			s-0.2,1.3,0.1,1.6L72,26.3c0.2,0.3,0.2,0.8,0,1.2l-0.8,1.1c-0.8,1.1-1.6,2.2-2.4,3.4c-0.1,0.1-0.2,0.2-0.3,0.4
			c-0.3,0.4-0.5,0.8-0.9,1.2C62.4,38.7,57.2,44,52,49.2c-0.7,0.7-1.3,1.3-2.1,1.3c-0.7,0-1.2-0.5-2-1.3c-3.8-3.8-7.5-7.5-11.3-11.3
			l-0.7-0.7c-2.1-2.1-4.4-4.4-6-7.1c-0.3-0.4-0.6-0.8-1-1.3c-0.3-0.3-0.5-0.6-0.8-1c-0.4-0.5-0.3-1.3,0-1.8c0.2-0.3,0.4-0.5,0.6-0.8
			c0.2-0.2,0.4-0.4,0.5-0.7c3.2-4.5,6.5-9.1,9.7-13.7c0.3-0.4,0.5-1,0-1.6s-1.2-0.4-1.6-0.1l-1.2,0.7c-1.2,0.7-2.5,1.5-3.7,2.2
			c-1.3,0.8-2.7,1.6-4,2.4c-2.7,1.6-5.5,3.2-8,5.2c-0.4,0.3-0.9,0.3-1.3,0l-1-0.9c-0.7-0.6-1.5-0.6-2.1,0c-0.5,0.5-1.1,1-1.8,1.7
			c-0.6,0.6-0.7,1.4-0.1,2.1c0.2,0.2,0.4,0.5,0.6,0.7l0.4,0.4c0.2,0.2,0.3,0.5,0.2,0.8c0,0.3-0.2,0.5-0.4,0.7l-0.2,0.1
			c0,0-0.1,0-0.1,0.1c-2.7,2.6-5.4,5.3-8.1,7.9c-1,1-1,1.9-0.1,2.9L7.2,37c1.1,1.1,2.1,2.2,3.2,3.3c0.9,0.9,1.8,0.9,2.8,0
			c2.1-2,4.2-4,6.2-6.1l1.3-1.3c0.1-0.1,0.3-0.3,0.4-0.4l0.1-0.1c0.4-0.3,0.9-0.3,1.3,0l1.1,0.9c0.8,0.6,1.5,1.2,2.2,1.8
			c0.3,0.2,0.6,0.5,0.9,0.7c0.8,0.6,1.5,1.2,2.2,1.9c3.4,3.4,7,7.1,11,11.2c1.1,1.2,2.3,2.4,3.4,3.7c0.5,0.6,1,1.1,1.5,1.7
			c0.2,0.2,0.3,0.5,0.3,0.7c0,0.3-0.1,0.5-0.3,0.7L44.7,56c-0.2,0.1-0.3,0.3-0.4,0.4c-0.3,0.3-0.7,0.6-1,0.9c-0.7,0.7-1.5,1.3-2.1,2
			C36.6,64,32,68.7,27.5,73.4c-2.3,2.4-4.6,4.7-6.8,7.1l-4.5,4.7c-1.1,1.1-1.1,2.3,0,3.3l1.7,1.6c0.6,0.6,1.2,0.9,1.8,0.9
			c0.6,0,1.2-0.3,1.7-0.9l4.1-4.2c3.1-3.2,6.2-6.4,9.2-9.6c3.2-3.3,6.4-6.7,9.6-10.1l4.8-5.1c0.1-0.1,0.3-0.2,0.4-0.3
			C49.5,60.8,49.7,60.8,50,60.8z"/>
	</g>
	<g>
		<path class="st1" d="M72.2,46.6c-0.1,0.3-0.1,0.7-0.3,1c-0.4,1.2-1.2,2.2-2.3,2.8c-0.3,0.2-0.6,0.3-0.9,0.4
			c-0.1,0-0.2,0.1-0.2,0.2c-0.1,0-0.2,0-0.2,0c-4.3,0-8.6,0-13,0C55,51,55,51,55,50.7c0-3.1,0-6.2,0-9.2c0-0.4,0-0.3,0.3-0.3
			c3.2,0,6.5,0,9.7,0c0.1,0,0.2,0,0.2,0c0.1,0.1,0.2,0,0.3,0c0.5,0,1.1,0,1.6,0c0.6,0,1.3,0.1,1.9,0.3c1.4,0.6,2.4,1.6,2.9,3
			c0.1,0.4,0.2,0.8,0.3,1.1C72.2,46,72.2,46.3,72.2,46.6z"/>
		<path class="st1" d="M45,75.7c-0.1,0.1-0.2,0-0.3,0c-2.7,0-5.3,0-8,0c-0.9,0-1.8-0.2-2.6-0.6c-1.4-0.7-2.2-1.9-2.5-3.4
			c-0.1-0.4-0.1-0.8-0.1-1.2c0-5.6,0-11.1,0-16.7c0-0.1,0-0.2,0-0.3c0.1,0,0.2,0,0.2,0c4.3,0,8.6,0,12.9,0c0.3,0,0.3,0,0.3,0.3
			c0,7.2,0,14.4,0,21.6C45.1,75.5,45,75.6,45,75.7z"/>
		<path class="st1" d="M68.5,53.5c0,0.1,0,0.2,0,0.3c0,5.7,0,11.3,0,17c0,1.2-0.4,2.3-1.2,3.2c-0.7,0.9-1.7,1.3-2.8,1.6
			c-0.2,0-0.4,0.1-0.6,0.1c-2.9,0-5.8,0-8.7,0c-0.1,0-0.1,0-0.2,0c0-0.1,0-0.2,0-0.3c0-7.2,0-14.4,0-21.5c0-0.4,0-0.3,0.3-0.3
			c4.3,0,8.6,0,12.9,0C68.3,53.5,68.4,53.5,68.5,53.5z"/>
		<path class="st1" d="M31.6,51c0-0.1-0.1-0.2-0.2-0.2c-1-0.3-1.9-0.9-2.5-1.8c-0.5-0.7-0.8-1.5-0.9-2.4c-0.1-0.4,0-0.7,0-1.1
			c0.1-0.6,0.2-1.1,0.5-1.6c0.7-1.4,1.9-2.2,3.4-2.6c0.6-0.1,1.3-0.1,1.9-0.1c0.4,0,0.8,0,1.3,0c3.3,0,6.6,0,9.8,0
			c0.3,0,0.3,0.1,0.3,0.3c0,3.1,0,6.2,0,9.3c0,0.2,0,0.3-0.2,0.3C40.4,51,36,51,31.6,51C31.6,51.1,31.6,51,31.6,51z"/>
		<g>
			<path class="st3" d="M31.6,53.5c-0.1-0.3,0-0.7,0-1c0-0.5,0-0.9,0-1.4c0.1,0,0.2,0,0.2,0c4.3,0,8.6,0,13,0c0.2,0,0.3,0.1,0.3,0.3
				c0,0.6,0,1.3,0,1.9c0,0.1,0,0.2-0.2,0.2C40.4,53.5,36,53.5,31.6,53.5L31.6,53.5z"/>
		</g>
		<g>
			<path class="st3" d="M68.5,51.1c0,0.8,0,1.6,0,2.4c-0.1,0-0.2,0-0.3,0c-4.3,0-8.6,0-12.9,0c-0.4,0-0.3,0-0.3-0.3
				c0-0.6,0-1.2,0-1.9c0-0.2,0.1-0.3,0.3-0.3c2.8,0,5.5,0,8.3,0c1.6,0,3.1,0,4.7,0C68.3,51.1,68.4,51.1,68.5,51.1z"/>
		</g>
		<g>
			<path class="st2" d="M61.4,33.5c0.1,0,0.2,0,0.3,0l0,0c0.8,0.1,1.4,0.5,1.8,1.2c0.5,0.9,1.1,1.9,1.6,2.8c0.3,0.5,0.6,1.1,0.9,1.6
				c0.5,0.9,0.1,1.7-0.9,1.9c-0.1,0-0.2,0-0.2,0c-3.2,0-6.5,0-9.7,0c-0.4,0-0.3,0-0.3,0.3c0,3.1,0,6.2,0,9.2c0,0.3,0,0.3,0.3,0.3
				c4.3,0,8.6,0,13,0c0.1,0,0.2,0,0.2,0s0,0,0,0.1c-0.1,0-0.2,0-0.3,0c-1.6,0-3.1,0-4.7,0c-2.8,0-5.5,0-8.3,0
				c-0.2,0-0.3,0.1-0.3,0.3c0,0.6,0,1.2,0,1.9c0,0.3,0,0.3,0.3,0.3c4.3,0,8.6,0,12.9,0c0.1,0,0.2,0,0.3,0l0,0c-0.1,0-0.2,0-0.3,0
				c-4.3,0-8.6,0-12.9,0c-0.4,0-0.3,0-0.3,0.3c0,7.2,0,14.4,0,21.5c0,0.1,0,0.2,0,0.3c-0.1,0.1-0.2,0-0.3,0c-3.1,0-6.3,0-9.4,0
				c-0.1,0-0.2,0-0.3-0.1c0-0.1,0-0.2,0-0.2c0-7.2,0-14.4,0-21.6c0-0.3,0-0.3-0.3-0.3c-4.3,0-8.6,0-12.9,0c-0.1,0-0.2,0-0.2,0l0,0
				l0,0c4.4,0,8.8,0,13.3,0c0.2,0,0.2-0.1,0.2-0.2c0-0.6,0-1.3,0-1.9c0-0.2,0-0.3-0.3-0.3c-4.3,0-8.6,0-13,0c-0.1,0-0.2,0-0.2,0l0,0
				h0.1c4.4,0,8.8,0,13.2,0c0.2,0,0.2-0.1,0.2-0.3c0-3.1,0-6.2,0-9.3c0-0.2,0-0.3-0.3-0.3c-3.3,0-6.6,0-9.8,0c-0.1,0-0.1,0-0.2,0
				c-0.7-0.1-1.1-0.7-1-1.4c0-0.2,0.1-0.4,0.2-0.6c0.9-1.5,1.7-3.1,2.6-4.6c0.3-0.5,0.8-0.8,1.4-1c0.1,0,0.2,0,0.3-0.1
				c0.1,0,0.3,0,0.4,0l0,0c0.5,0,0.8,0.2,1.2,0.5c1.8,1.3,3.7,2.6,5.5,3.9c0.2,0.1,0.2,0.2,0.4-0.1c0.7-1,1.6-1.5,2.7-1.6
				c1-0.1,1.9,0,2.9,0c1.2,0,2.2,0.6,2.9,1.6c0.1,0.2,0.2,0.2,0.4,0.1c1.5-1.1,3-2.1,4.6-3.2c0.5-0.3,0.9-0.7,1.5-1
				C60.9,33.6,61.2,33.6,61.4,33.5z"/>
			<path class="st2" d="M73,45.2c0-0.1,0-0.1,0-0.2l0-0.1c0-0.1-0.1-0.2-0.1-0.3c0-0.1-0.1-0.3-0.1-0.4c-0.6-1.7-1.7-2.9-3.3-3.5
				c-0.5-0.3-1.2-0.4-2-0.4c0.1-0.5,0-1-0.2-1.5c-0.1-0.2-0.2-0.4-0.4-0.6c-0.1-0.2-0.2-0.4-0.3-0.6l-0.9-1.5
				c-0.4-0.6-0.7-1.1-1-1.7c-0.5-1-1.3-1.5-2.2-1.6c-0.2-0.1-0.3-0.1-0.4-0.1h-0.6l-0.1,0.1c0,0,0,0-0.1,0l-0.1,0l-0.1,0.1
				c0,0-0.1,0-0.1,0c-0.1,0-0.2,0.1-0.3,0.1c-0.5,0.3-0.8,0.5-1.3,0.8c0,0-0.1,0.1-0.2,0.1c-0.1,0.1-0.2,0.1-0.2,0.2
				c-1.3,0.9-2.6,1.9-4,2.8c-0.9-1-2-1.5-3.3-1.5c-0.3,0-0.7,0-1,0c-0.7,0-1.4,0-2,0c-1.2,0.1-2.2,0.6-3,1.5c-1-0.7-2.1-1.4-3.1-2.2
				l-2-1.4l-0.1-0.1c-0.3-0.2-0.7-0.5-1.3-0.6c-0.2-0.1-0.3-0.1-0.4-0.1h-0.4c-0.1,0-0.2,0-0.4,0.1l-0.1,0c-0.8,0.2-1.4,0.7-1.9,1.3
				c-0.7,1.3-1.4,2.5-2.1,3.7l-0.4,0.9C33.1,39,33,39.3,33,39.6c0,0.2,0,0.5,0,0.7c-0.4,0-0.9,0-1.4,0.1c-1.8,0.4-3.1,1.5-4,3
				c-0.4,0.6-0.5,1.3-0.6,1.7l0,0.2c-0.1,0.5-0.1,1,0,1.4c0.1,1.2,0.6,2.2,1.1,2.7c0.7,0.9,1.6,1.5,2.6,2l0,0.2l0.1,0.1
				c0.1,0.1,0.3,0.3,0.6,0.3h12.7v0.6H31.6c-0.3,0-0.6,0.2-0.7,0.4c0,0,0,0-0.1,0l-0.1,0.1c-0.1,0.3-0.1,0.4-0.1,0.6
				c0,0.1,0,0.2,0.1,0.3v16.4c0,0.4,0,0.9,0.1,1.3c0.4,1.8,1.4,3.2,2.9,4c0.8,0.5,1.7,0.7,3,0.7h8c0.3,0.1,0.5,0.1,0.6,0.1h9.5
				c0.1,0,0.2,0,0.3-0.1h0.1c2.8,0,5.8,0,8.7,0.1c0.2,0,0.6,0,0.8-0.1c1.3-0.3,2.4-0.9,3.2-1.9c0.9-1,1.5-2.4,1.5-3.8v-17
				c0,0,0-0.1,0-0.1l0,0c0-0.2,0-0.5-0.2-0.7c-0.1-0.1-0.3-0.3-0.6-0.3h-0.1H56V52h12.3h0.3h0.1c0.2,0,0.5-0.1,0.6-0.3
				c0,0,0.1-0.1,0.1-0.1c0.2-0.1,0.4-0.2,0.6-0.3c1.3-0.7,2.3-1.9,2.7-3.3c0-0.2,0.1-0.3,0.1-0.4c0-0.1,0-0.2,0.1-0.3
				c0.1-0.2,0.1-0.3,0.1-0.5v-1.3C73.1,45.4,73,45.2,73,45.2z M32.4,54.5h11.7V75h-7.3c-0.8,0-1.5-0.1-2.2-0.5
				c-1.2-0.6-1.9-1.5-2.2-2.9c-0.1-0.4-0.1-0.6-0.1-1V54.5z M34.5,39.9c0-0.1,0-0.2,0-0.2l0.5-1c0.7-1.3,1.4-2.5,2.1-3.7
				c0.2-0.3,0.5-0.5,0.8-0.6c0,0,0.2,0,0.4-0.1h0.2c0.1,0,0.3,0,0.7,0.3l2,1.4l0.7,0.5c0.9,0.7,1.9,1.4,2.8,2
				c0.1,0.1,0.4,0.4,0.9,0.3c0.3-0.1,0.5-0.3,0.6-0.4c0,0,0,0,0.1-0.1l0-0.1c0.4-0.8,1.1-1.2,2.1-1.3l2.9,0c1,0.1,1.7,0.5,2.3,1.2
				c0.1,0.2,0.4,0.5,0.7,0.6l0.1,0c0.3,0,0.6-0.1,0.8-0.3l1.1-0.8c1.2-0.8,2.3-1.6,3.5-2.5c0,0,0.1-0.1,0.2-0.1
				c0.1-0.1,0.2-0.1,0.2-0.2c0.3-0.3,0.5-0.4,0.9-0.6l0.1-0.1c0,0,0,0,0.1,0c0.1,0,0.2,0,0.3-0.1l0.2,0c0.6,0.1,1,0.4,1.2,0.8
				c0.2,0.3,0.3,0.6,0.5,0.9c0.2,0.3,0.3,0.5,0.5,0.8l0.9,1.5c0.3,0.4,0.5,0.8,0.7,1.2c0.1,0.2,0.1,0.4,0.1,0.5
				c0,0.1-0.2,0.2-0.4,0.2h-9.8h-0.1c-0.2,0-0.5,0-0.8,0.3c-0.3,0.3-0.3,0.6-0.3,0.8v33.5H46V53.7c0-0.2,0-0.4-0.2-0.7v-1.7
				c0.1-0.2,0.2-0.4,0.2-0.6v-9.3c0-0.1,0-0.5-0.3-0.8c-0.3-0.3-0.7-0.3-0.8-0.3H34.6C34.5,40.2,34.5,40.1,34.5,39.9z M44.2,42v8.2
				h-7c-1.2,0-2.4,0-3.6-0.1h-1.7c0,0-0.1,0-0.1-0.1c-0.1-0.1-0.2-0.1-0.3-0.1c-0.9-0.3-1.6-0.8-2.1-1.5c-0.4-0.5-0.7-1.2-0.8-2
				c-0.1-0.2-0.1-0.5,0-0.8c0.1-0.5,0.2-1,0.5-1.4c0.6-1.1,1.5-1.9,2.8-2.1c0.5-0.1,1.1-0.1,1.6-0.1h1.2H44.2z M68.3,50.1
				C68.3,50.1,68.3,50.1,68.3,50.1c-0.1,0.1-0.2,0.1-0.2,0.1h-12v-8.1h9h0.2h1.9c0.6,0,1.1,0.1,1.6,0.3c1.2,0.4,1.9,1.2,2.4,2.5
				c0,0.1,0,0.2,0.1,0.3c0,0.1,0,0.1,0,0.2c0,0.1,0,0.3,0.1,0.6v0.6c-0.1,0.1-0.1,0.2-0.1,0.3c0,0.1-0.1,0.2-0.1,0.3
				c0,0.1,0,0.2-0.1,0.3c-0.4,1-1,1.8-2,2.3c-0.2,0.1-0.5,0.2-0.8,0.3L68.3,50.1z M67.7,54.4v16.4c0,1-0.3,1.8-1,2.7
				c-0.5,0.7-1.2,1.1-2.3,1.4h-8.6V54.4H67.7z"/>
		</g>
	</g>
</g>
</svg>
