<?xml version="1.0" encoding="UTF-8" standalone="no"?>
<!-- Generator: Adobe Illustrator 24.1.1, SVG Export Plug-In . SVG Version: 6.00 Build 0)  -->

<svg
   xmlns:ns="&amp;ns_sfw;"
   xmlns:dc="http://purl.org/dc/elements/1.1/"
   xmlns:cc="http://creativecommons.org/ns#"
   xmlns:rdf="http://www.w3.org/1999/02/22-rdf-syntax-ns#"
   xmlns:svg="http://www.w3.org/2000/svg"
   xmlns="http://www.w3.org/2000/svg"
   xmlns:sodipodi="http://sodipodi.sourceforge.net/DTD/sodipodi-0.dtd"
   xmlns:inkscape="http://www.inkscape.org/namespaces/inkscape"
   version="1.1"
   id="ic_empty_Dark_masternode"
   x="0px"
   y="0px"
   viewBox="0 0 100 100"
   style="enable-background:new 0 0 100 100;"
   xml:space="preserve"
   sodipodi:docname="img-empty-dark-masternode.svg"
   inkscape:version="0.92.4 (5da689c313, 2019-01-14)"><defs
   id="defs28">
	
	

		
		
		
	
		
		
		
	</defs><sodipodi:namedview
   pagecolor="#ffffff"
   bordercolor="#666666"
   borderopacity="1"
   objecttolerance="10"
   gridtolerance="10"
   guidetolerance="10"
   inkscape:pageopacity="0"
   inkscape:pageshadow="2"
   inkscape:window-width="1920"
   inkscape:window-height="1016"
   id="namedview26"
   showgrid="false"
   inkscape:zoom="2.36"
   inkscape:cx="50.847458"
   inkscape:cy="50"
   inkscape:window-x="0"
   inkscape:window-y="27"
   inkscape:window-maximized="1"
   inkscape:current-layer="ic_empty_Dark_masternode" />
<style
   type="text/css"
   id="style2">
	.st0{fill:none;}
	.st1{fill:#154e46;}
	.st2{fill:#0f5f54;}
</style>
<metadata
   id="metadata4">
	<ns:sfw>
		<ns:slices />
		<ns:sliceSourceBounds
   bottomLeftOrigin="true"
   height="100"
   width="100"
   x="0"
   y="0" />
	</ns:sfw>
<rdf:RDF><cc:Work
     rdf:about=""><dc:format>image/svg+xml</dc:format><dc:type
       rdf:resource="http://purl.org/dc/dcmitype/StillImage" /><dc:title></dc:title></cc:Work></rdf:RDF></metadata>
<path
   id="Rectangle_4704"
   class="st0"
   d="M0,0h100v100H0V0z" />
<path
   class="st1"
   d="m 63.8,25.3 c 0,-7.6 -6.2,-13.8 -13.8,-13.8 -7.6,0 -13.8,6.2 -13.8,13.8 0,7.6 6.2,13.8 13.8,13.8 7.6,0.1 13.8,-6.1 13.8,-13.8 z"
   id="path7"
   inkscape:connector-curvature="0"
   style="fill:#59c9c9;fill-opacity:1" /><path
   class="st1"
   d="m 27.9,50.2 c -7.6,0 -13.8,6.2 -13.8,13.8 0,7.6 6.2,13.8 13.8,13.8 7.6,0 13.8,-6.2 13.8,-13.8 0,-7.6 -6.2,-13.8 -13.8,-13.8 z"
   id="path9"
   inkscape:connector-curvature="0"
   style="fill:#59c9c9;fill-opacity:1" /><path
   class="st1"
   d="m 72.1,50.2 c -7.6,0 -13.8,6.2 -13.8,13.8 0,7.6 6.2,13.8 13.8,13.8 7.6,0 13.8,-6.2 13.8,-13.8 C 86,56.4 79.8,50.2 72.1,50.2 Z"
   id="path11"
   inkscape:connector-curvature="0"
   style="fill:#59c9c9;fill-opacity:1" /><path
   class="st2"
   d="m 43.1,80.9 c 0,4.2 3.4,7.6 7.6,7.6 4.2,0 7.6,-3.4 7.6,-7.6 0,-4.2 -3.4,-7.6 -7.6,-7.6 -4.2,0.1 -7.6,3.5 -7.6,7.6 z"
   id="path15"
   inkscape:connector-curvature="0"
   style="fill:#59c9c9;fill-opacity:1" /><path
   class="st2"
   d="m 78,44.7 c 4.2,0 7.6,-3.4 7.6,-7.6 0,-4.2 -3.4,-7.6 -7.6,-7.6 -4.2,0 -7.6,3.4 -7.6,7.6 0,4.2 3.4,7.6 7.6,7.6 z"
   id="path17"
   inkscape:connector-curvature="0"
   style="fill:#59c9c9;fill-opacity:1" /><path
   class="st2"
   d="m 22,44.7 c 4.2,0 7.6,-3.4 7.6,-7.6 0,-4.2 -3.4,-7.6 -7.6,-7.6 -4.2,0 -7.6,3.4 -7.6,7.6 0,4.2 3.4,7.6 7.6,7.6 z"
   id="path19"
   inkscape:connector-curvature="0"
   style="fill:#59c9c9;fill-opacity:1" />
</svg>