<?xml version="1.0" encoding="utf-8"?>
<!-- Generator: Adobe Illustrator 24.1.1, SVG Export Plug-In . SVG Version: 6.00 Build 0)  -->
<!DOCTYPE svg PUBLIC "-//W3C//DTD SVG 1.1//EN" "http://www.w3.org/Graphics/SVG/1.1/DTD/svg11.dtd" [
	<!ENTITY ns_extend "http://ns.adobe.com/Extensibility/1.0/">
	<!ENTITY ns_ai "http://ns.adobe.com/AdobeIllustrator/10.0/">
	<!ENTITY ns_graphs "http://ns.adobe.com/Graphs/1.0/">
	<!ENTITY ns_vars "http://ns.adobe.com/Variables/1.0/">
	<!ENTITY ns_imrep "http://ns.adobe.com/ImageReplacement/1.0/">
	<!ENTITY ns_sfw "http://ns.adobe.com/SaveForWeb/1.0/">
	<!ENTITY ns_custom "http://ns.adobe.com/GenericCustomNamespace/1.0/">
	<!ENTITY ns_adobe_xpath "http://ns.adobe.com/XPath/1.0/">
]>
<svg version="1.1" id="Layer_1" xmlns:x="&ns_extend;" xmlns:i="&ns_ai;" xmlns:graph="&ns_graphs;"
	 xmlns="http://www.w3.org/2000/svg" xmlns:xlink="http://www.w3.org/1999/xlink" x="0px" y="0px" viewBox="0 0 100 100"
	 style="enable-background:new 0 0 100 100;" xml:space="preserve">
<style type="text/css">
	.st0{fill:#D6D6D6;}
	.st1{fill:#666666;}
	.st2{fill:none;}
</style>
<metadata>
	<sfw  xmlns="&ns_sfw;">
		<slices></slices>
		<sliceSourceBounds  bottomLeftOrigin="true" height="100" width="100" x="0" y="0"></sliceSourceBounds>
	</sfw>
</metadata>
<g id="ic_empty_peers">
	<g>
		<g>
			<circle class="st0" cx="50" cy="14.1" r="8.1"/>
			<circle class="st0" cx="50" cy="85.4" r="8.1"/>
			<circle class="st0" cx="50" cy="50" r="13.1"/>
			<circle class="st0" cx="19.1" cy="31.9" r="8.1"/>
			<circle class="st0" cx="80.9" cy="67.6" r="8.1"/>
			<circle class="st0" cx="19.1" cy="67.6" r="8.1"/>
			<circle class="st0" cx="80.9" cy="31.9" r="8.1"/>
		</g>
		<path class="st1" d="M86.7,60.5c-1.3-1.1-2.9-1.8-4.6-2V41.7c2.3-0.3,4.3-1.4,5.8-3.2c1.6-1.9,2.3-4.3,2.1-6.7l0,0
			c-0.2-2.4-1.4-4.7-3.3-6.2s-4.3-2.3-6.7-2.1c-2.4,0.2-4.6,1.4-6.2,3.2l-15.3-8.8c0.5-1.3,0.8-2.8,0.6-4.3
			c-0.2-2.4-1.4-4.7-3.3-6.2c-1.9-1.6-4.3-2.3-6.7-2.1c-5.1,0.5-8.8,4.9-8.3,10c0.1,0.9,0.3,1.8,0.6,2.6l-15.3,8.8
			c-1.9-2.2-4.7-3.5-7.8-3.2c-5.1,0.5-8.8,4.9-8.3,10c0.4,4.3,3.8,7.7,7.9,8.3v16.8c-4.8,0.7-8.3,5-7.9,9.9c0.4,4.8,4.5,8.4,9.2,8.4
			c0.3,0,0.6,0,0.8,0c2.6-0.2,4.8-1.5,6.3-3.4l15.1,8.7c-0.5,1.3-0.7,2.7-0.6,4.1c0.4,4.8,4.5,8.4,9.2,8.4c0.3,0,0.6,0,0.8,0
			c2.4-0.2,4.7-1.4,6.2-3.3c1.6-1.9,2.3-4.3,2.1-6.7c-0.1-0.8-0.3-1.7-0.6-2.4l15.1-8.7c0.4,0.5,0.8,0.9,1.3,1.3
			c1.7,1.4,3.7,2.1,5.9,2.1c0.3,0,0.6,0,0.9,0c2.4-0.2,4.7-1.4,6.2-3.3c1.6-1.9,2.3-4.3,2.1-6.7C89.7,64.3,88.5,62,86.7,60.5z
			 M80.2,25.9c0.2,0,0.4,0,0.6,0c1.6,0,3,0.5,4.3,1.5c1.4,1.1,2.2,2.7,2.4,4.5l0,0c0.2,1.8-0.4,3.5-1.5,4.9s-2.7,2.2-4.5,2.4
			s-3.5-0.4-4.9-1.5s-2.2-2.7-2.4-4.5c-0.2-1.8,0.4-3.5,1.5-4.9C76.8,26.9,78.4,26.1,80.2,25.9z M49.3,7.6c0.2,0,0.4,0,0.6,0
			c1.6,0,3,0.5,4.3,1.5c1.4,1.1,2.2,2.7,2.4,4.5l0,0c0.2,1.8-0.4,3.5-1.5,4.9s-2.7,2.2-4.5,2.4c-3.7,0.3-6.9-2.4-7.2-6
			C42.9,11.2,45.6,8,49.3,7.6z M42.6,19.9c1.7,2.2,4.3,3.6,7.3,3.6c0.3,0,0.6,0,0.8,0c2.4-0.2,4.7-1.4,6.2-3.3
			C57,20.1,57,20,57.1,20l15.2,8.8c-0.7,1.4-0.9,3-0.8,4.7c0.1,0.8,0.2,1.5,0.5,2.2l-10.5,6c-0.7-1-1.6-2-2.6-2.8
			c-2.9-2.4-6.6-3.6-10.4-3.2c-4.4,0.4-8.1,2.7-10.4,6.1l-10.5-6c0.4-1.2,0.6-2.5,0.5-3.9l0,0c-0.1-1.1-0.4-2.1-0.8-3L42.6,19.9z
			 M51,61.5c-3.2,0.3-6.2-0.7-8.6-2.7s-3.9-4.8-4.2-7.9c-0.6-6.4,4.2-12.2,10.6-12.7c0.4,0,0.7,0,1.1,0c2.7,0,5.4,0.9,7.5,2.7
			c2.4,2,3.9,4.8,4.2,7.9c0.3,3.1-0.7,6.2-2.7,8.6C56.9,59.7,54.1,61.2,51,61.5z M12.4,33.2c-0.3-3.7,2.4-6.9,6-7.3
			c0.2,0,0.4,0,0.6,0c3.4,0,6.3,2.6,6.6,6.1c0.3,3.7-2.4,6.9-6,7.3C16,39.5,12.7,36.8,12.4,33.2z M19.6,74.2c-3.7,0.3-6.9-2.4-7.3-6
			c-0.3-3.7,2.4-6.9,6-7.2c0.2,0,0.4,0,0.6,0c3.4,0,6.3,2.6,6.6,6.1C26,70.6,23.3,73.9,19.6,74.2z M27.5,71.2
			c0.6-1.4,0.8-2.9,0.7-4.4c-0.4-4.3-3.8-7.7-7.9-8.3V41.7c2.6-0.4,4.8-1.8,6.2-3.8l10.4,6c-1,2.2-1.5,4.7-1.3,7.2
			c0.3,3.8,2.1,7.2,5.1,9.7c2.3,1.9,5,3,7.9,3.3v12.2c-2.5,0.3-4.7,1.7-6.1,3.6L27.5,71.2z M55,89.6c-1.1,1.4-2.7,2.2-4.5,2.4
			c-3.7,0.3-6.9-2.4-7.2-6c-0.2-1.8,0.4-3.5,1.5-4.9s2.7-2.2,4.5-2.4c0.2,0,0.4,0,0.6,0c1.6,0,3,0.5,4.3,1.5
			c1.4,1.1,2.2,2.7,2.4,4.5C56.7,86.5,56.2,88.2,55,89.6z M57.3,79.8c-0.4-0.6-0.9-1.1-1.5-1.6c-1.3-1.1-2.9-1.8-4.6-2V64l0,0
			c3.8-0.3,7.2-2.1,9.7-5.1c2.4-2.9,3.6-6.6,3.2-10.4c-0.1-1.6-0.6-3.2-1.2-4.6l10.4-6c0.5,0.6,1,1.2,1.6,1.7c1.3,1.1,2.9,1.8,4.6,2
			v16.8c-2.3,0.3-4.3,1.4-5.8,3.2c-1.6,1.9-2.3,4.3-2.1,6.7c0.1,1,0.3,1.9,0.7,2.8L57.3,79.8z M81.4,74.2c-3.7,0.3-6.9-2.4-7.2-6
			c-0.2-1.8,0.4-3.5,1.5-4.9c1.1-1.4,2.7-2.2,4.5-2.4c0.2,0,0.4,0,0.6,0c1.6,0,3,0.5,4.3,1.5c1.4,1.1,2.2,2.7,2.4,4.5
			C87.7,70.6,85,73.9,81.4,74.2z"/>
	</g>
	<path id="Rectangle_4675" class="st2" d="M0,0h100v100H0V0z"/>
</g>
</svg>
