<?xml version="1.0" encoding="utf-8"?>
<!-- Generator: Adobe Illustrator 24.1.1, SVG Export Plug-In . SVG Version: 6.00 Build 0)  -->
<!DOCTYPE svg PUBLIC "-//W3C//DTD SVG 1.1//EN" "http://www.w3.org/Graphics/SVG/1.1/DTD/svg11.dtd" [
	<!ENTITY ns_extend "http://ns.adobe.com/Extensibility/1.0/">
	<!ENTITY ns_ai "http://ns.adobe.com/AdobeIllustrator/10.0/">
	<!ENTITY ns_graphs "http://ns.adobe.com/Graphs/1.0/">
	<!ENTITY ns_vars "http://ns.adobe.com/Variables/1.0/">
	<!ENTITY ns_imrep "http://ns.adobe.com/ImageReplacement/1.0/">
	<!ENTITY ns_sfw "http://ns.adobe.com/SaveForWeb/1.0/">
	<!ENTITY ns_custom "http://ns.adobe.com/GenericCustomNamespace/1.0/">
	<!ENTITY ns_adobe_xpath "http://ns.adobe.com/XPath/1.0/">
]>
<svg version="1.1" id="ic-transaction-staked" xmlns:x="&ns_extend;" xmlns:i="&ns_ai;" xmlns:graph="&ns_graphs;"
	 xmlns="http://www.w3.org/2000/svg" xmlns:xlink="http://www.w3.org/1999/xlink" x="0px" y="0px" viewBox="0 0 24 24"
	 style="enable-background:new 0 0 24 24;" xml:space="preserve">
<style type="text/css">
	.st0{fill-rule:evenodd;clip-rule:evenodd;fill:#FFFFFF;}
	.st1{fill:#FFFFFF;}
</style>
<metadata>
	<sfw  xmlns="&ns_sfw;">
		<slices></slices>
		<sliceSourceBounds  bottomLeftOrigin="true" height="18.55" width="22.45" x="0.77" y="2.72"></sliceSourceBounds>
	</sfw>
</metadata>
<g>
	<path class="st0" d="M23.22,11.66c-0.87-2.04-2.67-4.31-4.28-5.81c-1.25-1.16-2.73-2.09-4.11-3.09c-0.13-0.1-0.31,0.03-0.27,0.19
		l0.36,1.24c0.01,0.04,0.04,0.08,0.08,0.1c0.33,0.18,0.52,0.36,0.81,0.58c0.28,0.21,0.64,0.5,0.9,0.75c0.42,0.4,0.54,0.96,0.28,1.49
		c-0.44,0.88-1.34,1.7-2,2.43c-0.96,1.07-1.96,2.1-2.98,3.12c-1.02-1.01-2.02-2.04-2.98-3.12c-0.65-0.73-1.56-1.55-2-2.43
		C6.76,6.57,6.88,6.01,7.3,5.61c0.26-0.24,0.62-0.53,0.9-0.75c0.29-0.22,0.49-0.4,0.81-0.58c0.04-0.02,0.07-0.06,0.08-0.1l0.36-1.24
		c0.05-0.16-0.13-0.28-0.27-0.19c-1.38,1-2.86,1.93-4.11,3.09c-1.62,1.5-3.42,3.77-4.28,5.81c-0.08,0.19,0.38-0.29,0.51-0.45
		c0.92-1.22,2.56-3.1,3.18-3.1c0.8,0.01,1.36,0.64,1.91,1.13c1.58,1.41,3.06,2.93,4.52,4.48c-0.99,0.97-1.98,1.93-2.96,2.91
		c-1.05,1.05-2.11,2.09-3.14,3.16c-0.31,0.32-0.3,0.68,0.01,0.98c0.09,0.08,0.17,0.17,0.26,0.25c0.33,0.32,0.87,0.32,1.19-0.02
		c1.05-1.09,2.08-2.18,3.11-3.27c0.88-0.94,1.76-1.88,2.64-2.83c0.88,0.95,1.75,1.89,2.64,2.83c1.03,1.09,2.06,2.19,3.11,3.27
		c0.32,0.33,0.85,0.34,1.19,0.02c0.09-0.08,0.17-0.17,0.26-0.25c0.31-0.31,0.32-0.67,0.01-0.98c-1.03-1.07-2.09-2.11-3.14-3.16
		c-0.98-0.98-1.97-1.94-2.96-2.91c1.46-1.55,2.94-3.07,4.52-4.48c0.55-0.5,1.11-1.13,1.91-1.13c0.62-0.01,2.26,1.88,3.18,3.1
		C22.83,11.38,23.3,11.85,23.22,11.66z"/>
	<path class="st1" d="M14.78,6.91h-0.33l0.19-0.19c0.06-0.06,0.06-0.16,0-0.22s-0.16-0.06-0.22,0l-0.41,0.41h-0.55
		c0,0,0.41-0.41,0.41-0.41c0.04-0.04,0.06-0.09,0.06-0.15c0-0.1-0.06-0.17-0.15-0.2c-0.02-0.01-0.03-0.01-0.06-0.01h-0.59l0.39-0.39
		h0.58c0.09,0,0.16-0.07,0.16-0.16s-0.07-0.16-0.16-0.16h-0.26l0.23-0.23c0.06-0.06,0.06-0.16,0-0.22s-0.16-0.06-0.22,0l-0.23,0.23
		V4.96c0-0.09-0.07-0.16-0.16-0.16S13.3,4.88,13.3,4.96v0.58l-0.39,0.39c0-0.16,0-0.31,0-0.47c0-0.06,0.01-0.13-0.01-0.18
		c-0.06-0.13-0.24-0.18-0.34-0.08l-0.42,0.42V5.07l0.41-0.41c0.06-0.06,0.06-0.16,0-0.22c-0.06-0.06-0.16-0.06-0.22,0l-0.19,0.19
		V4.3c0-0.09-0.07-0.16-0.16-0.16s-0.16,0.07-0.16,0.16v0.33l-0.19-0.19c-0.06-0.06-0.16-0.06-0.22,0c-0.06,0.06-0.06,0.16,0,0.22
		l0.41,0.41v0.55l-0.4-0.4c-0.04-0.04-0.09-0.07-0.16-0.07c-0.11,0-0.21,0.1-0.21,0.21v0.59l-0.39-0.39V4.98
		c0-0.09-0.07-0.16-0.16-0.16s-0.16,0.07-0.16,0.16v0.26l-0.23-0.23c-0.06-0.06-0.16-0.06-0.22,0c-0.06,0.06-0.06,0.16,0,0.22
		l0.23,0.23H9.89c-0.09,0-0.16,0.07-0.16,0.16c0,0.09,0.07,0.16,0.16,0.16h0.58l0.39,0.39c-0.04,0-0.49,0-0.55,0
		c-0.05,0-0.09,0-0.13,0.02c-0.07,0.03-0.11,0.11-0.11,0.18c0,0.07,0.04,0.13,0.09,0.18c0.03,0.03,0.07,0.07,0.1,0.1
		c0.07,0.07,0.29,0.29,0.29,0.29H9.99L9.58,6.53c-0.06-0.06-0.16-0.06-0.22,0c-0.06,0.06-0.06,0.16,0,0.22l0.19,0.19H9.22
		C9.14,6.93,9.07,7,9.07,7.09s0.07,0.16,0.16,0.16h0.33L9.36,7.43c-0.06,0.06-0.06,0.16,0,0.22C9.39,7.68,9.43,7.7,9.47,7.7
		c0.04,0,0.08-0.02,0.11-0.05l0.41-0.41h0.55c-0.11,0.11-0.22,0.22-0.32,0.33c-0.04,0.04-0.1,0.08-0.12,0.14
		c-0.03,0.06-0.03,0.12,0,0.18c0.03,0.05,0.07,0.08,0.12,0.11c0.06,0.03,0.14,0.02,0.2,0.02c0.08,0,0.17,0,0.25,0
		c0.07,0,0.14,0,0.2,0L10.48,8.4H9.9c-0.09,0-0.16,0.07-0.16,0.16S9.82,8.71,9.9,8.71h0.26L9.94,8.94C9.88,9,9.88,9.1,9.94,9.16
		c0.03,0.03,0.07,0.05,0.11,0.05c0.04,0,0.08-0.02,0.11-0.05l0.23-0.23v0.26c0,0.09,0.07,0.16,0.16,0.16s0.16-0.07,0.16-0.16V8.62
		l0.39-0.39v0.59c0,0.1,0.11,0.19,0.21,0.19c0.1,0,0.16-0.07,0.22-0.13c0.06-0.06,0.12-0.13,0.19-0.19
		c0.04-0.04,0.07-0.07,0.11-0.11c0.01-0.01,0.05-0.04,0.05-0.05v0.55L11.45,9.5c-0.06,0.06-0.06,0.16,0,0.22
		c0.03,0.03,0.07,0.05,0.11,0.05c0.04,0,0.08-0.02,0.11-0.05l0.19-0.19v0.33c0,0.09,0.07,0.16,0.16,0.16s0.16-0.07,0.16-0.16V9.53
		l0.19,0.19c0.03,0.03,0.07,0.05,0.11,0.05c0.04,0,0.08-0.02,0.11-0.05c0.06-0.06,0.06-0.16,0-0.22l-0.41-0.41V8.54
		c0.1,0.1,0.2,0.2,0.3,0.3C12.54,8.92,12.6,9,12.72,9.01c0.13,0,0.21-0.11,0.21-0.23c0-0.08,0-0.16,0-0.24c0-0.11,0-0.22,0-0.33
		l0.39,0.39v0.58c0,0.09,0.07,0.16,0.16,0.16s0.16-0.07,0.16-0.16V8.91l0.23,0.23c0.03,0.03,0.07,0.05,0.11,0.05
		c0.04,0,0.08-0.02,0.11-0.05c0.06-0.06,0.06-0.16,0-0.22l-0.23-0.23h0.26c0.09,0,0.16-0.07,0.16-0.16s-0.07-0.16-0.16-0.16h-0.58
		L13.15,8c0.14,0,0.29,0,0.43,0c0.05,0,0.11,0,0.16,0c0.02,0,0.05-0.01,0.06-0.02c0.13-0.06,0.18-0.23,0.07-0.34l-0.42-0.42h0.55
		l0.41,0.41c0.03,0.03,0.07,0.05,0.11,0.05c0.04,0,0.08-0.02,0.11-0.05c0.06-0.06,0.06-0.16,0-0.22l-0.19-0.19h0.33
		c0.09,0,0.16-0.07,0.16-0.16C14.93,6.98,14.86,6.91,14.78,6.91z M12.14,6.05l0.46-0.46v0.64l-0.31,0.31
		c-0.05-0.03-0.1-0.05-0.15-0.06L12.14,6.05L12.14,6.05z M11.38,5.6l0.46,0.46V6.5c-0.05,0.02-0.1,0.04-0.15,0.06l-0.31-0.31V5.6z
		 M10.51,6.47h0.64l0.31,0.31c-0.03,0.05-0.05,0.1-0.06,0.15h-0.43L10.51,6.47z M11.17,7.7h-0.65l0.46-0.46h0.44
		c0.02,0.05,0.04,0.1,0.06,0.15L11.17,7.7z M11.86,8.1l-0.46,0.46V7.92l0.31-0.31c0.05,0.03,0.1,0.05,0.15,0.06V8.1z M12,7.38
		c-0.16,0-0.3-0.13-0.3-0.3s0.13-0.3,0.3-0.3s0.3,0.13,0.3,0.3S12.16,7.38,12,7.38z M12.62,8.56L12.16,8.1V7.66
		c0.05-0.02,0.1-0.04,0.15-0.06l0.31,0.31V8.56z M13.49,7.68h-0.64l-0.31-0.31c0.03-0.05,0.05-0.1,0.06-0.15h0.43L13.49,7.68z
		 M13.02,6.91h-0.44c-0.02-0.05-0.04-0.1-0.06-0.15l0.31-0.31h0.65L13.02,6.91z"/>
</g>
</svg>
