<?xml version="1.0" encoding="utf-8"?>
<!-- Generator: Adobe Illustrator 24.1.1, SVG Export Plug-In . SVG Version: 6.00 Build 0)  -->
<!DOCTYPE svg PUBLIC "-//W3C//DTD SVG 1.1//EN" "http://www.w3.org/Graphics/SVG/1.1/DTD/svg11.dtd" [
	<!ENTITY ns_extend "http://ns.adobe.com/Extensibility/1.0/">
	<!ENTITY ns_ai "http://ns.adobe.com/AdobeIllustrator/10.0/">
	<!ENTITY ns_graphs "http://ns.adobe.com/Graphs/1.0/">
	<!ENTITY ns_vars "http://ns.adobe.com/Variables/1.0/">
	<!ENTITY ns_imrep "http://ns.adobe.com/ImageReplacement/1.0/">
	<!ENTITY ns_sfw "http://ns.adobe.com/SaveForWeb/1.0/">
	<!ENTITY ns_custom "http://ns.adobe.com/GenericCustomNamespace/1.0/">
	<!ENTITY ns_adobe_xpath "http://ns.adobe.com/XPath/1.0/">
]>
<svg version="1.1" id="ic-transaction-staked" xmlns:x="&ns_extend;" xmlns:i="&ns_ai;" xmlns:graph="&ns_graphs;"
	 xmlns="http://www.w3.org/2000/svg" xmlns:xlink="http://www.w3.org/1999/xlink" x="0px" y="0px" viewBox="0 0 24 24"
	 style="enable-background:new 0 0 24 24;" xml:space="preserve">
<style type="text/css">
	.st0{fill-rule:evenodd;clip-rule:evenodd;fill:#FFFFFF;}
	.st1{fill:#FFFFFF;}
</style>
<metadata>
	<sfw  xmlns="&ns_sfw;">
		<slices></slices>
		<sliceSourceBounds  bottomLeftOrigin="true" height="19.57" width="20.99" x="1.51" y="2.22"></sliceSourceBounds>
	</sfw>
</metadata>
<g>
	<path class="st0" d="M3.74,6.05c-0.1-0.11-0.17-0.2-0.23-0.28C3.3,5.53,3.32,5.2,3.54,4.97c0.13-0.13,0.28-0.27,0.42-0.4
		c0.25-0.23,0.57-0.23,0.82-0.01C4.85,4.62,4.94,4.7,5.02,4.77C5.9,4.07,6.88,3.59,7.83,3c0.37-0.23,0.75-0.46,1.12-0.69
		C9.2,2.17,9.44,2.19,9.62,2.38C9.79,2.56,9.8,2.81,9.64,3.05c-0.75,1.06-1.5,2.12-2.25,3.18c-0.1,0.11-0.2,0.21-0.29,0.33
		c-0.02,0.02-0.02,0.11,0,0.13c0.13,0.19,0.3,0.36,0.41,0.55C7.93,7.9,8.49,8.45,9.05,9c0.87,0.87,1.75,1.75,2.62,2.62
		c0.31,0.31,0.32,0.32,0.64,0.01c1.21-1.21,2.42-2.43,3.62-3.65c0.1-0.1,0.17-0.21,0.25-0.32c0.26-0.36,0.5-0.7,0.75-1.03
		c-0.85-1.18-1.7-2.39-2.54-3.58c-0.17-0.23-0.17-0.49,0-0.67c0.17-0.19,0.42-0.22,0.68-0.08c1.11,0.67,2.21,1.32,3.31,2
		c0.19,0.11,0.36,0.26,0.52,0.4c0.08,0.07,0.12,0.07,0.19,0c0.14-0.13,0.29-0.28,0.5-0.3c0.17-0.01,0.32,0.03,0.45,0.16
		c0.14,0.13,0.29,0.28,0.43,0.41c0.23,0.23,0.25,0.56,0.03,0.81c-0.22,0.27-0.21,0.27,0.03,0.51c0.59,0.57,1.16,1.13,1.75,1.7
		c0.3,0.29,0.31,0.65,0.03,0.94c-0.33,0.36-0.67,0.7-0.99,1.04c-0.26,0.27-0.64,0.27-0.9,0.01c-0.6-0.58-1.19-1.15-1.8-1.74
		c-0.04-0.04-0.09-0.08-0.11-0.1c-0.78,0.64-1.57,1.22-2.24,1.95c-0.88,0.97-1.82,1.92-2.72,2.87c-0.06,0.07-0.11,0.13-0.18,0.21
		c0.12,0.11,0.25,0.22,0.36,0.33c0.81,0.83,1.62,1.64,2.43,2.47c0.46,0.46,0.88,0.93,1.34,1.4c0.87,0.88,1.72,1.77,2.59,2.66
		c0.35,0.36,0.33,0.76-0.01,1.11c-0.14,0.14-0.29,0.28-0.43,0.41c-0.33,0.31-0.75,0.31-1.06-0.01c-1.54-1.6-3.08-3.18-4.62-4.78
		c-0.65-0.67-1.28-1.34-1.93-2.03c-0.01,0.01-0.03,0.02-0.06,0.04c-1.12,1.17-2.23,2.35-3.35,3.51c-1.03,1.07-2.06,2.13-3.09,3.19
		c-0.37,0.38-0.77,0.39-1.14,0.02c-0.13-0.12-0.26-0.26-0.39-0.38c-0.36-0.35-0.36-0.75-0.01-1.09c0.88-0.9,1.76-1.83,2.65-2.73
		c1.06-1.09,2.12-2.2,3.19-3.28c0.23-0.25,0.49-0.46,0.74-0.69c0.04-0.04,0.09-0.09,0.16-0.14c-0.39-0.42-0.76-0.85-1.13-1.24
		c-0.85-0.87-1.7-1.74-2.55-2.61C6.78,9.11,6.51,8.95,6.28,8.75c-0.26-0.2-0.51-0.4-0.78-0.62c-0.02,0.02-0.07,0.06-0.1,0.1
		C4.82,8.8,4.24,9.36,3.64,9.93c-0.31,0.3-0.68,0.3-0.97,0C2.35,9.6,2.04,9.28,1.73,8.96c-0.31-0.32-0.3-0.69,0.02-0.99
		c0.63-0.63,1.26-1.23,1.89-1.84C3.67,6.1,3.7,6.07,3.74,6.05z"/>
	<path class="st1" d="M14.11,6.33C14,6.1,13.9,5.85,13.7,5.68c-0.03-0.02-0.05-0.04-0.08-0.05c-0.04-0.01-0.07,0.01-0.06,0.09
		c0,0.05,0.01,0.11,0.02,0.16c0.03,0.13,0.05,0.27,0.05,0.4c0.01,0.25-0.04,0.61-0.37,0.6c-0.26-0.01-0.49-0.22-0.52-0.47
		c-0.04-0.32,0.22-0.58,0.36-0.85c0.61-1.14,0.29-2.13-0.8-2.81c-0.18-0.12-0.13,0.07-0.08,0.16c0.06,0.1,0.11,0.21,0.13,0.33
		c0.03,0.23-0.07,0.46-0.21,0.64c-0.24,0.32-0.52,0.62-0.79,0.91c-0.17,0.18-0.3,0.4-0.51,0.55c-0.22,0.15-0.28,0-0.23-0.21
		c0.03-0.11,0.07-0.22,0.13-0.32c0.05-0.09,0.11-0.28-0.08-0.16C10.13,5,9.79,5.64,9.71,6.27c-0.08,0.7-0.04,1.49,0.33,2.11
		c0.32,0.54,0.87,0.95,1.49,1.06c0.99,0.18,2.14-0.23,2.55-1.2C14.36,7.6,14.41,6.97,14.11,6.33z"/>
</g>
</svg>
