<?xml version="1.0" encoding="utf-8"?>
<!-- Generator: Adobe Illustrator 24.1.1, SVG Export Plug-In . SVG Version: 6.00 Build 0)  -->
<!DOCTYPE svg PUBLIC "-//W3C//DTD SVG 1.1//EN" "http://www.w3.org/Graphics/SVG/1.1/DTD/svg11.dtd" [
	<!ENTITY ns_extend "http://ns.adobe.com/Extensibility/1.0/">
	<!ENTITY ns_ai "http://ns.adobe.com/AdobeIllustrator/10.0/">
	<!ENTITY ns_graphs "http://ns.adobe.com/Graphs/1.0/">
	<!ENTITY ns_vars "http://ns.adobe.com/Variables/1.0/">
	<!ENTITY ns_imrep "http://ns.adobe.com/ImageReplacement/1.0/">
	<!ENTITY ns_sfw "http://ns.adobe.com/SaveForWeb/1.0/">
	<!ENTITY ns_custom "http://ns.adobe.com/GenericCustomNamespace/1.0/">
	<!ENTITY ns_adobe_xpath "http://ns.adobe.com/XPath/1.0/">
]>
<svg version="1.1" id="ic-transaction-staked" xmlns:x="&ns_extend;" xmlns:i="&ns_ai;" xmlns:graph="&ns_graphs;"
	 xmlns="http://www.w3.org/2000/svg" xmlns:xlink="http://www.w3.org/1999/xlink" x="0px" y="0px" viewBox="0 0 24 24"
	 style="enable-background:new 0 0 24 24;" xml:space="preserve">
<style type="text/css">
	.st0{fill:none;stroke:#FFFFFF;stroke-width:2;stroke-miterlimit:10;}
	.st1{opacity:0.57;}
	.st2{fill:url(#SVGID_1_);}
	.st3{fill:url(#SVGID_2_);}
	.st4{fill:#FFFFFF;}
	.st5{fill:url(#SVGID_3_);}
	.st6{fill:url(#SVGID_4_);}
</style>
<metadata>
	<sfw  xmlns="&ns_sfw;">
		<slices></slices>
		<sliceSourceBounds  bottomLeftOrigin="true" height="22" width="22" x="1" y="0.8"></sliceSourceBounds>
	</sfw>
</metadata>
<circle class="st0" cx="12" cy="12.2" r="10"/>
<g>
	<g>
		<g>
			<g>
				<g class="st1">
					
						<linearGradient id="SVGID_1_" gradientUnits="userSpaceOnUse" x1="396.3671" y1="128.7624" x2="396.3671" y2="121.1103" gradientTransform="matrix(6.123234e-17 1 1 -6.123234e-17 -107.0745 -384.3571)">
						<stop  offset="0.0104" style="stop-color:#FFFFFF;stop-opacity:0"/>
						<stop  offset="0.513" style="stop-color:#FFFFFF"/>
					</linearGradient>
					<path class="st2" d="M21.75,15.15l-2-1.15c-0.48,0.43-1.11,0.7-1.8,0.7c-1.49,0-2.7-1.21-2.7-2.7s1.21-2.7,2.7-2.7
						c0.69,0,1.33,0.27,1.8,0.7l2-1.15L20.5,6.69l-7.26,4.18c-0.46,0.24-0.78,0.71-0.73,1.25c0.05,0.63,0.52,0.9,1,1.19
						c0.27,0.15,0.53,0.3,0.79,0.45c0.81,0.47,1.63,0.94,2.45,1.41c0.83,0.48,1.67,0.96,2.51,1.44c0.41,0.24,0.82,0.47,1.23,0.71
						L21.75,15.15z"/>
					
						<linearGradient id="SVGID_2_" gradientUnits="userSpaceOnUse" x1="352.6499" y1="-1209.9119" x2="352.6499" y2="-1216.2467" gradientTransform="matrix(6.123234e-17 1 1 -6.123234e-17 1231.8195 -340.6399)">
						<stop  offset="0.0104" style="stop-color:#FFFFFF;stop-opacity:0"/>
						<stop  offset="0.513" style="stop-color:#FFFFFF"/>
					</linearGradient>
					<path class="st3" d="M19.77,12.01c0-1-0.81-1.81-1.82-1.81s-1.82,0.81-1.82,1.81s0.81,1.82,1.82,1.82S19.77,13.02,19.77,12.01z
						"/>
				</g>
				<g>
					<g>
						<g>
							<path class="st4" d="M12.28,12.01c0-0.07,0-0.14,0.01-0.21c0.06-0.45,0.33-0.85,0.73-1.08c0.02-0.01,0.05-0.03,0.09-0.04
								l7.28-4.19c0.11-0.06,0.26-0.02,0.32,0.09l1.25,2.16c0.03,0.05,0.04,0.12,0.02,0.18c-0.01,0.06-0.05,0.11-0.11,0.14l-2,1.15
								c-0.09,0.05-0.2,0.04-0.27-0.03c-0.45-0.41-1.04-0.64-1.64-0.64c-1.36,0-2.46,1.1-2.46,2.46s1.1,2.46,2.46,2.46
								c0.61,0,1.19-0.23,1.64-0.64c0.08-0.07,0.18-0.08,0.27-0.03l2,1.15c0.05,0.03,0.09,0.08,0.11,0.14
								c0.01,0.06,0.01,0.13-0.02,0.18l-1.25,2.16c-0.06,0.11-0.21,0.15-0.32,0.09l-7.26-4.18c-0.06-0.03-0.09-0.04-0.12-0.06
								C12.56,13.02,12.28,12.53,12.28,12.01z M12.84,12.41c0.15,0.31,0.48,0.5,0.8,0.69c0.27,0.15,0.54,0.31,0.8,0.46
								c0.82,0.47,1.64,0.95,2.46,1.42c0.81,0.47,1.63,0.94,2.45,1.41c0.35,0.2,0.71,0.41,1.06,0.61l1.02-1.76l-1.65-0.95
								c-0.52,0.42-1.16,0.65-1.83,0.65c-1.62,0-2.93-1.32-2.93-2.93s1.31-2.93,2.93-2.93c0.67,0,1.31,0.23,1.83,0.65l1.65-0.95
								l-1.02-1.76c-0.39,0.22-0.77,0.44-1.16,0.67c-0.83,0.48-1.67,0.96-2.51,1.45c-0.81,0.47-1.62,0.94-2.43,1.4
								c-0.23,0.13-0.46,0.27-0.68,0.4c-0.43,0.25-0.87,0.5-0.88,1.07C12.75,12.15,12.78,12.3,12.84,12.41z"/>
						</g>
					</g>
					<g>
						<path class="st4" d="M15.9,12.01c0-1.13,0.92-2.05,2.05-2.05S20,10.88,20,12.01s-0.92,2.05-2.05,2.05S15.9,13.14,15.9,12.01z
							 M19.54,12.01c0-0.87-0.71-1.58-1.58-1.58s-1.58,0.71-1.58,1.58s0.71,1.58,1.58,1.58C18.83,13.59,19.54,12.89,19.54,12.01z"/>
					</g>
				</g>
			</g>
		</g>
		<g>
			<g>
				<g class="st1">
					
						<linearGradient id="SVGID_3_" gradientUnits="userSpaceOnUse" x1="396.3721" y1="-1084.1511" x2="396.3721" y2="-1091.8032" gradientTransform="matrix(-4.489665e-11 1 -1 -4.489665e-11 -1081.839 -384.3571)">
						<stop  offset="0.0104" style="stop-color:#FFFFFF;stop-opacity:0"/>
						<stop  offset="0.513" style="stop-color:#FFFFFF"/>
					</linearGradient>
					<path class="st5" d="M3.5,17.33c0.41-0.24,0.82-0.47,1.23-0.71c0.84-0.48,1.67-0.96,2.51-1.44c0.81-0.47,1.63-0.94,2.45-1.41
						c0.27-0.15,0.53-0.3,0.79-0.45c0.49-0.28,0.95-0.56,1-1.19c0.05-0.54-0.27-1.01-0.73-1.25L3.5,6.69L2.25,8.86l2,1.15
						c0.48-0.43,1.11-0.7,1.8-0.7c1.49,0,2.7,1.21,2.7,2.7s-1.21,2.7-2.7,2.7c-0.69,0-1.33-0.27-1.8-0.7l-2,1.15L3.5,17.33z"/>
					
						<linearGradient id="SVGID_4_" gradientUnits="userSpaceOnUse" x1="352.6499" y1="-2422.8252" x2="352.6499" y2="-2429.1602" gradientTransform="matrix(-4.489665e-11 1 -1 -4.489665e-11 -2420.7329 -340.6399)">
						<stop  offset="0.0104" style="stop-color:#FFFFFF;stop-opacity:0"/>
						<stop  offset="0.513" style="stop-color:#FFFFFF"/>
					</linearGradient>
					<path class="st6" d="M6.05,13.82c1,0,1.82-0.81,1.82-1.82c0-1-0.81-1.81-1.82-1.81s-1.82,0.81-1.82,1.81S5.05,13.82,6.05,13.82
						z"/>
				</g>
				<g>
					<g>
						<g>
							<path class="st4" d="M10.99,13.3c-0.03,0.01-0.06,0.03-0.12,0.06l-7.26,4.18c-0.11,0.06-0.26,0.02-0.32-0.09l-1.25-2.16
								C2.01,15.23,2,15.16,2.02,15.11c0.02-0.06,0.06-0.11,0.11-0.14l2-1.15c0.09-0.05,0.2-0.04,0.27,0.03
								c0.45,0.41,1.04,0.64,1.64,0.64c1.36,0,2.46-1.1,2.46-2.46c0-1.35-1.1-2.46-2.46-2.46c-0.61,0-1.19,0.23-1.64,0.64
								c-0.08,0.07-0.19,0.08-0.27,0.03l-2-1.15c-0.06-0.03-0.1-0.08-0.11-0.14s0-0.13,0.02-0.18L3.3,6.57
								c0.06-0.11,0.2-0.15,0.32-0.09l7.28,4.19c0.03,0.01,0.07,0.03,0.09,0.04c0.4,0.23,0.67,0.63,0.73,1.08
								c0.01,0.07,0.01,0.14,0.01,0.21C11.72,12.53,11.44,13.02,10.99,13.3z M11.25,11.99c-0.01-0.57-0.44-0.82-0.88-1.07
								c-0.23-0.13-0.46-0.27-0.68-0.4c-0.81-0.47-1.62-0.94-2.43-1.4C6.42,8.65,5.58,8.15,4.75,7.68C4.36,7.45,3.98,7.23,3.59,7.02
								L2.57,8.78l1.65,0.95c0.52-0.42,1.16-0.65,1.83-0.65c1.62,0,2.93,1.31,2.93,2.93s-1.31,2.93-2.93,2.93
								c-0.67,0-1.31-0.23-1.83-0.65l-1.65,0.95l1.02,1.76c0.35-0.2,0.71-0.41,1.06-0.61c0.81-0.47,1.63-0.94,2.45-1.41
								s1.64-0.95,2.46-1.42c0.27-0.15,0.54-0.31,0.8-0.46c0.32-0.19,0.65-0.38,0.8-0.69C11.22,12.3,11.25,12.15,11.25,11.99z"/>
						</g>
					</g>
					<g>
						<path class="st4" d="M6.05,14.06C4.92,14.06,4,13.14,4,12.01s0.92-2.05,2.05-2.05s2.05,0.92,2.05,2.05S7.18,14.06,6.05,14.06z
							 M6.05,13.59c0.87,0,1.58-0.71,1.58-1.58s-0.71-1.58-1.58-1.58s-1.59,0.71-1.59,1.58C4.46,12.89,5.17,13.59,6.05,13.59z"/>
					</g>
				</g>
			</g>
		</g>
	</g>
	<g>
		<path class="st4" d="M6.55,8.65C6.59,8.67,6.62,8.68,6.66,8.7C6.68,8.7,6.8,8.76,6.71,8.72C6.63,8.69,6.75,8.73,6.77,8.74
			C6.81,8.77,6.85,8.77,6.88,8.8c0.08,0.03,0.15,0.06,0.23,0.09c0.15,0.05,0.3,0.11,0.45,0.16l0,0C8.53,7.6,10.15,6.66,12,6.66
			c1.81,0,3.4,0.91,4.37,2.28c0.33-0.23,0.7-0.39,1.06-0.56C16.26,6.64,14.26,5.47,12,5.47c-2.35,0-4.4,1.25-5.55,3.12
			C6.48,8.61,6.51,8.63,6.55,8.65z"/>
		<path class="st4" d="M17.3,15.57c-0.17-0.07-0.34-0.14-0.5-0.21s-0.32-0.15-0.48-0.24c-0.97,1.34-2.54,2.23-4.32,2.23
			c-1.86,0-3.48-0.98-4.43-2.43c-0.22,0.07-0.44,0.15-0.66,0.22c-0.02,0.02-0.04,0.05-0.06,0.07c0.01-0.01,0,0,0.01-0.01
			c0,0,0,0,0-0.01c0.02-0.03,0.06-0.06,0,0.01c-0.01,0.02-0.02,0.03-0.04,0.05c-0.06,0.08-0.11,0.17-0.15,0.26
			c-0.02,0.05-0.06,0.08-0.09,0.11c1.17,1.75,3.17,2.91,5.43,2.91s4.26-1.16,5.43-2.91C17.39,15.6,17.34,15.59,17.3,15.57z"/>
	</g>
</g>
</svg>
