<?xml version="1.0" encoding="utf-8"?>
<!-- Generator: Adobe Illustrator 24.1.1, SVG Export Plug-In . SVG Version: 6.00 Build 0)  -->
<!DOCTYPE svg PUBLIC "-//W3C//DTD SVG 1.1//EN" "http://www.w3.org/Graphics/SVG/1.1/DTD/svg11.dtd" [
	<!ENTITY ns_extend "http://ns.adobe.com/Extensibility/1.0/">
	<!ENTITY ns_ai "http://ns.adobe.com/AdobeIllustrator/10.0/">
	<!ENTITY ns_graphs "http://ns.adobe.com/Graphs/1.0/">
	<!ENTITY ns_vars "http://ns.adobe.com/Variables/1.0/">
	<!ENTITY ns_imrep "http://ns.adobe.com/ImageReplacement/1.0/">
	<!ENTITY ns_sfw "http://ns.adobe.com/SaveForWeb/1.0/">
	<!ENTITY ns_custom "http://ns.adobe.com/GenericCustomNamespace/1.0/">
	<!ENTITY ns_adobe_xpath "http://ns.adobe.com/XPath/1.0/">
]>
<svg version="1.1" id="ic-transaction-staked" xmlns:x="&ns_extend;" xmlns:i="&ns_ai;" xmlns:graph="&ns_graphs;"
	 xmlns="http://www.w3.org/2000/svg" xmlns:xlink="http://www.w3.org/1999/xlink" x="0px" y="0px" viewBox="0 0 24 24"
	 style="enable-background:new 0 0 24 24;" xml:space="preserve">
<style type="text/css">
	.st0{fill-rule:evenodd;clip-rule:evenodd;fill:#B6B6B6;}
	.st1{fill:#B6B6B6;}
</style>
<metadata>
	<sfw  xmlns="&ns_sfw;">
		<slices></slices>
		<sliceSourceBounds  bottomLeftOrigin="true" height="18.53" width="22.45" x="0.78" y="2.74"></sliceSourceBounds>
	</sfw>
</metadata>
<g>
	<path class="st0" d="M23.22,11.68c-0.87-2.04-2.67-4.31-4.28-5.81c-1.25-1.16-2.73-2.09-4.11-3.09c-0.13-0.1-0.31,0.03-0.27,0.19
		l0.36,1.24c0.01,0.04,0.04,0.08,0.08,0.1c0.33,0.18,0.52,0.36,0.81,0.58c0.28,0.21,0.64,0.5,0.9,0.75c0.42,0.4,0.54,0.96,0.28,1.49
		c-0.44,0.88-1.34,1.7-2,2.43c-0.96,1.07-1.96,2.1-2.98,3.12c-1.02-1.01-2.02-2.04-2.98-3.12c-0.65-0.73-1.56-1.55-2-2.43
		c-0.27-0.54-0.15-1.1,0.27-1.5C7.56,5.39,7.92,5.1,8.2,4.88c0.29-0.22,0.49-0.4,0.81-0.58c0.04-0.02,0.07-0.06,0.08-0.1l0.36-1.24
		C9.5,2.8,9.32,2.68,9.18,2.77c-1.38,1-2.86,1.93-4.11,3.09c-1.62,1.5-3.42,3.77-4.28,5.81c-0.08,0.19,0.38-0.29,0.51-0.45
		c0.92-1.22,2.56-3.1,3.18-3.1c0.8,0.01,1.36,0.64,1.91,1.13c1.58,1.41,3.06,2.93,4.52,4.48c-0.99,0.97-1.98,1.93-2.96,2.91
		c-1.05,1.05-2.11,2.09-3.14,3.16c-0.31,0.32-0.3,0.68,0.01,0.98c0.09,0.08,0.17,0.17,0.26,0.25c0.33,0.32,0.87,0.32,1.19-0.02
		c1.05-1.09,2.08-2.18,3.11-3.27c0.88-0.94,1.76-1.88,2.64-2.83c0.88,0.95,1.75,1.89,2.64,2.83c1.03,1.09,2.06,2.19,3.11,3.27
		c0.32,0.33,0.85,0.34,1.19,0.02c0.09-0.08,0.17-0.17,0.26-0.25c0.31-0.31,0.32-0.67,0.01-0.98c-1.03-1.07-2.09-2.11-3.14-3.16
		c-0.98-0.98-1.97-1.94-2.96-2.91c1.46-1.55,2.94-3.07,4.52-4.48c0.55-0.5,1.11-1.13,1.91-1.13c0.62-0.01,2.26,1.88,3.18,3.1
		C22.83,11.4,23.3,11.87,23.22,11.68z"/>
	<path class="st1" d="M14.78,6.93h-0.33l0.19-0.19c0.06-0.06,0.06-0.16,0-0.22s-0.16-0.06-0.22,0l-0.41,0.41h-0.55l0.41-0.41
		c0.04-0.04,0.06-0.09,0.06-0.15c0-0.1-0.06-0.17-0.15-0.2c-0.02-0.01-0.03-0.01-0.06-0.01h-0.59l0.39-0.39h0.58
		c0.09,0,0.16-0.07,0.16-0.16s-0.07-0.16-0.16-0.16h-0.26l0.23-0.23c0.06-0.06,0.06-0.16,0-0.22s-0.16-0.06-0.22,0l-0.23,0.23V4.98
		c0-0.09-0.07-0.16-0.16-0.16S13.3,4.9,13.3,4.98v0.58l-0.39,0.39c0-0.16,0-0.31,0-0.47c0-0.06,0.01-0.13-0.01-0.18
		c-0.06-0.13-0.24-0.18-0.34-0.08l-0.42,0.42V5.09l0.41-0.41c0.06-0.06,0.06-0.16,0-0.22s-0.16-0.06-0.22,0l-0.19,0.19V4.32
		c0-0.09-0.07-0.16-0.16-0.16s-0.16,0.07-0.16,0.16v0.33l-0.19-0.19c-0.06-0.06-0.16-0.06-0.22,0s-0.06,0.16,0,0.22l0.41,0.41v0.55
		l-0.4-0.4c-0.04-0.04-0.09-0.07-0.16-0.07c-0.11,0-0.21,0.1-0.21,0.21v0.59l-0.39-0.39V5c0-0.09-0.07-0.16-0.16-0.16
		S10.34,4.91,10.34,5v0.26l-0.23-0.23c-0.06-0.06-0.16-0.06-0.22,0s-0.06,0.16,0,0.22l0.23,0.23H9.89c-0.09,0-0.16,0.07-0.16,0.16
		c0,0.09,0.07,0.16,0.16,0.16h0.58l0.39,0.39c-0.04,0-0.49,0-0.55,0c-0.05,0-0.09,0-0.13,0.02c-0.07,0.03-0.11,0.11-0.11,0.18
		c0,0.07,0.04,0.13,0.09,0.18c0.03,0.03,0.07,0.07,0.1,0.1c0.07,0.07,0.29,0.29,0.29,0.29H9.99L9.58,6.55
		c-0.06-0.06-0.16-0.06-0.22,0s-0.06,0.16,0,0.22l0.19,0.19H9.22C9.14,6.95,9.07,7.02,9.07,7.11s0.07,0.16,0.16,0.16h0.33l-0.2,0.18
		c-0.06,0.06-0.06,0.16,0,0.22C9.39,7.7,9.43,7.72,9.47,7.72S9.55,7.7,9.58,7.67l0.41-0.41h0.55c-0.11,0.11-0.22,0.22-0.32,0.33
		c-0.04,0.04-0.1,0.08-0.12,0.14c-0.03,0.06-0.03,0.12,0,0.18c0.03,0.05,0.07,0.08,0.12,0.11c0.06,0.03,0.14,0.02,0.2,0.02
		c0.08,0,0.17,0,0.25,0c0.07,0,0.14,0,0.2,0l-0.39,0.38H9.9c-0.09,0-0.16,0.07-0.16,0.16S9.82,8.73,9.9,8.73h0.26L9.94,8.96
		c-0.06,0.06-0.06,0.16,0,0.22c0.03,0.03,0.07,0.05,0.11,0.05s0.08-0.02,0.11-0.05l0.23-0.23v0.26c0,0.09,0.07,0.16,0.16,0.16
		s0.16-0.07,0.16-0.16V8.64l0.39-0.39v0.59c0,0.1,0.11,0.19,0.21,0.19s0.16-0.07,0.22-0.13s0.12-0.13,0.19-0.19
		c0.04-0.04,0.07-0.07,0.11-0.11c0.01-0.01,0.05-0.04,0.05-0.05V9.1l-0.43,0.42c-0.06,0.06-0.06,0.16,0,0.22
		c0.03,0.03,0.07,0.05,0.11,0.05s0.08-0.02,0.11-0.05l0.19-0.19v0.33c0,0.09,0.07,0.16,0.16,0.16s0.16-0.07,0.16-0.16V9.55
		l0.19,0.19c0.03,0.03,0.07,0.05,0.11,0.05s0.08-0.02,0.11-0.05c0.06-0.06,0.06-0.16,0-0.22l-0.41-0.41V8.56
		c0.1,0.1,0.2,0.2,0.3,0.3c0.06,0.08,0.12,0.16,0.24,0.17c0.13,0,0.21-0.11,0.21-0.23c0-0.08,0-0.16,0-0.24c0-0.11,0-0.22,0-0.33
		l0.39,0.39V9.2c0,0.09,0.07,0.16,0.16,0.16s0.16-0.07,0.16-0.16V8.93l0.23,0.23c0.03,0.03,0.07,0.05,0.11,0.05s0.08-0.02,0.11-0.05
		c0.06-0.06,0.06-0.16,0-0.22l-0.23-0.23h0.26c0.09,0,0.16-0.07,0.16-0.16s-0.07-0.16-0.16-0.16h-0.58l-0.39-0.37
		c0.14,0,0.29,0,0.43,0c0.05,0,0.11,0,0.16,0c0.02,0,0.05-0.01,0.06-0.02c0.13-0.06,0.18-0.23,0.07-0.34l-0.42-0.42H14l0.41,0.41
		c0.03,0.03,0.07,0.05,0.11,0.05s0.08-0.02,0.11-0.05c0.06-0.06,0.06-0.16,0-0.22l-0.19-0.19h0.33c0.09,0,0.16-0.07,0.16-0.16
		C14.93,7,14.86,6.93,14.78,6.93z M12.14,6.07l0.46-0.46v0.64l-0.31,0.31c-0.05-0.03-0.1-0.05-0.15-0.06V6.07L12.14,6.07z
		 M11.38,5.62l0.46,0.46v0.44c-0.05,0.02-0.1,0.04-0.15,0.06l-0.31-0.31V5.62z M10.51,6.49h0.64l0.31,0.31
		c-0.03,0.05-0.05,0.1-0.06,0.15h-0.43L10.51,6.49z M11.17,7.72h-0.65l0.46-0.46h0.44c0.02,0.05,0.04,0.1,0.06,0.15L11.17,7.72z
		 M11.86,8.12L11.4,8.58V7.94l0.31-0.31c0.05,0.03,0.1,0.05,0.15,0.06V8.12z M12,7.4c-0.16,0-0.3-0.13-0.3-0.3s0.13-0.3,0.3-0.3
		s0.3,0.13,0.3,0.3S12.16,7.4,12,7.4z M12.62,8.58l-0.46-0.46V7.68c0.05-0.02,0.1-0.04,0.15-0.06l0.31,0.31V8.58z M13.49,7.7h-0.64
		l-0.31-0.31c0.03-0.05,0.05-0.1,0.06-0.15h0.43L13.49,7.7z M13.02,6.93h-0.44c-0.02-0.05-0.04-0.1-0.06-0.15l0.31-0.31h0.65
		L13.02,6.93z"/>
</g>
</svg>
