<?xml version="1.0" encoding="utf-8"?>
<!-- Generator: Adobe Illustrator 24.1.1, SVG Export Plug-In . SVG Version: 6.00 Build 0)  -->
<!DOCTYPE svg PUBLIC "-//W3C//DTD SVG 1.1//EN" "http://www.w3.org/Graphics/SVG/1.1/DTD/svg11.dtd" [
	<!ENTITY ns_extend "http://ns.adobe.com/Extensibility/1.0/">
	<!ENTITY ns_ai "http://ns.adobe.com/AdobeIllustrator/10.0/">
	<!ENTITY ns_graphs "http://ns.adobe.com/Graphs/1.0/">
	<!ENTITY ns_vars "http://ns.adobe.com/Variables/1.0/">
	<!ENTITY ns_imrep "http://ns.adobe.com/ImageReplacement/1.0/">
	<!ENTITY ns_sfw "http://ns.adobe.com/SaveForWeb/1.0/">
	<!ENTITY ns_custom "http://ns.adobe.com/GenericCustomNamespace/1.0/">
	<!ENTITY ns_adobe_xpath "http://ns.adobe.com/XPath/1.0/">
]>
<svg version="1.1" id="Layer_1" xmlns:x="&ns_extend;" xmlns:i="&ns_ai;" xmlns:graph="&ns_graphs;"
	 xmlns="http://www.w3.org/2000/svg" xmlns:xlink="http://www.w3.org/1999/xlink" x="0px" y="0px" viewBox="0 0 24 24"
	 style="enable-background:new 0 0 24 24;" xml:space="preserve">
<style type="text/css">
	.st0{opacity:0.7;}
	.st1{opacity:0.57;}
	.st2{fill:url(#SVGID_1_);}
	.st3{fill:url(#SVGID_2_);}
	.st4{fill:#FFFFFF;}
	.st5{fill:none;}
</style>
<metadata>
	<sfw  xmlns="&ns_sfw;">
		<slices></slices>
		<sliceSourceBounds  bottomLeftOrigin="true" height="24" width="24" x="0" y="0"></sliceSourceBounds>
	</sfw>
</metadata>
<g id="ic-transaction-sent" class="st0">
	<g>
		<g class="st1">
			
				<linearGradient id="SVGID_1_" gradientUnits="userSpaceOnUse" x1="57.1511" y1="456.5909" x2="57.1511" y2="471.5602" gradientTransform="matrix(-0.7071 -0.7071 0.7071 -0.7071 -274.7289 379.5274)">
				<stop  offset="0.0104" style="stop-color:#FFFFFF;stop-opacity:0"/>
				<stop  offset="0.513" style="stop-color:#FFFFFF"/>
			</linearGradient>
			<path class="st2" d="M3.21,11.56l4.62-1.24c0.06-1.34,0.6-2.65,1.62-3.67c2.18-2.18,5.73-2.18,7.91,0s2.18,5.73,0,7.91
				c-1.02,1.02-2.33,1.56-3.67,1.62l-1.24,4.61l5.01,1.34l4.51-16.77c0.33-1.03,0.09-2.18-0.77-2.91c-1-0.84-2.08-0.57-3.21-0.27
				c-0.61,0.17-1.22,0.33-1.82,0.49c-1.89,0.5-3.78,1.02-5.66,1.52C8.56,4.71,6.63,5.23,4.7,5.76C3.75,6.01,2.8,6.27,1.85,6.53
				L3.21,11.56z"/>
			
				<linearGradient id="SVGID_2_" gradientUnits="userSpaceOnUse" x1="57.1462" y1="456.7376" x2="57.1462" y2="475.339" gradientTransform="matrix(-0.7071 -0.7071 0.7071 -0.7071 -274.7289 379.5274)">
				<stop  offset="0.0104" style="stop-color:#FFFFFF;stop-opacity:0"/>
				<stop  offset="0.513" style="stop-color:#FFFFFF"/>
			</linearGradient>
			<path class="st3" d="M10.73,13.26c1.47,1.47,3.85,1.46,5.32-0.01s1.47-3.86,0.01-5.32c-1.47-1.47-3.86-1.47-5.33,0
				S9.26,11.79,10.73,13.26z"/>
		</g>
		<g>
			<g>
				<g>
					<path class="st4" d="M21.71,2.28c0.1,0.1,0.19,0.21,0.28,0.33c0.57,0.76,0.76,1.74,0.52,2.65c-0.01,0.05-0.04,0.12-0.06,0.19
						l-4.53,16.81c-0.07,0.25-0.33,0.42-0.59,0.34l-5-1.34c-0.12-0.04-0.23-0.11-0.3-0.23c-0.06-0.11-0.08-0.24-0.04-0.37l1.24-4.62
						c0.06-0.2,0.23-0.35,0.45-0.36c1.27-0.06,2.45-0.59,3.34-1.48c1.99-1.99,1.99-5.23,0.01-7.22C15.03,5,11.79,5,9.8,7
						C8.9,7.89,8.38,9.07,8.32,10.34c-0.01,0.21-0.15,0.39-0.36,0.45l-4.62,1.24c-0.12,0.04-0.25,0.01-0.37-0.04
						c-0.11-0.06-0.2-0.17-0.23-0.3L1.4,6.68C1.33,6.42,1.49,6.15,1.74,6.08L18.5,1.56c0.13-0.04,0.19-0.06,0.25-0.08
						C19.82,1.21,20.94,1.51,21.71,2.28z M20.29,2.5c-0.69-0.23-1.44-0.04-2.18,0.16c-0.62,0.16-1.24,0.33-1.85,0.49
						c-1.9,0.51-3.79,1.02-5.69,1.53C8.68,5.18,6.79,5.7,4.9,6.2C4.09,6.42,3.26,6.64,2.45,6.86l1.09,4.07l3.83-1.03
						C7.51,8.53,8.12,7.26,9.1,6.28c2.37-2.37,6.22-2.36,8.59,0.01s2.37,6.22,0,8.58c-0.98,0.98-2.26,1.59-3.63,1.73l-1.03,3.83
						l4.08,1.1c0.24-0.89,0.48-1.78,0.72-2.67c0.52-1.93,1.04-3.87,1.56-5.8c0.5-1.87,1.01-3.75,1.51-5.63
						c0.14-0.52,0.28-1.06,0.42-1.58c0.27-1,0.54-2-0.28-2.86C20.8,2.75,20.55,2.59,20.29,2.5z"/>
				</g>
			</g>
			<g>
				<path class="st4" d="M16.4,7.59c1.65,1.65,1.65,4.36,0,6.01s-4.36,1.65-6.01,0s-1.65-4.36,0-6.01S14.75,5.93,16.4,7.59z
					 M11.08,12.91c1.28,1.28,3.36,1.28,4.64,0s1.28-3.36,0-4.64s-3.36-1.28-4.64,0S9.8,11.63,11.08,12.91z"/>
			</g>
		</g>
	</g>
	<path id="Rectangle_4412" class="st5" d="M0,0h24v24H0V0z"/>
</g>
</svg>
